<?xml version="1.0" standalone="no"?>
<!DOCTYPE svg PUBLIC "-//W3C//DTD SVG 1.1//EN" "http://www.w3.org/Graphics/SVG/1.1/DTD/svg11.dtd" >
<svg>
<metadata>
Created by FontForge 20100429 at Sun Jan 11 04:41:07 2015
 By fontface
Copyright (c) 2004-7 by Kris Sowersby. All rights reserved.
</metadata>
<defs>
<font id="National-Bold" horiz-adv-x="557" >
  <font-face 
    font-family="National Bold"
    font-weight="800"
    font-stretch="normal"
    units-per-em="1000"
    panose-1="2 0 5 3 0 0 0 2 0 4"
    ascent="800"
    descent="-200"
    x-height="462"
    cap-height="589"
    bbox="-117 -257 1216 1014"
    underline-thickness="57"
    underline-position="28"
    stemh="113"
    stemv="133"
    unicode-range="U+0020-F778"
  />
<missing-glyph horiz-adv-x="608" 
 />
    <glyph glyph-name="f_b" unicode="fb" horiz-adv-x="848" 
d="M448 0h-94v552c-22 14 -44 22 -71 22c-39 0 -71 -18 -71 -74v-38h91v-103h-91v-359h-133v359h-68v103h68v33c0 134 91 181 187 181c44 0 71 -7 103 -20l119 12v-292c25 70 84 97 149 97c113 0 178 -84 178 -231c0 -152 -72 -254 -197 -254c-79 0 -123 35 -137 79z
M487 259v-70c0 -79 49 -105 89 -105c57 0 105 48 105 146c0 96 -38 136 -96 136c-50 0 -98 -39 -98 -107z" />
    <glyph glyph-name="f_f_b" unicode="ffb" horiz-adv-x="1124" 
d="M762 259v-70c0 -79 49 -105 89 -105c57 0 105 48 105 146c0 96 -37 136 -96 136c-49 0 -98 -39 -98 -107zM763 668v-292c25 70 84 97 150 97c113 0 178 -84 178 -231c0 -152 -72 -254 -197 -254c-80 0 -123 35 -137 79l-34 -67h-93v552c-22 14 -45 22 -71 22
c-40 0 -71 -18 -71 -74v-38h90v-103h-90v-359h-134v359h-142v-359h-133v359h-68v103h68v32c0 130 88 172 169 172c45 0 62 -4 94 -18l-20 -112c-19 13 -35 18 -54 18c-36 0 -56 -18 -56 -63v-29h142v33c0 134 92 181 187 181c44 0 71 -7 103 -20z" />
    <glyph glyph-name="f_f_h" unicode="ffh" horiz-adv-x="1101" 
d="M763 668v-294c24 68 74 99 145 99c70 0 135 -42 135 -146v-327h-133v277c0 51 -14 84 -63 84c-42 0 -84 -24 -84 -106v-255h-133v552c-22 14 -45 22 -71 22c-40 0 -71 -18 -71 -74v-38h90v-103h-90v-359h-134v359h-142v-359h-133v359h-68v103h68v32c0 130 88 172 169 172
c45 0 62 -4 94 -18l-20 -112c-19 13 -35 18 -54 18c-36 0 -56 -18 -56 -63v-29h142v33c0 134 92 181 187 181c44 0 71 -7 103 -20z" />
    <glyph glyph-name="f_f_j" unicode="ffj" horiz-adv-x="826" 
d="M488 359v-359h-134v359h-142v-359h-133v359h-68v103h68v32c0 130 88 172 169 172c45 0 62 -4 94 -18l-20 -112c-19 13 -35 18 -54 18c-36 0 -56 -18 -56 -63v-29h142v30c0 141 109 184 205 184c57 0 104 -13 142 -34l-46 -108c-23 17 -56 29 -88 29
c-39 0 -79 -16 -79 -75v-26h275v-457c0 -153 -108 -218 -263 -207v113c86 -12 130 8 130 115v333h-142z" />
    <glyph glyph-name="f_f_k" unicode="ffk" horiz-adv-x="1086" 
d="M763 668v-374h26l118 168h155l-161 -215l176 -247h-156l-130 190h-28v-190h-133v552c-22 14 -45 22 -71 22c-40 0 -71 -18 -71 -74v-38h90v-103h-90v-359h-134v359h-142v-359h-133v359h-68v103h68v32c0 130 88 172 169 172c45 0 62 -4 94 -18l-20 -112
c-19 13 -35 18 -54 18c-36 0 -56 -18 -56 -63v-29h142v33c0 134 92 181 187 181c44 0 71 -7 103 -20z" />
    <glyph glyph-name="f_h" unicode="fh" horiz-adv-x="826" 
d="M488 668v-294c24 68 73 99 144 99s136 -42 136 -146v-327h-134v277c0 51 -14 84 -62 84c-43 0 -84 -24 -84 -106v-255h-134v552c-22 14 -44 22 -71 22c-39 0 -71 -18 -71 -74v-38h91v-103h-91v-359h-133v359h-68v103h68v33c0 134 91 181 187 181c44 0 71 -7 103 -20z" />
    <glyph glyph-name="f_j" unicode="fj" horiz-adv-x="551" 
d="M354 26v333h-142v-359h-133v359h-68v103h68v30c0 141 108 184 204 184c58 0 105 -13 143 -34l-46 -108c-23 17 -56 29 -88 29c-40 0 -80 -16 -80 -75v-26h276v-457c0 -153 -108 -218 -263 -207v113c85 -12 129 8 129 115z" />
    <glyph glyph-name="f_k" unicode="fk" horiz-adv-x="810" 
d="M488 668v-374h26l117 168h155l-160 -215l175 -247h-156l-129 190h-28v-190h-134v552c-22 14 -44 22 -71 22c-39 0 -71 -18 -71 -74v-38h91v-103h-91v-359h-133v359h-68v103h68v33c0 134 91 181 187 181c44 0 71 -7 103 -20z" />
    <glyph glyph-name="ff" unicode="ff" horiz-adv-x="595" 
d="M354 359h-142v-359h-133v359h-68v103h68v32c0 130 88 172 169 172c45 0 62 -4 94 -18l-20 -112c-19 13 -35 18 -54 18c-36 0 -56 -18 -56 -63v-29h142v34c0 133 90 179 185 180c39 0 78 -7 114 -18l-21 -124c-23 16 -46 26 -75 26c-39 0 -69 -16 -69 -72v-26h118v-103
h-118v-359h-134v359z" />
    <glyph glyph-name="fi" unicode="fi" horiz-adv-x="551" 
d="M79 359h-68v103h68v30c0 141 108 184 204 184c58 0 105 -13 143 -34l-46 -108c-23 17 -56 29 -88 29c-40 0 -80 -16 -80 -75v-26h276v-462h-134v359h-142v-359h-133v359z" />
    <glyph glyph-name="fl" unicode="fl" horiz-adv-x="589" 
d="M566 115l-6 -112c-27 -7 -52 -12 -77 -12c-67 0 -129 31 -129 118v443c-22 14 -44 22 -71 22c-39 0 -71 -18 -71 -74v-38h91v-103h-91v-359h-133v359h-68v103h68v33c0 134 91 181 187 181c44 0 71 -7 103 -20l119 12v-520c0 -29 18 -40 42 -40c12 0 24 2 36 7z" />
    <glyph glyph-name="ffi" unicode="ffi" horiz-adv-x="826" 
d="M354 462v30c0 141 109 184 205 184c57 0 104 -13 142 -34l-46 -108c-23 17 -56 29 -88 29c-39 0 -79 -16 -79 -75v-26h275v-462h-133v359h-142v-359h-134v359h-142v-359h-133v359h-68v103h68v32c0 130 88 172 169 172c45 0 62 -4 94 -18l-20 -112c-19 13 -35 18 -54 18
c-36 0 -56 -18 -56 -63v-29h142z" />
    <glyph glyph-name="ffl" unicode="ffl" horiz-adv-x="864" 
d="M354 462v33c0 134 92 181 187 181c44 0 71 -7 103 -20l119 12v-520c0 -29 19 -40 43 -40c11 0 24 2 35 7l-6 -112c-26 -7 -52 -12 -77 -12c-67 0 -128 31 -128 118v443c-22 14 -45 22 -71 22c-40 0 -71 -18 -71 -74v-38h90v-103h-90v-359h-134v359h-142v-359h-133v359
h-68v103h68v32c0 130 88 172 169 172c45 0 62 -4 94 -18l-20 -112c-19 13 -35 18 -54 18c-36 0 -56 -18 -56 -63v-29h142z" />
    <glyph glyph-name=".notdef" horiz-adv-x="608" 
 />
    <glyph glyph-name="space" unicode=" " horiz-adv-x="221" 
 />
    <glyph glyph-name="exclam" unicode="!" horiz-adv-x="243" 
d="M40 589h163l-37 -391h-89zM39 72c0 47 36 78 83 78c48 0 84 -31 84 -78s-36 -77 -84 -77c-47 0 -83 30 -83 77z" />
    <glyph glyph-name="quotedbl" unicode="&#x22;" horiz-adv-x="415" 
d="M64 412v256h131l-51 -256h-80zM240 412v256h131l-51 -256h-80z" />
    <glyph glyph-name="numbersign" unicode="#" horiz-adv-x="641" 
d="M589 121h-168l-37 -121h-97l37 121h-91l-37 -121h-97l37 121h-104v92h132l23 74h-135v92h163l32 102h99l-32 -102h89l32 102h98l-32 -102h108v-92h-136l-23 -74h139v-92zM285 287l-23 -74h90l23 74h-90z" />
    <glyph glyph-name="dollar" unicode="$" horiz-adv-x="490" 
d="M224 -106v95c-103 4 -171 40 -185 121l104 44c11 -42 38 -66 81 -73v104l-41 8c-91 20 -128 71 -128 145c0 109 79 147 169 154v82h50v-82c101 -6 165 -50 168 -134l-116 -15c-3 30 -20 50 -52 57v-107l33 -5c96 -17 143 -69 143 -152c0 -98 -75 -141 -176 -147v-95h-50z
M327 122c0 29 -14 43 -53 53v-95c30 3 53 15 53 42zM174 354c0 -28 16 -45 50 -52v99c-33 -5 -50 -22 -50 -47z" />
    <glyph glyph-name="percent" unicode="%" horiz-adv-x="883" 
d="M179 229c-105 0 -152 80 -152 184s54 184 152 184c99 0 153 -80 153 -184s-47 -184 -153 -184zM179 512c-34 0 -55 -39 -55 -101c0 -59 22 -100 55 -100c35 0 56 41 56 100c0 62 -20 101 -56 101zM246 0l305 589h81l-307 -589h-79zM703 -7c-105 0 -152 80 -152 184
s54 184 152 184c99 0 153 -80 153 -184s-47 -184 -153 -184zM703 276c-34 0 -55 -39 -55 -101c0 -59 22 -100 55 -100c35 0 56 41 56 100c0 62 -20 101 -56 101z" />
    <glyph glyph-name="ampersand" unicode="&#x26;" horiz-adv-x="580" 
d="M574 72l-96 -86l-69 66c-53 -44 -112 -64 -201 -64c-97 0 -195 44 -195 158c0 69 42 132 136 155l-32 32c-36 34 -58 75 -58 123c0 97 83 145 189 145c101 0 180 -49 180 -143c0 -73 -58 -114 -128 -129l115 -110c13 22 21 55 23 88l109 -39c-7 -46 -31 -96 -54 -123z
M146 162c0 -46 34 -76 87 -76c43 0 76 11 101 39l-134 129c-32 -22 -54 -46 -54 -92zM247 511c-32 0 -52 -20 -52 -48c0 -23 10 -37 26 -54l36 -38c31 23 48 53 48 85c0 34 -21 55 -58 55z" />
    <glyph glyph-name="quotesingle" unicode="'" horiz-adv-x="239" 
d="M64 412v256h131l-51 -256h-80z" />
    <glyph glyph-name="parenleft" unicode="(" horiz-adv-x="362" 
d="M184 233c0 -190 75 -308 169 -435h-141c-75 98 -158 223 -158 435s83 337 158 435h141c-94 -126 -169 -244 -169 -435z" />
    <glyph glyph-name="parenright" unicode=")" horiz-adv-x="362" 
d="M178 233c-1 191 -75 309 -169 435h142c74 -98 157 -223 157 -435s-83 -337 -157 -435h-142c94 127 168 245 169 435z" />
    <glyph glyph-name="asterisk" unicode="*" horiz-adv-x="406" 
d="M254 599l-19 -107l98 49l28 -91l-106 -18l77 -77l-81 -59l-47 98l-49 -98l-79 59l76 77l-107 18l31 90l96 -48l-18 107h100z" />
    <glyph glyph-name="plus" unicode="+" horiz-adv-x="498" 
d="M45 285h165v160h74v-160h169v-74h-169v-174h-74v174h-165v74z" />
    <glyph glyph-name="comma" unicode="," horiz-adv-x="290" 
d="M234 51c0 -124 -78 -171 -186 -172v55c57 5 95 27 95 75c-46 -7 -90 19 -90 73c0 52 38 78 85 78c56 0 96 -44 96 -109z" />
    <glyph glyph-name="hyphen" unicode="-" horiz-adv-x="372" 
d="M62 202v113h248v-113h-248z" />
    <glyph glyph-name="period" unicode="." horiz-adv-x="292" 
d="M60 79c0 50 37 88 84 88c51 0 88 -38 88 -88c0 -47 -37 -84 -88 -84c-47 0 -84 37 -84 84z" />
    <glyph glyph-name="slash" unicode="/" horiz-adv-x="430" 
d="M10 -203l273 871h117l-275 -871h-115z" />
    <glyph glyph-name="zero" unicode="0" horiz-adv-x="584" 
d="M292 -12c-159 0 -250 111 -250 253c0 140 91 252 250 252s250 -112 250 -252c0 -142 -91 -253 -250 -253zM292 375c-78 0 -121 -58 -121 -136c0 -79 43 -137 121 -137c79 0 122 58 122 137c0 78 -43 136 -122 136z" />
    <glyph glyph-name="one" unicode="1" horiz-adv-x="365" 
d="M279 0h-125v360l-134 -16v109l259 36v-489z" />
    <glyph glyph-name="two" unicode="2" horiz-adv-x="479" 
d="M439 111v-111h-399v93c196 99 250 155 250 220c0 40 -23 64 -63 64c-37 0 -64 -25 -69 -83l-123 30c15 113 97 169 207 169c99 0 179 -59 179 -168c0 -115 -81 -177 -206 -210v-4h224z" />
    <glyph glyph-name="three" unicode="3" horiz-adv-x="477" 
d="M273 189v-5c106 -9 156 -72 156 -157c0 -106 -86 -165 -220 -165c-111 0 -189 49 -205 140l127 47c5 -56 35 -87 87 -87c46 0 80 23 80 71c0 61 -39 102 -158 103v93c131 6 143 54 143 96c0 38 -27 60 -61 60c-36 0 -66 -24 -70 -74l-126 34c16 93 93 148 204 148
c107 0 188 -50 188 -155c0 -82 -44 -137 -145 -149z" />
    <glyph glyph-name="four" unicode="4" horiz-adv-x="566" 
d="M305 -131v157h-286v89l295 366h125v-356h98v-99h-98v-157h-134zM210 125h95v111c0 47 5 95 5 95h-4s-15 -30 -39 -61l-67 -88c-28 -37 -56 -57 -56 -57v-4s23 4 66 4z" />
    <glyph glyph-name="five" unicode="5" horiz-adv-x="490" 
d="M77 132l13 349h328v-119h-221l-5 -131c20 14 46 22 80 22c102 0 171 -69 171 -184c0 -141 -103 -207 -224 -207c-120 0 -196 49 -212 139l120 49c5 -60 42 -91 97 -91c54 0 94 31 94 107c0 66 -38 92 -85 92c-26 0 -46 -12 -59 -26h-97z" />
    <glyph glyph-name="six" unicode="6" horiz-adv-x="527" 
d="M477 499l-91 -69c-18 44 -52 63 -95 63c-83 0 -129 -85 -129 -228h4c16 72 72 110 136 110c116 0 184 -84 184 -185c0 -121 -80 -202 -217 -202c-138 0 -226 101 -226 284c0 227 114 329 250 329c84 0 153 -39 184 -102zM189 182c0 -54 40 -91 87 -91c50 0 89 37 89 91
c0 57 -39 92 -89 92c-47 0 -87 -35 -87 -92z" />
    <glyph glyph-name="seven" unicode="7" horiz-adv-x="492" 
d="M309 362h-170v-72h-110v191h419v-95l-208 -517h-133z" />
    <glyph glyph-name="eight" unicode="8" horiz-adv-x="524" 
d="M262 -12c-148 0 -220 69 -220 162c0 77 52 131 123 149v4c-77 17 -110 74 -110 137c0 92 77 161 207 161c131 0 207 -69 207 -161c0 -63 -33 -120 -109 -137v-4c70 -18 122 -72 122 -149c0 -93 -72 -162 -220 -162zM262 508c-50 0 -78 -34 -78 -78c0 -55 38 -81 78 -81
s78 26 78 81c0 44 -28 78 -78 78zM262 249c-45 0 -89 -27 -89 -81c0 -47 34 -82 89 -82s89 35 89 82c0 54 -44 81 -89 81z" />
    <glyph glyph-name="nine" unicode="9" horiz-adv-x="523" 
d="M22 -33l91 67c18 -44 53 -66 101 -66c107 0 147 111 147 250h-4c-16 -75 -66 -112 -136 -112c-114 0 -183 79 -183 186c0 121 79 201 212 201c148 0 230 -93 230 -286c0 -226 -102 -345 -273 -345c-84 0 -155 39 -185 105zM334 298c0 54 -40 90 -87 90
c-49 0 -88 -36 -88 -90c0 -57 39 -92 88 -92c47 0 87 35 87 92z" />
    <glyph glyph-name="colon" unicode=":" horiz-adv-x="292" 
d="M60 79c0 50 37 88 84 88c51 0 88 -38 88 -88c0 -47 -37 -84 -88 -84c-47 0 -84 37 -84 84zM60 379c0 50 37 88 84 88c51 0 88 -38 88 -88c0 -47 -37 -84 -88 -84c-47 0 -84 37 -84 84z" />
    <glyph glyph-name="semicolon" unicode=";" horiz-adv-x="290" 
d="M234 51c0 -124 -78 -171 -186 -172v55c57 5 95 27 95 75c-46 -7 -90 19 -90 73c0 52 38 78 85 78c56 0 96 -44 96 -109zM53 379c0 50 37 88 84 88c51 0 88 -38 88 -88c0 -47 -37 -84 -88 -84c-47 0 -84 37 -84 84z" />
    <glyph glyph-name="less" unicode="&#x3c;" horiz-adv-x="398" 
d="M352 398l-189 -151l185 -152l-54 -64l-249 216l254 212z" />
    <glyph glyph-name="equal" unicode="=" horiz-adv-x="498" 
d="M453 134h-408v75h408v-75zM453 283h-408v75h408v-75z" />
    <glyph glyph-name="greater" unicode="&#x3e;" horiz-adv-x="398" 
d="M234 247l-189 151l53 61l254 -212l-249 -216l-54 64z" />
    <glyph glyph-name="question" unicode="?" horiz-adv-x="439" 
d="M125 393l-125 45c23 105 90 163 221 163c124 0 210 -75 210 -184c0 -130 -97 -167 -180 -168v-61h-116v134h48c71 0 106 21 106 85c0 50 -31 77 -77 77c-57 0 -82 -32 -87 -91zM110 72c0 47 37 78 83 78c48 0 84 -31 84 -78s-36 -77 -84 -77c-46 0 -83 30 -83 77z" />
    <glyph glyph-name="at" unicode="@" horiz-adv-x="892" 
d="M514 169v70c0 55 -41 78 -75 78c-37 0 -78 -30 -78 -118c0 -70 31 -109 78 -109c33 0 75 21 75 79zM637 401v-294c0 -35 10 -49 36 -49c58 0 95 74 95 197c0 188 -137 278 -308 278c-176 0 -336 -118 -336 -341c0 -213 140 -329 355 -329c73 0 122 8 197 33l16 -67
c-74 -24 -153 -31 -214 -31c-282 0 -433 155 -433 394c0 241 175 405 416 405c251 0 384 -150 384 -334c0 -156 -49 -275 -203 -275c-70 0 -116 28 -122 90c-18 -69 -66 -90 -131 -90c-87 0 -160 67 -160 202c0 136 64 220 179 220c61 0 99 -24 116 -62l29 53h84z" />
    <glyph glyph-name="A" unicode="A" horiz-adv-x="616" 
d="M460 0l-43 123h-223l-42 -123h-142l213 589h168l215 -589h-146zM255 303l-23 -67h145l-24 66c-34 97 -46 168 -46 168h-4s-15 -72 -48 -167z" />
    <glyph glyph-name="B" unicode="B" horiz-adv-x="571" 
d="M396 304v-4c85 -11 130 -65 130 -139c0 -97 -64 -161 -208 -161h-241v589h242c119 0 183 -55 183 -148c0 -75 -42 -121 -106 -137zM213 343h78c46 0 76 18 76 65c0 49 -29 66 -79 66h-75v-131zM213 244v-129h96c51 0 80 16 80 66c0 41 -27 63 -80 63h-96z" />
    <glyph glyph-name="C" unicode="C" horiz-adv-x="586" 
d="M449 192l115 -69c-53 -91 -122 -135 -253 -135c-160 0 -270 111 -270 307s108 306 288 306c121 0 197 -55 240 -149l-131 -64c-18 58 -50 93 -114 93c-89 0 -143 -71 -143 -189c0 -116 48 -184 145 -184c54 0 97 27 123 84z" />
    <glyph glyph-name="D" unicode="D" horiz-adv-x="622" 
d="M213 115h59c105 0 167 44 167 178c0 140 -62 181 -159 181h-67v-359zM285 0h-208v589h217c163 0 287 -81 287 -288c0 -218 -127 -301 -296 -301z" />
    <glyph glyph-name="E" unicode="E" horiz-adv-x="522" 
d="M472 118v-118h-395v589h395v-118h-259v-117h228v-113h-228v-123h259z" />
    <glyph glyph-name="F" unicode="F" horiz-adv-x="495" 
d="M213 0h-136v589h384v-118h-248v-141h217v-113h-217v-217z" />
    <glyph glyph-name="G" unicode="G" horiz-adv-x="629" 
d="M318 314h254v-314h-84l-22 66c-30 -53 -90 -78 -162 -78c-153 0 -263 97 -263 304c0 197 108 309 288 309c118 0 201 -55 240 -149l-131 -64c-19 62 -59 93 -114 93c-63 0 -143 -43 -143 -191c0 -106 39 -191 145 -191c79 0 116 37 116 87v20h-124v108z" />
    <glyph glyph-name="H" unicode="H" horiz-adv-x="652" 
d="M213 0h-136v589h136v-231h226v231h136v-589h-136v240h-226v-240z" />
    <glyph glyph-name="I" unicode="I" horiz-adv-x="290" 
d="M77 589h136v-589h-136v589z" />
    <glyph glyph-name="J" unicode="J" horiz-adv-x="469" 
d="M273 589h135v-418c0 -134 -93 -183 -206 -183c-95 0 -163 37 -202 113l100 90c24 -59 52 -91 100 -91c55 0 73 32 73 95v394z" />
    <glyph glyph-name="K" unicode="K" horiz-adv-x="581" 
d="M569 0h-162l-159 240h-35v-240h-136v589h136v-231h36l146 231h156l-186 -285z" />
    <glyph glyph-name="L" unicode="L" horiz-adv-x="471" 
d="M77 589h136v-471h230v-118h-366v589z" />
    <glyph glyph-name="M" unicode="M" horiz-adv-x="739" 
d="M402 136h-65l-81 135c-31 49 -45 90 -45 90h-4s6 -33 6 -100v-261h-136v589h138l111 -199c34 -58 42 -86 42 -86h4s9 28 42 86l112 199h136v-589h-135v261c0 67 5 100 5 100h-4s-14 -41 -44 -90z" />
    <glyph glyph-name="N" unicode="N" horiz-adv-x="676" 
d="M205 589l208 -285c33 -45 49 -79 49 -79h4s-3 50 -3 125v239h136v-589h-124l-208 280c-38 50 -56 87 -56 87h-4s6 -48 6 -133v-234h-136v589h128z" />
    <glyph glyph-name="O" unicode="O" horiz-adv-x="641" 
d="M320 -12c-174 0 -279 109 -279 306c0 198 105 307 279 307s280 -109 280 -307c0 -197 -106 -306 -280 -306zM320 480c-92 0 -138 -71 -138 -188c0 -116 45 -187 138 -187s139 71 139 187c0 117 -46 188 -139 188z" />
    <glyph glyph-name="P" unicode="P" horiz-adv-x="531" 
d="M213 475v-174h70c59 0 83 29 83 84c0 61 -26 90 -83 90h-70zM213 0h-136v589h210c151 0 214 -69 214 -199c0 -125 -74 -200 -201 -200h-87v-190z" />
    <glyph glyph-name="Q" unicode="Q" horiz-adv-x="641" 
d="M531 -49l-37 -116c-147 -1 -217 66 -249 161c-129 27 -204 131 -204 298c0 198 105 307 279 307s280 -109 280 -307c0 -175 -83 -281 -224 -302c38 -34 99 -46 155 -41zM320 480c-92 0 -138 -71 -138 -188c0 -116 45 -187 138 -187s139 71 139 187
c0 117 -46 188 -139 188z" />
    <glyph glyph-name="R" unicode="R" horiz-adv-x="582" 
d="M555 0h-151c-18 14 -25 36 -31 61l-22 88c-12 50 -35 59 -80 59h-58v-208h-136v589h232c132 0 214 -48 214 -180c0 -91 -53 -140 -129 -148v-2c54 -9 83 -32 98 -86l30 -110c6 -23 14 -43 33 -63zM213 474v-154h87c54 0 84 21 84 77c0 50 -28 77 -84 77h-87z" />
    <glyph glyph-name="S" unicode="S" horiz-adv-x="515" 
d="M22 132l124 55c11 -58 54 -95 110 -95c45 0 78 18 78 58c0 38 -21 56 -98 80c-135 43 -191 94 -191 195c0 133 104 177 207 177c121 0 211 -41 223 -153l-135 -34c-5 52 -44 75 -85 75c-38 0 -68 -17 -68 -55c0 -41 32 -57 101 -78c124 -39 187 -81 187 -194
c0 -128 -104 -175 -229 -175c-116 0 -194 38 -224 144z" />
    <glyph glyph-name="T" unicode="T" horiz-adv-x="479" 
d="M305 0h-134v471h-161v118h459v-118h-164v-471z" />
    <glyph glyph-name="U" unicode="U" horiz-adv-x="608" 
d="M412 589h135v-392c0 -159 -112 -209 -243 -209c-130 0 -243 50 -243 209v392h136v-354c0 -84 22 -134 107 -134c86 0 108 50 108 135v353z" />
    <glyph glyph-name="V" unicode="V" horiz-adv-x="572" 
d="M155 589l99 -317c26 -83 34 -157 34 -157h4s7 75 32 156l96 318h142l-194 -589h-164l-194 589h145z" />
    <glyph glyph-name="W" unicode="W" horiz-adv-x="873" 
d="M521 589l73 -324c18 -84 28 -167 28 -167h4s8 84 25 166l66 325h138l-129 -589h-198l-67 291c-19 83 -23 165 -23 165h-4s-5 -82 -25 -166l-70 -290h-191l-130 589h144l68 -324c18 -84 27 -167 27 -167h4s9 84 26 166l72 325h162z" />
    <glyph glyph-name="X" unicode="X" horiz-adv-x="589" 
d="M423 0l-85 128c-39 61 -42 83 -42 83h-4s-5 -22 -43 -83l-81 -128h-158l202 296l-194 293h162l70 -111c44 -72 46 -92 46 -92h5s1 19 43 91l65 112h153l-183 -286l200 -303h-156z" />
    <glyph glyph-name="Y" unicode="Y" horiz-adv-x="545" 
d="M164 589l69 -140c37 -79 44 -128 44 -128h4s6 51 43 127l68 141h143l-188 -393v-196h-136v196l-201 393h154z" />
    <glyph glyph-name="Z" unicode="Z" horiz-adv-x="513" 
d="M476 494l-222 -304c-36 -49 -63 -73 -63 -73v-4s29 5 80 5h214v-118h-457v98l215 301c36 49 63 73 63 73v4s-28 -5 -80 -5h-191v118h441v-95z" />
    <glyph glyph-name="bracketleft" unicode="[" horiz-adv-x="372" 
d="M212 568v-672h125v-99h-260v871h260v-100h-125z" />
    <glyph glyph-name="backslash" unicode="\" horiz-adv-x="430" 
d="M147 668l273 -871h-115l-275 871h117z" />
    <glyph glyph-name="bracketright" unicode="]" horiz-adv-x="372" 
d="M160 -104v672h-125v100h260v-871h-260v99h125z" />
    <glyph glyph-name="asciicircum" unicode="^" horiz-adv-x="531" 
d="M368 321l-55 117c-43 93 -47 137 -47 137h-4s-3 -47 -47 -136l-59 -118h-126l177 347h118l176 -347h-133z" />
    <glyph glyph-name="underscore" unicode="_" horiz-adv-x="481" 
d="M50 -122v100h381v-100h-381z" />
    <glyph glyph-name="grave" unicode="`" horiz-adv-x="399" 
d="M318 526h-121l-117 153h168z" />
    <glyph glyph-name="a" unicode="a" horiz-adv-x="501" 
d="M289 145v47c-94 3 -127 -22 -127 -63c0 -27 19 -46 51 -46c35 0 76 17 76 62zM421 320v-180c0 -31 13 -42 34 -42c11 0 20 3 29 7v-97c-19 -12 -44 -17 -76 -17c-59 0 -95 23 -110 73c-21 -57 -71 -76 -134 -76c-82 0 -136 48 -136 127c0 103 83 159 261 149v44
c0 40 -17 64 -54 64s-56 -25 -58 -68l-133 25c7 98 90 144 196 144c115 0 181 -50 181 -153z" />
    <glyph glyph-name="b" unicode="b" 
d="M196 257v-68c0 -79 49 -105 88 -105c57 0 105 48 105 146c0 96 -37 136 -96 136c-49 0 -97 -39 -97 -109zM190 67l-33 -67h-94v668h134v-292c25 70 83 97 149 97c113 0 178 -84 178 -231c0 -152 -72 -254 -197 -254c-79 0 -123 35 -137 79z" />
    <glyph glyph-name="c" unicode="c" horiz-adv-x="470" 
d="M333 162l118 -38c-17 -93 -97 -136 -195 -136c-134 0 -223 87 -223 241s89 244 224 244c110 0 180 -59 187 -152l-113 -31c-7 49 -30 78 -75 78c-60 0 -93 -53 -93 -137c0 -88 35 -140 95 -140c36 0 63 18 75 71z" />
    <glyph glyph-name="d" unicode="d" 
d="M361 192v86c0 68 -44 96 -90 96c-53 0 -104 -38 -104 -147c0 -87 39 -136 102 -136c46 0 92 34 92 101zM360 401v267h134v-668h-116l-17 80c-17 -70 -75 -92 -144 -92c-102 0 -184 81 -184 233c0 158 74 252 206 252c59 0 109 -28 121 -72z" />
    <glyph glyph-name="e" unicode="e" horiz-adv-x="488" 
d="M259 91c36 0 66 14 81 63l114 -39c-24 -94 -107 -127 -198 -127c-132 0 -223 87 -223 236c0 159 86 249 225 249c131 0 195 -86 195 -205c0 -20 -2 -41 -6 -60h-285c3 -71 36 -117 97 -117zM166 282h159c1 6 1 10 1 16c0 43 -25 76 -73 76c-50 0 -82 -38 -87 -92z" />
    <glyph glyph-name="f" unicode="f" horiz-adv-x="319" 
d="M79 359h-68v103h68v34c0 133 84 180 185 180c45 0 80 -7 112 -22l-19 -111c-23 13 -47 20 -79 20c-39 0 -66 -15 -66 -71v-30h118v-103h-118v-359h-133v359z" />
    <glyph glyph-name="g" unicode="g" horiz-adv-x="502" 
d="M240 473c52 0 97 -10 131 -29c20 20 25 33 35 70l105 -35c-5 -45 -46 -76 -84 -87c14 -22 21 -50 21 -82c0 -107 -94 -159 -212 -159c-22 0 -45 2 -56 6c-16 -10 -22 -23 -22 -38c0 -16 13 -28 37 -28h132c104 0 163 -56 163 -136c0 -132 -136 -166 -268 -166
c-114 0 -216 27 -216 116c0 54 39 87 122 93c-46 3 -75 41 -75 82c0 36 24 76 78 91c-63 25 -96 65 -96 139c0 107 82 163 205 163zM129 -69c0 -36 37 -53 108 -53c93 0 128 17 128 54c0 28 -17 39 -57 39h-114c-38 0 -65 -13 -65 -40zM170 310c0 -41 23 -71 70 -71
c46 0 71 25 71 71c0 49 -25 72 -71 72c-47 -1 -70 -26 -70 -72z" />
    <glyph glyph-name="h" unicode="h" horiz-adv-x="535" 
d="M197 668v-294c24 68 73 99 144 99s136 -42 136 -146v-327h-134v277c0 51 -14 84 -62 84c-43 0 -84 -24 -84 -106v-255h-134v668h134z" />
    <glyph glyph-name="i" unicode="i" horiz-adv-x="260" 
d="M49 603c0 51 36 78 81 78c47 0 83 -27 83 -78c0 -49 -36 -76 -83 -76c-45 0 -81 27 -81 76zM63 462h134v-462h-134v462z" />
    <glyph glyph-name="j" unicode="j" horiz-adv-x="260" 
d="M63 462h134v-457c0 -153 -108 -218 -263 -207v113c85 -12 129 8 129 115v436zM47 603c0 51 36 78 81 78c48 0 84 -27 84 -78c0 -49 -36 -76 -84 -76c-45 0 -81 27 -81 76z" />
    <glyph glyph-name="k" unicode="k" horiz-adv-x="519" 
d="M335 247l175 -247h-156l-130 190h-27v-190h-134v668h134v-374h25l118 168h155z" />
    <glyph glyph-name="l" unicode="l" horiz-adv-x="289" 
d="M266 115l-7 -112c-26 -7 -51 -12 -77 -12c-67 0 -128 31 -128 118v559h134v-520c0 -29 18 -40 42 -40c12 0 24 2 36 7z" />
    <glyph glyph-name="m" unicode="m" horiz-adv-x="797" 
d="M457 372c25 69 81 101 150 101c75 0 132 -42 132 -145v-328h-134v277c0 51 -14 84 -61 84c-41 0 -76 -26 -76 -106v-255h-134v277c0 51 -13 84 -61 84c-42 0 -76 -26 -76 -107v-254h-134v462h114l16 -89c25 70 74 100 142 100c59 0 110 -24 122 -101z" />
    <glyph glyph-name="n" unicode="n" horiz-adv-x="535" 
d="M177 462l16 -89c25 69 77 100 148 100s136 -42 136 -146v-327h-134v277c0 51 -14 84 -62 84c-43 0 -84 -24 -84 -107v-254h-134v462h114z" />
    <glyph glyph-name="o" unicode="o" horiz-adv-x="513" 
d="M257 -12c-135 0 -224 88 -224 244c0 157 89 241 224 241c134 0 223 -84 223 -241c0 -156 -89 -244 -223 -244zM257 366c-62 0 -92 -43 -92 -134c0 -96 29 -140 92 -140c62 0 91 44 91 140c0 91 -30 134 -91 134z" />
    <glyph glyph-name="p" unicode="p" 
d="M196 253v-64c0 -79 49 -105 88 -105c57 0 105 48 105 146c0 96 -37 136 -96 136c-49 0 -97 -39 -97 -113zM197 61v-264h-134v665h114l17 -89c28 74 88 100 152 100c113 0 178 -84 178 -231c0 -152 -73 -254 -198 -254c-71 0 -116 34 -129 73z" />
    <glyph glyph-name="q" unicode="q" 
d="M361 191v87c0 68 -44 96 -90 96c-53 0 -104 -38 -104 -147c0 -87 39 -136 102 -136c46 0 92 34 92 100zM370 402l32 60h92v-665h-132v283c-18 -70 -76 -92 -145 -92c-102 0 -184 81 -184 233c0 157 74 252 206 252c68 0 111 -26 131 -71z" />
    <glyph glyph-name="r" unicode="r" horiz-adv-x="394" 
d="M382 472l-15 -148c-17 6 -31 8 -52 8c-53 0 -118 -26 -118 -121v-211h-134v462h116l16 -127c20 80 65 144 187 137z" />
    <glyph glyph-name="s" unicode="s" horiz-adv-x="445" 
d="M18 107l110 44c10 -50 46 -69 90 -69c37 0 63 13 63 40c0 26 -18 38 -59 48l-68 16c-81 21 -118 67 -118 137c0 117 93 150 188 150c110 0 176 -40 183 -130l-125 -18c-5 37 -26 49 -64 49c-31 0 -52 -14 -52 -38c0 -23 14 -36 45 -42l65 -14c94 -20 138 -70 138 -149
c0 -103 -85 -143 -198 -143c-114 0 -180 32 -198 119z" />
    <glyph glyph-name="t" unicode="t" horiz-adv-x="386" 
d="M348 131l23 -113c-39 -20 -87 -30 -142 -30c-92 0 -152 43 -152 149v222h-67v103h68v98l134 16v-114h137v-103h-138v-192c0 -49 19 -65 56 -65c29 0 54 10 81 29z" />
    <glyph glyph-name="u" unicode="u" horiz-adv-x="531" 
d="M352 0l-16 86c-16 -63 -58 -98 -143 -98c-82 0 -139 42 -139 149v325h134v-287c0 -55 17 -86 63 -86s83 36 83 125v248h134v-462h-116z" />
    <glyph glyph-name="v" unicode="v" horiz-adv-x="481" 
d="M164 0l-162 462h142l63 -210c23 -76 31 -150 31 -150h4s10 75 33 149l67 211h137l-168 -462h-147z" />
    <glyph glyph-name="w" unicode="w" horiz-adv-x="721" 
d="M423 462l51 -183c26 -93 31 -180 31 -180h4s4 85 26 178l43 185h133l-120 -462h-159l-45 165c-19 74 -24 149 -24 149h-4s-5 -74 -24 -150l-40 -164h-158l-127 462h136l48 -184c24 -93 29 -179 29 -179h4s5 87 27 180l47 183h122z" />
    <glyph glyph-name="x" unicode="x" horiz-adv-x="491" 
d="M337 0l-52 85c-37 60 -39 85 -39 85h-4s-6 -26 -42 -86l-50 -84h-144l149 231l-140 231h155l35 -65c36 -72 42 -96 42 -96h4s5 24 44 95l37 66h146l-143 -227l150 -235h-148z" />
    <glyph glyph-name="y" unicode="y" horiz-adv-x="484" 
d="M148 462l60 -210c26 -91 32 -149 32 -149h4s6 59 33 148l64 211h141l-183 -503c-52 -143 -116 -167 -211 -167c-27 0 -58 5 -83 11l20 118c17 -10 38 -16 61 -16c42 0 68 18 87 69l-171 488h146z" />
    <glyph glyph-name="z" unicode="z" horiz-adv-x="427" 
d="M390 378l-149 -202c-36 -49 -63 -73 -63 -73v-4s29 5 80 5h141v-104h-371v81l143 203c36 49 63 73 63 73v4s-28 -5 -80 -5h-118v106h354v-84z" />
    <glyph glyph-name="braceleft" unicode="{" horiz-adv-x="421" 
d="M157 235v-4c54 -5 101 -27 101 -110v-156c0 -44 10 -67 48 -67c27 0 41 5 64 17l22 -92c-31 -20 -70 -29 -120 -29c-109 0 -141 65 -141 147v164c0 63 -30 77 -69 77h-41v101h41c39 0 69 15 69 77v165c0 82 32 147 141 147c50 0 89 -9 120 -29l-22 -93
c-23 13 -37 18 -64 18c-38 0 -48 -24 -48 -67v-156c0 -87 -47 -106 -101 -110z" />
    <glyph glyph-name="bar" unicode="|" horiz-adv-x="307" 
d="M207 -203h-107v871h107v-871z" />
    <glyph glyph-name="braceright" unicode="}" horiz-adv-x="421" 
d="M264 231v4c-54 4 -101 23 -101 110v156c0 43 -10 67 -49 67c-27 0 -40 -5 -63 -18l-22 93c31 20 69 29 120 29c109 0 141 -65 141 -147v-165c0 -62 30 -77 69 -77h41v-101h-41c-39 0 -69 -14 -69 -77v-164c0 -82 -32 -147 -141 -147c-51 0 -89 9 -120 29l22 92
c23 -12 36 -17 63 -17c39 0 49 23 49 67v156c0 83 47 105 101 110z" />
    <glyph glyph-name="asciitilde" unicode="~" horiz-adv-x="509" 
d="M331 194c-34 0 -49 8 -74 23c-29 16 -42 25 -58 25c-20 0 -36 -15 -31 -49h-74c-37 76 8 157 87 157c29 0 47 -9 68 -21c30 -18 44 -28 62 -28c19 0 31 11 26 46h78c35 -81 -4 -153 -84 -153z" />
    <glyph glyph-name="Euro" unicode="&#x20ac;" horiz-adv-x="559" 
d="M341 164h-107c15 -44 47 -68 91 -68c51 0 78 23 98 70l106 -67c-42 -78 -104 -111 -209 -111c-115 0 -199 58 -223 176h-75v52h68v23v24h-68v53h75c25 115 108 177 234 177c101 0 163 -41 197 -128l-113 -60c-14 46 -35 81 -93 81c-42 0 -74 -23 -89 -70h135l-10 -53
h-135v-22c0 -9 0 -17 1 -25h127z" />
    <glyph glyph-name="quotesinglbase" unicode="&#x201a;" horiz-adv-x="250" 
d="M218 43c0 -124 -78 -171 -186 -172v55c57 5 95 27 95 75c-46 -7 -90 19 -90 73c0 52 38 78 85 78c56 0 96 -44 96 -109z" />
    <glyph glyph-name="florin" unicode="&#x192;" horiz-adv-x="496" 
d="M31 -121l56 251h-67l18 101h68l18 90c25 126 120 172 214 172c47 0 109 -15 148 -63l-79 -101c-17 29 -45 48 -75 48c-38 0 -61 -23 -72 -67l-18 -79h118l-17 -101h-120l-57 -251h-135z" />
    <glyph glyph-name="quotedblbase" unicode="&#x201e;" horiz-adv-x="482" 
d="M218 43c0 -123 -77 -171 -186 -172v55c57 5 95 27 95 75c-46 -7 -90 20 -90 73s38 78 85 78c56 0 96 -43 96 -109zM450 43c0 -123 -77 -171 -186 -172v55c57 5 95 27 95 75c-46 -7 -90 20 -90 73s38 78 85 78c56 0 96 -43 96 -109z" />
    <glyph glyph-name="ellipsis" unicode="&#x2026;" horiz-adv-x="876" 
d="M60 79c0 50 37 88 84 88c51 0 88 -38 88 -88c0 -47 -37 -84 -88 -84c-47 0 -84 37 -84 84zM352 79c0 50 37 88 84 88c51 0 88 -38 88 -88c0 -47 -37 -84 -88 -84c-47 0 -84 37 -84 84zM644 79c0 50 37 88 84 88c51 0 88 -38 88 -88c0 -47 -37 -84 -88 -84
c-47 0 -84 37 -84 84z" />
    <glyph glyph-name="dagger" unicode="&#x2020;" horiz-adv-x="554" 
d="M221 254l-179 -11v122l178 -10l-10 234h133l-10 -234l179 10v-122l-178 11l10 -404h-133z" />
    <glyph glyph-name="daggerdbl" unicode="&#x2021;" horiz-adv-x="554" 
d="M333 296v-138l179 10v-121l-179 11l11 -208h-132l11 208l-181 -11v121l179 -10v138l-179 -11v123l179 -11l-10 192h133l-11 -192l179 11v-123z" />
    <glyph glyph-name="circumflex" unicode="&#x2c6;" horiz-adv-x="514" 
d="M215 683h84l135 -159h-123l-32 34c-19 21 -20 33 -20 33h-4s-1 -12 -20 -33l-32 -34h-123z" />
    <glyph glyph-name="perthousand" unicode="&#x2030;" horiz-adv-x="1233" 
d="M179 229c-105 0 -152 80 -152 184s54 184 152 184c99 0 153 -80 153 -184s-47 -184 -153 -184zM179 512c-34 0 -55 -39 -55 -101c0 -59 22 -100 55 -100c35 0 56 41 56 100c0 62 -20 101 -56 101zM246 0l305 589h81l-307 -589h-79zM703 -7c-105 0 -152 80 -152 184
s54 184 152 184c99 0 153 -80 153 -184s-47 -184 -153 -184zM703 276c-34 0 -55 -39 -55 -101c0 -59 22 -100 55 -100c35 0 56 41 56 100c0 62 -20 101 -56 101zM1053 -7c-105 0 -152 80 -152 184s54 184 152 184c99 0 153 -80 153 -184s-47 -184 -153 -184zM1053 276
c-34 0 -55 -39 -55 -101c0 -59 22 -100 55 -100c35 0 56 41 56 100c0 62 -20 101 -56 101z" />
    <glyph glyph-name="Scaron" unicode="&#x160;" horiz-adv-x="515" 
d="M22 132l124 55c11 -58 54 -95 110 -95c45 0 78 18 78 58c0 38 -21 56 -98 80c-135 43 -191 94 -191 195c0 133 104 177 207 177c121 0 211 -41 223 -153l-135 -34c-5 52 -44 75 -85 75c-38 0 -68 -17 -68 -55c0 -41 32 -57 101 -78c124 -39 187 -81 187 -194
c0 -128 -104 -175 -229 -175c-116 0 -194 38 -224 144zM304 646h-85l-135 145h125l30 -31c17 -18 20 -30 20 -30h4s3 12 20 30l31 31h124z" />
    <glyph glyph-name="guilsinglleft" unicode="&#x2039;" horiz-adv-x="326" 
d="M151 237v-4s21 -7 52 -40l92 -104l-66 -65l-199 212l199 212l66 -67l-93 -103c-31 -33 -51 -41 -51 -41z" />
    <glyph glyph-name="OE" unicode="&#x152;" horiz-adv-x="871" 
d="M320 -12c-174 0 -279 109 -279 306c0 198 105 307 279 307c34 0 64 -4 92 -12h409v-118h-262c19 -32 31 -71 36 -117h195v-113h-193c-5 -49 -19 -90 -38 -123h262v-118h-409c-28 -8 -58 -12 -92 -12zM320 480c-92 0 -137 -71 -137 -188c0 -116 44 -187 137 -187
s138 71 138 187c0 117 -45 188 -138 188z" />
    <glyph glyph-name="Zcaron" unicode="&#x17d;" horiz-adv-x="513" 
d="M476 494l-222 -304c-36 -49 -63 -73 -63 -73v-4s29 5 80 5h214v-118h-457v98l215 301c36 49 63 73 63 73v4s-28 -5 -80 -5h-191v118h441v-95zM300 646h-85l-135 145h125l30 -31c17 -18 20 -30 20 -30h4s3 12 20 30l31 31h124z" />
    <glyph glyph-name="quoteleft" unicode="&#x2018;" horiz-adv-x="250" 
d="M32 509c0 123 77 171 186 172v-55c-57 -5 -95 -27 -95 -75c46 7 90 -20 90 -73s-38 -78 -85 -78c-56 0 -96 43 -96 109z" />
    <glyph glyph-name="quoteright" unicode="&#x2019;" horiz-adv-x="250" 
d="M218 572c0 -124 -78 -171 -186 -172v55c57 5 95 27 95 75c-46 -7 -90 19 -90 73c0 52 38 78 85 78c56 0 96 -44 96 -109z" />
    <glyph glyph-name="quotedblleft" unicode="&#x201c;" horiz-adv-x="482" 
d="M32 509c0 123 77 171 186 172v-55c-57 -5 -95 -27 -95 -75c46 7 90 -20 90 -73s-38 -78 -85 -78c-56 0 -96 43 -96 109zM264 509c0 123 77 171 186 172v-55c-57 -5 -95 -27 -95 -75c46 7 90 -20 90 -73s-38 -78 -85 -78c-56 0 -96 43 -96 109z" />
    <glyph glyph-name="quotedblright" unicode="&#x201d;" horiz-adv-x="482" 
d="M218 572c0 -123 -77 -171 -186 -172v55c57 5 95 27 95 75c-46 -7 -90 20 -90 73s38 78 85 78c56 0 96 -43 96 -109zM450 572c0 -123 -77 -171 -186 -172v55c57 5 95 27 95 75c-46 -7 -90 20 -90 73s38 78 85 78c56 0 96 -43 96 -109z" />
    <glyph glyph-name="bullet" unicode="&#x2022;" horiz-adv-x="359" 
d="M61 257c0 65 54 119 118 119c65 0 119 -54 119 -119s-54 -119 -119 -119c-64 0 -118 54 -118 119z" />
    <glyph glyph-name="endash" unicode="&#x2013;" horiz-adv-x="500" 
d="M62 210v89h376v-89h-376z" />
    <glyph glyph-name="emdash" unicode="&#x2014;" horiz-adv-x="1000" 
d="M62 210v89h876v-89h-876z" />
    <glyph glyph-name="tilde" unicode="&#x2dc;" horiz-adv-x="509" 
d="M331 521c-34 0 -49 8 -74 23c-29 16 -42 25 -58 25c-20 0 -36 -15 -31 -49h-74c-37 76 8 156 87 156c29 0 47 -8 68 -20c30 -18 44 -28 62 -28c19 0 31 11 26 46h78c35 -81 -4 -153 -84 -153z" />
    <glyph glyph-name="trademark" unicode="&#x2122;" horiz-adv-x="612" 
d="M163 341h-75v187h-68v61h212v-61h-69v-187zM570 341h-75v138h-4l-41 -79h-45l-40 79h-5v-138h-75v248h82l60 -106h1l59 106h83v-248z" />
    <glyph glyph-name="scaron" unicode="&#x161;" horiz-adv-x="445" 
d="M18 107l110 44c10 -50 46 -69 90 -69c37 0 63 13 63 40c0 26 -18 38 -59 48l-68 16c-81 21 -118 67 -118 137c0 117 93 150 188 150c110 0 176 -40 183 -130l-125 -18c-5 37 -26 49 -64 49c-31 0 -52 -14 -52 -38c0 -23 14 -36 45 -42l65 -14c94 -20 138 -70 138 -149
c0 -103 -85 -143 -198 -143c-114 0 -180 32 -198 119zM265 524h-84l-135 159h123l32 -35c19 -21 20 -33 20 -33h4s1 12 20 33l32 35h123z" />
    <glyph glyph-name="guilsinglright" unicode="&#x203a;" horiz-adv-x="326" 
d="M175 233v4s-21 8 -51 41l-93 103l66 67l199 -212l-199 -212l-67 65l93 104c30 33 52 40 52 40z" />
    <glyph glyph-name="oe" unicode="&#x153;" horiz-adv-x="804" 
d="M575 91c36 0 66 14 81 63l114 -39c-24 -94 -107 -127 -197 -127c-69 0 -127 25 -160 72c-30 -48 -82 -72 -156 -72c-135 0 -224 88 -224 244c0 157 89 241 224 241c77 0 127 -27 158 -78c31 50 81 78 160 78c130 0 195 -86 195 -205c0 -20 -3 -41 -7 -60h-285
c3 -71 36 -117 97 -117zM257 366c-62 0 -92 -43 -92 -134c0 -96 29 -140 92 -140c62 0 91 44 91 140c0 91 -30 134 -91 134zM482 282h159c1 6 1 10 1 16c0 43 -25 76 -72 76c-51 0 -83 -38 -88 -92z" />
    <glyph glyph-name="zcaron" unicode="&#x17e;" horiz-adv-x="427" 
d="M390 378l-149 -202c-36 -49 -63 -73 -63 -73v-4s29 5 80 5h141v-104h-371v81l143 203c36 49 63 73 63 73v4s-28 -5 -80 -5h-118v106h354v-84zM264 524h-84l-135 159h123l32 -35c19 -21 20 -33 20 -33h4s1 12 20 33l32 35h123z" />
    <glyph glyph-name="Ydieresis" unicode="&#x178;" horiz-adv-x="545" 
d="M164 589l69 -140c37 -79 44 -128 44 -128h4s6 51 43 127l68 141h143l-188 -393v-196h-136v196l-201 393h154zM85 723c0 50 34 75 74 75c44 0 76 -25 76 -75c0 -48 -32 -75 -76 -75c-40 0 -74 27 -74 75zM303 723c0 50 34 75 74 75c43 0 76 -25 76 -75
c0 -49 -33 -75 -76 -75c-40 0 -74 26 -74 75z" />
    <glyph glyph-name="nbspace" unicode="&#xa0;" horiz-adv-x="153" 
 />
    <glyph glyph-name="exclamdown" unicode="&#xa1;" horiz-adv-x="243" 
d="M203 -126h-163l37 391h89zM39 391c0 47 36 77 83 77c48 0 84 -30 84 -77s-36 -78 -84 -78c-47 0 -83 31 -83 78z" />
    <glyph glyph-name="cent" unicode="&#xa2;" horiz-adv-x="518" 
d="M255 -106v95c-128 9 -213 91 -213 250c0 151 78 240 213 252v83h50v-82c94 -4 153 -45 187 -127l-117 -60c-12 39 -30 69 -70 78v-286c39 6 62 29 78 69l109 -67c-40 -71 -96 -105 -187 -110v-95h-50zM178 241c0 -79 27 -129 77 -142v284c-47 -12 -77 -58 -77 -142z" />
    <glyph glyph-name="sterling" unicode="&#xa3;" horiz-adv-x="519" 
d="M358 195h-113c-1 -39 -14 -73 -40 -86h125c29 0 59 5 74 47l93 -54c-11 -67 -69 -102 -143 -102h-306v110h32c39 0 50 32 50 60c0 9 -1 17 -3 25h-88v68h57c-9 20 -15 44 -15 79c0 94 87 151 181 151c92 0 172 -34 186 -137l-118 -30c-8 39 -31 62 -66 62
c-43 0 -63 -23 -63 -60c0 -26 13 -44 25 -65h132v-68z" />
    <glyph glyph-name="currency" unicode="&#xa4;" horiz-adv-x="452" 
d="M323 424l66 66l33 -33l-65 -65c18 -26 29 -60 29 -102c0 -40 -9 -73 -26 -98l62 -61l-33 -33l-60 60c-27 -20 -61 -30 -101 -30c-42 0 -77 11 -103 32l-62 -62l-33 33l64 64c-16 25 -24 57 -24 95c0 41 10 74 27 100l-67 67l33 33l67 -68c26 18 59 28 98 28
c37 0 70 -9 95 -26zM228 377c-35 0 -52 -28 -52 -88c0 -59 17 -89 52 -89s52 30 52 89c0 60 -17 88 -52 88z" />
    <glyph glyph-name="yen" unicode="&#xa5;" horiz-adv-x="565" 
d="M514 140h-158v-140h-136v140h-161v53h139l-28 47h-111v53h81l-109 188h154l66 -125c34 -64 36 -102 36 -102h4s2 37 35 101l63 126h145l-103 -188h83v-53h-112l-26 -47h138v-53z" />
    <glyph glyph-name="brokenbar" unicode="&#xa6;" horiz-adv-x="307" 
d="M207 278h-107v390h107v-390zM207 -202h-107v389h107v-389z" />
    <glyph glyph-name="section" unicode="&#xa7;" horiz-adv-x="475" 
d="M40 29l108 43c13 -47 48 -69 90 -69c35 0 57 15 57 39c0 22 -17 35 -59 47l-72 21c-74 22 -108 55 -108 117c0 59 38 90 79 100c-58 24 -77 83 -77 124c0 117 93 150 187 150c111 0 180 -44 184 -130l-125 -18c-3 38 -28 49 -62 49c-33 0 -50 -16 -50 -38
c0 -20 11 -34 50 -44l68 -19c82 -22 125 -60 125 -131c0 -57 -36 -92 -80 -100c50 -24 77 -68 77 -121c0 -103 -85 -142 -195 -142c-115 0 -183 39 -197 122zM299 246c0 30 -31 43 -79 56c-20 -7 -32 -24 -32 -42c0 -29 24 -41 79 -56c19 6 32 22 32 42z" />
    <glyph glyph-name="dieresis" unicode="&#xa8;" horiz-adv-x="528" 
d="M80 596c0 50 34 75 74 75c44 0 76 -25 76 -75c0 -48 -32 -75 -76 -75c-40 0 -74 27 -74 75zM298 596c0 50 34 75 74 75c43 0 76 -25 76 -75c0 -49 -33 -75 -76 -75c-40 0 -74 26 -74 75z" />
    <glyph glyph-name="copyright" unicode="&#xa9;" horiz-adv-x="703" 
d="M432 247l91 -61c-37 -57 -85 -86 -174 -86c-108 0 -186 68 -186 195c0 126 74 196 197 196c81 0 132 -31 163 -100l-99 -48c-10 34 -26 58 -66 58c-47 0 -81 -40 -81 -104c0 -65 30 -103 80 -103c39 0 58 19 75 53zM45 294c0 178 137 307 306 307s307 -129 307 -307
s-138 -306 -307 -306s-306 128 -306 306zM76 294c0 -163 125 -277 277 -277c151 0 275 114 275 277c0 162 -124 278 -275 278c-152 0 -277 -116 -277 -278z" />
    <glyph glyph-name="ordfeminine" unicode="&#xaa;" horiz-adv-x="391" 
d="M210 382v36c-56 0 -73 -21 -73 -45c0 -18 11 -29 30 -29c20 0 43 11 43 38zM315 499v-119c0 -16 7 -21 18 -21c8 0 18 1 24 5v-70c-12 -6 -39 -12 -62 -12c-44 0 -65 10 -81 43c-15 -31 -43 -46 -90 -46c-54 0 -89 30 -89 82c0 67 53 102 175 101v29c0 28 -15 37 -32 37
c-21 0 -33 -19 -34 -40l-99 16c5 65 63 97 142 97c69 0 128 -27 128 -102z" />
    <glyph glyph-name="guillemotleft" unicode="&#xab;" horiz-adv-x="549" 
d="M374 237v-4s22 -7 52 -40l93 -104l-67 -65l-198 212l198 212l67 -67l-93 -103c-31 -33 -52 -41 -52 -41zM151 237v-4s21 -7 52 -40l92 -104l-66 -65l-199 212l199 212l66 -67l-93 -103c-31 -33 -51 -41 -51 -41z" />
    <glyph glyph-name="logicalnot" unicode="&#xac;" horiz-adv-x="506" 
d="M375 240h-326v75h408v-193h-82v118z" />
    <glyph glyph-name="uni00AD" unicode="&#xad;" horiz-adv-x="348" 
d="M62 202v113h224v-113h-224z" />
    <glyph glyph-name="registered" unicode="&#xae;" horiz-adv-x="703" 
d="M532 121h-122c-11 9 -17 21 -22 40l-10 35c-7 28 -21 35 -47 35h-13v-110h-107v361h155c95 0 144 -40 144 -117c0 -67 -46 -94 -95 -99c41 -6 59 -18 71 -48l20 -54c6 -18 15 -32 26 -43zM318 395v-83h29c39 0 58 11 58 39s-18 44 -51 44h-36zM45 294
c0 178 137 307 306 307s307 -129 307 -307s-138 -306 -307 -306s-306 128 -306 306zM76 294c0 -163 125 -277 277 -277c151 0 275 114 275 277c0 162 -124 278 -275 278c-152 0 -277 -116 -277 -278z" />
    <glyph glyph-name="macron" unicode="&#xaf;" horiz-adv-x="454" 
d="M374 539h-294v108h294v-108z" />
    <glyph glyph-name="degree" unicode="&#xb0;" horiz-adv-x="266" 
d="M24 492c0 59 43 109 108 109s110 -50 110 -109c0 -61 -45 -109 -110 -109s-108 48 -108 109zM93 492c0 -25 15 -43 39 -43c25 0 41 18 41 43c0 24 -16 44 -41 44c-24 0 -39 -20 -39 -44z" />
    <glyph glyph-name="plusminus" unicode="&#xb1;" horiz-adv-x="498" 
d="M45 359h165v124h74v-124h169v-74h-169v-138h-74v138h-165v74zM453 24h-408v75h408v-75z" />
    <glyph glyph-name="twosuperior" unicode="&#xb2;" horiz-adv-x="333" 
d="M307 313v-77h-278v64c114 82 164 121 164 170c0 27 -14 41 -40 41c-25 0 -49 -18 -49 -61l-83 32c3 59 47 115 142 115c76 0 133 -38 133 -114c0 -89 -85 -140 -140 -166v-4h151z" />
    <glyph glyph-name="threesuperior" unicode="&#xb3;" horiz-adv-x="325" 
d="M198 416v-2c68 -5 99 -37 99 -89c0 -62 -55 -96 -147 -96c-74 0 -129 29 -140 81l81 33c7 -27 25 -43 60 -43c24 0 42 9 42 33s-14 46 -89 48v56c71 3 83 26 83 48c0 23 -15 34 -34 34c-25 0 -44 -13 -47 -39l-80 30c10 56 64 87 135 87s123 -30 123 -93
c0 -49 -28 -78 -86 -88z" />
    <glyph glyph-name="acute" unicode="&#xb4;" horiz-adv-x="399" 
d="M203 526h-122l70 153h168z" />
    <glyph glyph-name="mu" unicode="&#xb5;" horiz-adv-x="540" 
d="M360 0l-16 87c-16 -72 -62 -99 -112 -99c-16 0 -30 6 -36 10v-201h-134v665h134v-283c0 -52 18 -83 62 -83c38 0 84 28 84 108v258h134v-462h-116z" />
    <glyph glyph-name="paragraph" unicode="&#xb6;" horiz-adv-x="560" 
d="M444 480v-490c0 -113 -73 -153 -163 -153c-44 0 -74 6 -112 27l24 116c25 -21 53 -29 77 -29c29 0 46 14 46 59v164h-49c-137 0 -229 64 -229 201c0 152 96 214 254 214h231v-109h-79z" />
    <glyph glyph-name="periodcentered" unicode="&#xb7;" horiz-adv-x="292" 
d="M60 264c0 50 37 88 84 88c51 0 88 -38 88 -88c0 -47 -37 -84 -88 -84c-47 0 -84 37 -84 84z" />
    <glyph glyph-name="periodcentered" unicode="&#x22c5;" horiz-adv-x="292" 
d="M60 264c0 50 37 88 84 88c51 0 88 -38 88 -88c0 -47 -37 -84 -88 -84c-47 0 -84 37 -84 84z" />
    <glyph glyph-name="cedilla" unicode="&#xb8;" horiz-adv-x="373" 
d="M293 -118c0 -63 -51 -93 -115 -93c-47 0 -86 15 -105 36l25 64c21 -24 43 -35 65 -35c19 0 30 8 30 26c0 22 -15 36 -51 40l11 98h57l-5 -54c59 -4 88 -31 88 -82z" />
    <glyph glyph-name="onesuperior" unicode="&#xb9;" horiz-adv-x="315" 
d="M297 236h-260v73h85v190l-94 -8v77l192 21v-280h77v-73z" />
    <glyph glyph-name="ordmasculine" unicode="&#xba;" horiz-adv-x="398" 
d="M199 279c-95 0 -158 58 -158 162s63 160 158 160s158 -56 158 -160s-63 -162 -158 -162zM199 528c-35 0 -52 -28 -52 -88c0 -59 17 -89 52 -89s52 30 52 89c0 60 -17 88 -52 88z" />
    <glyph glyph-name="guillemotright" unicode="&#xbb;" horiz-adv-x="549" 
d="M175 233v4s-21 8 -51 41l-93 103l66 67l199 -212l-199 -212l-67 65l93 104c30 33 52 40 52 40zM399 233v4s-21 8 -51 41l-93 103l66 67l198 -212l-198 -212l-67 65l93 104c30 33 52 40 52 40z" />
    <glyph glyph-name="onequarter" unicode="&#xbc;" horiz-adv-x="870" 
d="M308 236h-260v73h85v190l-94 -8v77l192 21v-280h77v-73zM242 0l305 589h81l-307 -589h-79zM705 0v70h-174v67l177 216h96v-212h50v-71h-50v-70h-99zM707 139v65c0 35 5 71 5 71h-4s-9 -25 -29 -51l-32 -40c-22 -27 -47 -47 -47 -47v-4s21 6 56 6h51z" />
    <glyph glyph-name="onehalf" unicode="&#xbd;" horiz-adv-x="870" 
d="M308 236h-260v73h85v190l-94 -8v77l192 21v-280h77v-73zM242 0l305 589h81l-307 -589h-79zM827 77v-77h-278v64c114 82 164 121 164 170c0 27 -14 41 -40 41c-25 0 -49 -18 -49 -61l-83 32c3 59 47 115 142 115c76 0 133 -38 133 -114c0 -89 -85 -140 -140 -166v-4h151z
" />
    <glyph glyph-name="threequarters" unicode="&#xbe;" horiz-adv-x="870" 
d="M220 416v-2c68 -5 99 -37 99 -89c0 -62 -55 -96 -147 -96c-74 0 -129 29 -140 81l81 33c7 -27 25 -43 60 -43c24 0 42 9 42 33s-14 46 -89 48v56c71 3 83 26 83 48c0 23 -15 34 -34 34c-25 0 -44 -13 -47 -39l-80 30c10 56 64 87 135 87s123 -30 123 -93
c0 -49 -28 -78 -86 -88zM242 0l305 589h81l-307 -589h-79zM705 0v70h-174v67l177 216h96v-212h50v-71h-50v-70h-99zM707 139v65c0 35 5 71 5 71h-4s-9 -25 -29 -51l-32 -40c-22 -27 -47 -47 -47 -47v-4s21 6 56 6h51z" />
    <glyph glyph-name="questiondown" unicode="&#xbf;" horiz-adv-x="439" 
d="M314 69l125 -45c-23 -105 -90 -163 -221 -163c-124 0 -210 75 -210 184c0 130 97 167 180 168v61h116v-134h-48c-71 0 -106 -21 -106 -85c0 -50 31 -77 77 -77c57 0 82 32 87 91zM329 390c0 -47 -37 -78 -83 -78c-48 0 -84 31 -84 78s36 77 84 77c46 0 83 -30 83 -77z
" />
    <glyph glyph-name="Agrave" unicode="&#xc0;" horiz-adv-x="616" 
d="M460 0l-43 123h-223l-42 -123h-142l213 589h168l215 -589h-146zM255 303l-23 -67h145l-24 66c-34 97 -46 168 -46 168h-4s-15 -72 -48 -167zM376 647h-122l-110 143h168z" />
    <glyph glyph-name="Aacute" unicode="&#xc1;" horiz-adv-x="616" 
d="M460 0l-43 123h-223l-42 -123h-142l213 589h168l215 -589h-146zM255 303l-23 -67h145l-24 66c-34 97 -46 168 -46 168h-4s-15 -72 -48 -167zM361 647h-123l64 143h168z" />
    <glyph glyph-name="Acircumflex" unicode="&#xc2;" horiz-adv-x="616" 
d="M460 0l-43 123h-223l-42 -123h-142l213 589h168l215 -589h-146zM255 303l-23 -67h145l-24 66c-34 97 -46 168 -46 168h-4s-15 -72 -48 -167zM264 792h85l134 -145h-124l-31 31c-17 18 -20 30 -20 30h-4s-3 -12 -20 -30l-30 -31h-125z" />
    <glyph glyph-name="Atilde" unicode="&#xc3;" horiz-adv-x="616" 
d="M460 0l-43 123h-223l-42 -123h-142l213 589h168l215 -589h-146zM255 303l-23 -67h145l-24 66c-34 97 -46 168 -46 168h-4s-15 -72 -48 -167zM382 649c-34 0 -49 7 -74 22c-29 17 -42 25 -58 25c-20 0 -36 -15 -31 -49h-74c-37 77 8 157 87 157c29 0 47 -9 68 -21
c30 -17 44 -27 62 -27c19 0 31 10 26 46h78c35 -81 -4 -153 -84 -153z" />
    <glyph glyph-name="Adieresis" unicode="&#xc4;" horiz-adv-x="616" 
d="M460 0l-43 123h-223l-42 -123h-142l213 589h168l215 -589h-146zM255 303l-23 -67h145l-24 66c-34 97 -46 168 -46 168h-4s-15 -72 -48 -167zM121 723c0 50 34 75 74 75c44 0 76 -25 76 -75c0 -48 -32 -75 -76 -75c-40 0 -74 27 -74 75zM339 723c0 50 34 75 74 75
c43 0 76 -25 76 -75c0 -49 -33 -75 -76 -75c-40 0 -74 26 -74 75z" />
    <glyph glyph-name="Aring" unicode="&#xc5;" horiz-adv-x="616" 
d="M460 0l-43 123h-223l-42 -123h-142l213 589h168l215 -589h-146zM255 303l-23 -67h145l-24 66c-34 97 -46 168 -46 168h-4s-15 -72 -48 -167zM305 630c-74 0 -115 50 -115 112c0 58 45 108 115 108s115 -50 115 -108c0 -62 -41 -112 -115 -112zM305 790
c-31 0 -49 -20 -49 -49c0 -26 17 -48 49 -48s49 22 49 48c0 29 -18 49 -49 49z" />
    <glyph glyph-name="AE" unicode="&#xc6;" horiz-adv-x="876" 
d="M826 0h-395v123h-203l-77 -123h-149l351 589h473v-118h-259v-117h229v-113h-229v-123h259v-118zM433 490l-146 -254h144v94c0 102 6 160 6 160h-4z" />
    <glyph glyph-name="Ccedilla" unicode="&#xc7;" horiz-adv-x="586" 
d="M434 -118c0 -63 -51 -93 -115 -93c-47 0 -86 15 -105 36l25 64c21 -24 43 -35 65 -35c19 0 30 8 30 26c0 22 -15 36 -51 40l7 69c-149 9 -249 118 -249 306c0 196 108 306 288 306c121 0 197 -55 240 -149l-131 -64c-18 58 -50 93 -114 93c-89 0 -143 -71 -143 -189
c0 -116 48 -184 145 -184c54 0 97 27 123 84l115 -69c-48 -82 -109 -126 -216 -134l-2 -25c59 -4 88 -31 88 -82z" />
    <glyph glyph-name="Egrave" unicode="&#xc8;" horiz-adv-x="522" 
d="M472 118v-118h-395v589h395v-118h-259v-117h228v-113h-228v-123h259zM343 647h-122l-110 143h168z" />
    <glyph glyph-name="Eacute" unicode="&#xc9;" horiz-adv-x="522" 
d="M472 118v-118h-395v589h395v-118h-259v-117h228v-113h-228v-123h259zM328 647h-123l64 143h168z" />
    <glyph glyph-name="Ecircumflex" unicode="&#xca;" horiz-adv-x="522" 
d="M472 118v-118h-395v589h395v-118h-259v-117h228v-113h-228v-123h259zM233 792h85l134 -145h-124l-31 31c-17 18 -20 30 -20 30h-4s-3 -12 -20 -30l-30 -31h-125z" />
    <glyph glyph-name="Edieresis" unicode="&#xcb;" horiz-adv-x="522" 
d="M472 118v-118h-395v589h395v-118h-259v-117h228v-113h-228v-123h259zM88 723c0 50 34 75 74 75c44 0 76 -25 76 -75c0 -48 -32 -75 -76 -75c-40 0 -74 27 -74 75zM306 723c0 50 34 75 74 75c43 0 76 -25 76 -75c0 -49 -33 -75 -76 -75c-40 0 -74 26 -74 75z" />
    <glyph glyph-name="Igrave" unicode="&#xcc;" horiz-adv-x="290" 
d="M77 589h136v-589h-136v589zM211 647h-122l-110 143h168z" />
    <glyph glyph-name="Iacute" unicode="&#xcd;" horiz-adv-x="290" 
d="M77 589h136v-589h-136v589zM201 647h-123l64 143h168z" />
    <glyph glyph-name="Icircumflex" unicode="&#xce;" horiz-adv-x="290" 
d="M77 589h136v-589h-136v589zM103 792h85l134 -145h-124l-31 31c-17 18 -20 30 -20 30h-4s-3 -12 -20 -30l-30 -31h-125z" />
    <glyph glyph-name="Idieresis" unicode="&#xcf;" horiz-adv-x="290" 
d="M77 589h136v-589h-136v589zM-42 723c0 50 34 75 74 75c44 0 76 -25 76 -75c0 -48 -32 -75 -76 -75c-40 0 -74 27 -74 75zM176 723c0 50 34 75 74 75c43 0 76 -25 76 -75c0 -49 -33 -75 -76 -75c-40 0 -74 26 -74 75z" />
    <glyph glyph-name="Eth" unicode="&#xd0;" horiz-adv-x="622" 
d="M285 0h-208v242h-65v110h65v237h217c163 0 287 -81 287 -288c0 -218 -127 -301 -296 -301zM213 115h59c105 0 167 44 167 178c0 140 -62 181 -159 181h-67v-122h93v-110h-93v-127z" />
    <glyph glyph-name="Ntilde" unicode="&#xd1;" horiz-adv-x="676" 
d="M205 589l208 -285c33 -45 49 -79 49 -79h4s-3 50 -3 125v239h136v-589h-124l-208 280c-38 50 -56 87 -56 87h-4s6 -48 6 -133v-234h-136v589h128zM414 649c-34 0 -49 7 -74 22c-29 17 -42 25 -58 25c-20 0 -36 -15 -31 -49h-74c-37 77 8 157 87 157c29 0 47 -9 68 -21
c30 -17 44 -27 62 -27c19 0 31 10 26 46h78c35 -81 -4 -153 -84 -153z" />
    <glyph glyph-name="Ograve" unicode="&#xd2;" horiz-adv-x="641" 
d="M320 -12c-174 0 -279 109 -279 306c0 198 105 307 279 307s280 -109 280 -307c0 -197 -106 -306 -280 -306zM320 480c-92 0 -138 -71 -138 -188c0 -116 45 -187 138 -187s139 71 139 187c0 117 -46 188 -139 188zM389 647h-122l-110 143h168z" />
    <glyph glyph-name="Oacute" unicode="&#xd3;" horiz-adv-x="641" 
d="M320 -12c-174 0 -279 109 -279 306c0 198 105 307 279 307s280 -109 280 -307c0 -197 -106 -306 -280 -306zM320 480c-92 0 -138 -71 -138 -188c0 -116 45 -187 138 -187s139 71 139 187c0 117 -46 188 -139 188zM374 647h-123l64 143h168z" />
    <glyph glyph-name="Ocircumflex" unicode="&#xd4;" horiz-adv-x="641" 
d="M320 -12c-174 0 -279 109 -279 306c0 198 105 307 279 307s280 -109 280 -307c0 -197 -106 -306 -280 -306zM320 480c-92 0 -138 -71 -138 -188c0 -116 45 -187 138 -187s139 71 139 187c0 117 -46 188 -139 188zM279 792h85l134 -145h-124l-31 31c-17 18 -20 30 -20 30
h-4s-3 -12 -20 -30l-30 -31h-125z" />
    <glyph glyph-name="Otilde" unicode="&#xd5;" horiz-adv-x="641" 
d="M320 -12c-174 0 -279 109 -279 306c0 198 105 307 279 307s280 -109 280 -307c0 -197 -106 -306 -280 -306zM320 480c-92 0 -138 -71 -138 -188c0 -116 45 -187 138 -187s139 71 139 187c0 117 -46 188 -139 188zM397 649c-34 0 -49 7 -74 22c-29 17 -42 25 -58 25
c-20 0 -36 -15 -31 -49h-74c-37 77 8 157 87 157c29 0 47 -9 68 -21c30 -17 44 -27 62 -27c19 0 31 10 26 46h78c35 -81 -4 -153 -84 -153z" />
    <glyph glyph-name="Odieresis" unicode="&#xd6;" horiz-adv-x="641" 
d="M320 -12c-174 0 -279 109 -279 306c0 198 105 307 279 307s280 -109 280 -307c0 -197 -106 -306 -280 -306zM320 480c-92 0 -138 -71 -138 -188c0 -116 45 -187 138 -187s139 71 139 187c0 117 -46 188 -139 188zM134 723c0 50 34 75 74 75c44 0 76 -25 76 -75
c0 -48 -32 -75 -76 -75c-40 0 -74 27 -74 75zM352 723c0 50 34 75 74 75c43 0 76 -25 76 -75c0 -49 -33 -75 -76 -75c-40 0 -74 26 -74 75z" />
    <glyph glyph-name="multiply" unicode="&#xd7;" horiz-adv-x="460" 
d="M45 120l129 129l-125 126l52 52l126 -124l131 131l54 -53l-133 -132l136 -135l-53 -53l-135 136l-129 -130z" />
    <glyph glyph-name="Oslash" unicode="&#xd8;" horiz-adv-x="641" 
d="M91 -12l-46 40l53 60c-37 50 -57 120 -57 206c0 198 105 307 279 307c74 0 135 -20 182 -58l47 54l48 -40l-53 -59c36 -51 56 -119 56 -204c0 -197 -106 -306 -280 -306c-73 0 -134 19 -180 56zM458 292c0 36 -5 68 -13 94l-218 -245c22 -23 53 -36 93 -36
c93 0 138 71 138 187zM320 480c-92 0 -137 -71 -137 -188c0 -36 4 -67 12 -94l218 245c-23 24 -54 37 -93 37z" />
    <glyph glyph-name="Ugrave" unicode="&#xd9;" horiz-adv-x="608" 
d="M412 589h135v-392c0 -159 -112 -209 -243 -209c-130 0 -243 50 -243 209v392h136v-354c0 -84 22 -134 107 -134c86 0 108 50 108 135v353zM372 647h-122l-110 143h168z" />
    <glyph glyph-name="Uacute" unicode="&#xda;" horiz-adv-x="608" 
d="M412 589h135v-392c0 -159 -112 -209 -243 -209c-130 0 -243 50 -243 209v392h136v-354c0 -84 22 -134 107 -134c86 0 108 50 108 135v353zM357 647h-123l64 143h168z" />
    <glyph glyph-name="Ucircumflex" unicode="&#xdb;" horiz-adv-x="608" 
d="M412 589h135v-392c0 -159 -112 -209 -243 -209c-130 0 -243 50 -243 209v392h136v-354c0 -84 22 -134 107 -134c86 0 108 50 108 135v353zM262 792h85l134 -145h-124l-31 31c-17 18 -20 30 -20 30h-4s-3 -12 -20 -30l-30 -31h-125z" />
    <glyph glyph-name="Udieresis" unicode="&#xdc;" horiz-adv-x="608" 
d="M412 589h135v-392c0 -159 -112 -209 -243 -209c-130 0 -243 50 -243 209v392h136v-354c0 -84 22 -134 107 -134c86 0 108 50 108 135v353zM117 723c0 50 34 75 74 75c44 0 76 -25 76 -75c0 -48 -32 -75 -76 -75c-40 0 -74 27 -74 75zM335 723c0 50 34 75 74 75
c43 0 76 -25 76 -75c0 -49 -33 -75 -76 -75c-40 0 -74 26 -74 75z" />
    <glyph glyph-name="Yacute" unicode="&#xdd;" horiz-adv-x="545" 
d="M164 589l69 -140c37 -79 44 -128 44 -128h4s6 51 43 127l68 141h143l-188 -393v-196h-136v196l-201 393h154zM325 647h-123l64 143h168z" />
    <glyph glyph-name="Thorn" unicode="&#xde;" horiz-adv-x="523" 
d="M213 387v-165h70c59 0 83 24 83 79c0 62 -26 86 -83 86h-70zM213 0h-136v589h136v-89h74c151 0 214 -64 214 -194c0 -125 -74 -195 -201 -195h-87v-111z" />
    <glyph glyph-name="germandbls" unicode="&#xdf;" horiz-adv-x="580" 
d="M63 0v414c0 202 111 262 247 262c131 0 200 -70 200 -166c0 -80 -40 -126 -114 -137v-4c98 -8 152 -71 152 -181c0 -123 -67 -200 -193 -200c-55 0 -99 17 -126 56l33 101c24 -34 51 -51 87 -51c44 0 68 27 68 101c0 75 -39 116 -117 116h-54v107h59c52 0 79 24 79 73
c0 48 -29 75 -85 75c-66 0 -102 -42 -102 -147v-419h-134z" />
    <glyph glyph-name="agrave" unicode="&#xe0;" horiz-adv-x="501" 
d="M289 145v47c-94 3 -127 -22 -127 -63c0 -27 19 -46 51 -46c35 0 76 17 76 62zM421 320v-180c0 -31 13 -42 34 -42c11 0 20 3 29 7v-97c-19 -12 -44 -17 -76 -17c-59 0 -95 23 -110 73c-21 -57 -71 -76 -134 -76c-82 0 -136 48 -136 127c0 103 83 159 261 149v44
c0 40 -17 64 -54 64s-56 -25 -58 -68l-133 25c7 98 90 144 196 144c115 0 181 -50 181 -153zM312 526h-121l-117 153h168z" />
    <glyph glyph-name="aacute" unicode="&#xe1;" horiz-adv-x="501" 
d="M289 145v47c-94 3 -127 -22 -127 -63c0 -27 19 -46 51 -46c35 0 76 17 76 62zM421 320v-180c0 -31 13 -42 34 -42c11 0 20 3 29 7v-97c-19 -12 -44 -17 -76 -17c-59 0 -95 23 -110 73c-21 -57 -71 -76 -134 -76c-82 0 -136 48 -136 127c0 103 83 159 261 149v44
c0 40 -17 64 -54 64s-56 -25 -58 -68l-133 25c7 98 90 144 196 144c115 0 181 -50 181 -153zM295 526h-122l70 153h168z" />
    <glyph glyph-name="acircumflex" unicode="&#xe2;" horiz-adv-x="501" 
d="M289 145v47c-94 3 -127 -22 -127 -63c0 -27 19 -46 51 -46c35 0 76 17 76 62zM421 320v-180c0 -31 13 -42 34 -42c11 0 20 3 29 7v-97c-19 -12 -44 -17 -76 -17c-59 0 -95 23 -110 73c-21 -57 -71 -76 -134 -76c-82 0 -136 48 -136 127c0 103 83 159 261 149v44
c0 40 -17 64 -54 64s-56 -25 -58 -68l-133 25c7 98 90 144 196 144c115 0 181 -50 181 -153zM195 683h84l135 -159h-123l-32 34c-19 21 -20 33 -20 33h-4s-1 -12 -20 -33l-32 -34h-123z" />
    <glyph glyph-name="atilde" unicode="&#xe3;" horiz-adv-x="501" 
d="M289 145v47c-94 3 -127 -22 -127 -63c0 -27 19 -46 51 -46c35 0 76 17 76 62zM421 320v-180c0 -31 13 -42 34 -42c11 0 20 3 29 7v-97c-19 -12 -44 -17 -76 -17c-59 0 -95 23 -110 73c-21 -57 -71 -76 -134 -76c-82 0 -136 48 -136 127c0 103 83 159 261 149v44
c0 40 -17 64 -54 64s-56 -25 -58 -68l-133 25c7 98 90 144 196 144c115 0 181 -50 181 -153zM313 521c-34 0 -49 8 -74 23c-29 16 -42 25 -58 25c-20 0 -36 -15 -31 -49h-74c-37 76 8 156 87 156c29 0 47 -8 68 -20c30 -18 44 -28 62 -28c19 0 31 11 26 46h78
c35 -81 -4 -153 -84 -153z" />
    <glyph glyph-name="adieresis" unicode="&#xe4;" horiz-adv-x="501" 
d="M289 145v47c-94 3 -127 -22 -127 -63c0 -27 19 -46 51 -46c35 0 76 17 76 62zM421 320v-180c0 -31 13 -42 34 -42c11 0 20 3 29 7v-97c-19 -12 -44 -17 -76 -17c-59 0 -95 23 -110 73c-21 -57 -71 -76 -134 -76c-82 0 -136 48 -136 127c0 103 83 159 261 149v44
c0 40 -17 64 -54 64s-56 -25 -58 -68l-133 25c7 98 90 144 196 144c115 0 181 -50 181 -153zM56 596c0 50 34 75 74 75c44 0 76 -25 76 -75c0 -48 -32 -75 -76 -75c-40 0 -74 27 -74 75zM274 596c0 50 34 75 74 75c43 0 76 -25 76 -75c0 -49 -33 -75 -76 -75
c-40 0 -74 26 -74 75z" />
    <glyph glyph-name="aring" unicode="&#xe5;" horiz-adv-x="501" 
d="M289 145v47c-94 3 -127 -22 -127 -63c0 -27 19 -46 51 -46c35 0 76 17 76 62zM421 320v-180c0 -31 13 -42 34 -42c11 0 20 3 29 7v-97c-19 -12 -44 -17 -76 -17c-59 0 -95 23 -110 73c-21 -57 -71 -76 -134 -76c-82 0 -136 48 -136 127c0 103 83 159 261 149v44
c0 40 -17 64 -54 64s-56 -25 -58 -68l-133 25c7 98 90 144 196 144c115 0 181 -50 181 -153zM239 506c-74 0 -115 50 -115 112c0 58 45 109 115 109s115 -51 115 -109c0 -62 -41 -112 -115 -112zM239 667c-31 0 -49 -21 -49 -50c0 -25 17 -48 49 -48s49 23 49 48
c0 29 -18 50 -49 50z" />
    <glyph glyph-name="ae" unicode="&#xe6;" horiz-adv-x="741" 
d="M513 91c36 0 65 14 80 63l115 -39c-25 -94 -108 -127 -198 -127c-72 0 -129 25 -168 73c-26 -50 -82 -73 -158 -73c-92 0 -156 46 -156 132c0 101 83 155 264 156c2 14 5 27 8 39c-3 39 -29 57 -64 57c-36 0 -57 -25 -59 -68l-133 25c7 98 90 144 190 144
c63 0 106 -16 133 -47c36 30 86 47 145 47c130 0 195 -92 195 -211c0 -21 -3 -42 -7 -61h-284c2 -70 35 -110 97 -110zM419 276h159c1 5 1 10 1 15c0 43 -24 83 -72 83c-58 0 -83 -44 -88 -98zM213 83c41 0 76 18 87 56c-5 19 -9 40 -10 62c-89 -1 -128 -26 -128 -72
c0 -27 19 -46 51 -46z" />
    <glyph glyph-name="ccedilla" unicode="&#xe7;" horiz-adv-x="470" 
d="M370 -118c0 -63 -51 -93 -115 -93c-47 0 -86 15 -105 36l25 64c21 -24 43 -35 65 -35c19 0 30 8 30 26c0 22 -15 36 -51 40l8 70c-118 11 -194 96 -194 239c0 154 89 244 224 244c110 0 180 -59 187 -152l-113 -31c-7 49 -30 78 -75 78c-60 0 -93 -53 -93 -137
c0 -88 35 -140 95 -140c36 0 63 18 75 71l118 -38c-16 -84 -82 -127 -167 -135l-2 -25c59 -4 88 -31 88 -82z" />
    <glyph glyph-name="egrave" unicode="&#xe8;" horiz-adv-x="488" 
d="M259 91c36 0 66 14 81 63l114 -39c-24 -94 -107 -127 -198 -127c-132 0 -223 87 -223 236c0 159 86 249 225 249c131 0 195 -86 195 -205c0 -20 -2 -41 -6 -60h-285c3 -71 36 -117 97 -117zM166 282h159c1 6 1 10 1 16c0 43 -25 76 -73 76c-50 0 -82 -38 -87 -92z
M316 526h-121l-117 153h168z" />
    <glyph glyph-name="eacute" unicode="&#xe9;" horiz-adv-x="488" 
d="M259 91c36 0 66 14 81 63l114 -39c-24 -94 -107 -127 -198 -127c-132 0 -223 87 -223 236c0 159 86 249 225 249c131 0 195 -86 195 -205c0 -20 -2 -41 -6 -60h-285c3 -71 36 -117 97 -117zM166 282h159c1 6 1 10 1 16c0 43 -25 76 -73 76c-50 0 -82 -38 -87 -92z
M298 526h-122l70 153h168z" />
    <glyph glyph-name="ecircumflex" unicode="&#xea;" horiz-adv-x="488" 
d="M259 91c36 0 66 14 81 63l114 -39c-24 -94 -107 -127 -198 -127c-132 0 -223 87 -223 236c0 159 86 249 225 249c131 0 195 -86 195 -205c0 -20 -2 -41 -6 -60h-285c3 -71 36 -117 97 -117zM166 282h159c1 6 1 10 1 16c0 43 -25 76 -73 76c-50 0 -82 -38 -87 -92z
M211 683h84l135 -159h-123l-32 34c-19 21 -20 33 -20 33h-4s-1 -12 -20 -33l-32 -34h-123z" />
    <glyph glyph-name="edieresis" unicode="&#xeb;" horiz-adv-x="488" 
d="M259 91c36 0 66 14 81 63l114 -39c-24 -94 -107 -127 -198 -127c-132 0 -223 87 -223 236c0 159 86 249 225 249c131 0 195 -86 195 -205c0 -20 -2 -41 -6 -60h-285c3 -71 36 -117 97 -117zM166 282h159c1 6 1 10 1 16c0 43 -25 76 -73 76c-50 0 -82 -38 -87 -92zM71 596
c0 50 34 75 74 75c44 0 76 -25 76 -75c0 -48 -32 -75 -76 -75c-40 0 -74 27 -74 75zM289 596c0 50 34 75 74 75c43 0 76 -25 76 -75c0 -49 -33 -75 -76 -75c-40 0 -74 26 -74 75z" />
    <glyph glyph-name="igrave" unicode="&#xec;" horiz-adv-x="260" 
d="M196 526h-121l-117 153h168zM63 462h134v-462h-134v462z" />
    <glyph glyph-name="iacute" unicode="&#xed;" horiz-adv-x="260" 
d="M185 526h-122l70 153h168zM63 462h134v-462h-134v462z" />
    <glyph glyph-name="icircumflex" unicode="&#xee;" horiz-adv-x="260" 
d="M63 462h134v-462h-134v462zM88 683h84l135 -159h-123l-32 34c-19 21 -20 33 -20 33h-4s-1 -12 -20 -33l-32 -34h-123z" />
    <glyph glyph-name="idieresis" unicode="&#xef;" horiz-adv-x="260" 
d="M-57 596c0 50 34 75 74 75c44 0 76 -25 76 -75c0 -48 -32 -75 -76 -75c-40 0 -74 27 -74 75zM161 596c0 50 34 75 74 75c43 0 76 -25 76 -75c0 -49 -33 -75 -76 -75c-40 0 -74 26 -74 75zM63 462h134v-462h-134v462z" />
    <glyph glyph-name="eth" unicode="&#xf0;" horiz-adv-x="518" 
d="M112 484l-12 51l118 24c-26 21 -76 54 -109 71l133 49c41 -24 76 -47 109 -79l106 25l17 -51l-84 -19c59 -77 95 -174 95 -288c0 -192 -91 -275 -228 -275c-135 0 -224 75 -224 238c0 164 100 232 192 232c61 0 93 -23 120 -60h4c-22 51 -45 81 -84 116zM351 226
c0 90 -33 135 -93 135c-62 0 -92 -45 -92 -135c0 -87 31 -132 93 -132c63 0 92 45 92 132z" />
    <glyph glyph-name="ntilde" unicode="&#xf1;" horiz-adv-x="535" 
d="M177 462l16 -89c25 69 77 100 148 100s136 -42 136 -146v-327h-134v277c0 51 -14 84 -62 84c-43 0 -84 -24 -84 -107v-254h-134v462h114zM347 521c-34 0 -49 8 -74 23c-29 16 -42 25 -58 25c-20 0 -36 -15 -31 -49h-74c-37 76 8 156 87 156c29 0 47 -8 68 -20
c30 -18 44 -28 62 -28c19 0 31 11 26 46h78c35 -81 -4 -153 -84 -153z" />
    <glyph glyph-name="ograve" unicode="&#xf2;" horiz-adv-x="513" 
d="M257 -12c-135 0 -224 88 -224 244c0 157 89 241 224 241c134 0 223 -84 223 -241c0 -156 -89 -244 -223 -244zM257 366c-62 0 -92 -43 -92 -134c0 -96 29 -140 92 -140c62 0 91 44 91 140c0 91 -30 134 -91 134zM326 526h-121l-117 153h168z" />
    <glyph glyph-name="oacute" unicode="&#xf3;" horiz-adv-x="513" 
d="M257 -12c-135 0 -224 88 -224 244c0 157 89 241 224 241c134 0 223 -84 223 -241c0 -156 -89 -244 -223 -244zM257 366c-62 0 -92 -43 -92 -134c0 -96 29 -140 92 -140c62 0 91 44 91 140c0 91 -30 134 -91 134zM309 526h-122l70 153h168z" />
    <glyph glyph-name="ocircumflex" unicode="&#xf4;" horiz-adv-x="513" 
d="M257 -12c-135 0 -224 88 -224 244c0 157 89 241 224 241c134 0 223 -84 223 -241c0 -156 -89 -244 -223 -244zM257 366c-62 0 -92 -43 -92 -134c0 -96 29 -140 92 -140c62 0 91 44 91 140c0 91 -30 134 -91 134zM215 683h84l135 -159h-123l-32 34c-19 21 -20 33 -20 33
h-4s-1 -12 -20 -33l-32 -34h-123z" />
    <glyph glyph-name="otilde" unicode="&#xf5;" horiz-adv-x="513" 
d="M257 -12c-135 0 -224 88 -224 244c0 157 89 241 224 241c134 0 223 -84 223 -241c0 -156 -89 -244 -223 -244zM257 366c-62 0 -92 -43 -92 -134c0 -96 29 -140 92 -140c62 0 91 44 91 140c0 91 -30 134 -91 134zM334 521c-34 0 -49 8 -74 23c-29 16 -42 25 -58 25
c-20 0 -36 -15 -31 -49h-74c-37 76 8 156 87 156c29 0 47 -8 68 -20c30 -18 44 -28 62 -28c19 0 31 11 26 46h78c35 -81 -4 -153 -84 -153z" />
    <glyph glyph-name="odieresis" unicode="&#xf6;" horiz-adv-x="513" 
d="M257 -12c-135 0 -224 88 -224 244c0 157 89 241 224 241c134 0 223 -84 223 -241c0 -156 -89 -244 -223 -244zM257 366c-62 0 -92 -43 -92 -134c0 -96 29 -140 92 -140c62 0 91 44 91 140c0 91 -30 134 -91 134zM70 596c0 50 34 75 74 75c44 0 76 -25 76 -75
c0 -48 -32 -75 -76 -75c-40 0 -74 27 -74 75zM288 596c0 50 34 75 74 75c43 0 76 -25 76 -75c0 -49 -33 -75 -76 -75c-40 0 -74 26 -74 75z" />
    <glyph glyph-name="divide" unicode="&#xf7;" horiz-adv-x="498" 
d="M453 211h-408v74h408v-74zM189 85c0 31 24 57 55 57s57 -26 57 -57c0 -30 -26 -55 -57 -55s-55 25 -55 55zM189 405c0 32 24 57 55 57s57 -25 57 -57c0 -31 -26 -55 -57 -55s-55 24 -55 55z" />
    <glyph glyph-name="oslash" unicode="&#xf8;" horiz-adv-x="513" 
d="M73 -15l-44 41l46 49c-27 40 -42 93 -42 157c0 157 89 241 224 241c57 0 106 -16 144 -46l43 47l47 -41l-49 -52c24 -39 38 -88 38 -149c0 -156 -89 -244 -223 -244c-56 0 -104 15 -141 43zM257 366c-62 0 -92 -43 -92 -134c0 -21 1 -39 4 -55l151 163
c-15 17 -36 26 -63 26zM348 232c0 16 -1 31 -3 44l-150 -160c15 -16 35 -24 62 -24c62 0 91 44 91 140z" />
    <glyph glyph-name="ugrave" unicode="&#xf9;" horiz-adv-x="531" 
d="M352 0l-16 86c-16 -63 -58 -98 -143 -98c-82 0 -139 42 -139 149v325h134v-287c0 -55 17 -86 63 -86s83 36 83 125v248h134v-462h-116zM330 526h-121l-117 153h168z" />
    <glyph glyph-name="uacute" unicode="&#xfa;" horiz-adv-x="531" 
d="M352 0l-16 86c-16 -63 -58 -98 -143 -98c-82 0 -139 42 -139 149v325h134v-287c0 -55 17 -86 63 -86s83 36 83 125v248h134v-462h-116zM313 526h-122l70 153h168z" />
    <glyph glyph-name="ucircumflex" unicode="&#xfb;" horiz-adv-x="531" 
d="M352 0l-16 86c-16 -63 -58 -98 -143 -98c-82 0 -139 42 -139 149v325h134v-287c0 -55 17 -86 63 -86s83 36 83 125v248h134v-462h-116zM219 683h84l135 -159h-123l-32 34c-19 21 -20 33 -20 33h-4s-1 -12 -20 -33l-32 -34h-123z" />
    <glyph glyph-name="udieresis" unicode="&#xfc;" horiz-adv-x="531" 
d="M352 0l-16 86c-16 -63 -58 -98 -143 -98c-82 0 -139 42 -139 149v325h134v-287c0 -55 17 -86 63 -86s83 36 83 125v248h134v-462h-116zM74 596c0 50 34 75 74 75c44 0 76 -25 76 -75c0 -48 -32 -75 -76 -75c-40 0 -74 27 -74 75zM292 596c0 50 34 75 74 75
c43 0 76 -25 76 -75c0 -49 -33 -75 -76 -75c-40 0 -74 26 -74 75z" />
    <glyph glyph-name="yacute" unicode="&#xfd;" horiz-adv-x="484" 
d="M148 462l60 -210c26 -91 32 -149 32 -149h4s6 59 33 148l64 211h141l-183 -503c-52 -143 -116 -167 -211 -167c-27 0 -58 5 -83 11l20 118c17 -10 38 -16 61 -16c42 0 68 18 87 69l-171 488h146zM295 526h-122l70 153h168z" />
    <glyph glyph-name="thorn" unicode="&#xfe;" 
d="M196 253v-64c0 -79 49 -105 88 -105c57 0 105 48 105 146c0 96 -37 136 -96 136c-49 0 -97 -39 -97 -113zM197 61v-264h-134v871h134v-293c25 72 84 98 149 98c113 0 178 -84 178 -231c0 -152 -73 -254 -198 -254c-71 0 -116 34 -129 73z" />
    <glyph glyph-name="ydieresis" unicode="&#xff;" horiz-adv-x="484" 
d="M148 462l60 -210c26 -91 32 -149 32 -149h4s6 59 33 148l64 211h141l-183 -503c-52 -143 -116 -167 -211 -167c-27 0 -58 5 -83 11l20 118c17 -10 38 -16 61 -16c42 0 68 18 87 69l-171 488h146zM57 596c0 50 34 75 74 75c44 0 76 -25 76 -75c0 -48 -32 -75 -76 -75
c-40 0 -74 27 -74 75zM275 596c0 50 34 75 74 75c43 0 76 -25 76 -75c0 -49 -33 -75 -76 -75c-40 0 -74 26 -74 75z" />
    <glyph glyph-name="Amacron" unicode="&#x100;" horiz-adv-x="616" 
d="M460 0l-43 123h-223l-42 -123h-142l213 589h168l215 -589h-146zM255 303l-23 -67h145l-24 66c-34 97 -46 168 -46 168h-4s-15 -72 -48 -167zM456 664h-301v108h301v-108z" />
    <glyph glyph-name="amacron" unicode="&#x101;" horiz-adv-x="501" 
d="M289 145v47c-94 3 -127 -22 -127 -63c0 -27 19 -46 51 -46c35 0 76 17 76 62zM421 320v-180c0 -31 13 -42 34 -42c11 0 20 3 29 7v-97c-19 -12 -44 -17 -76 -17c-59 0 -95 23 -110 73c-21 -57 -71 -76 -134 -76c-82 0 -136 48 -136 127c0 103 83 159 261 149v44
c0 40 -17 64 -54 64s-56 -25 -58 -68l-133 25c7 98 90 144 196 144c115 0 181 -50 181 -153zM387 539h-294v108h294v-108z" />
    <glyph glyph-name="Abreve" unicode="&#x102;" horiz-adv-x="616" 
d="M460 0l-43 123h-223l-42 -123h-142l213 589h168l215 -589h-146zM255 303l-23 -67h145l-24 66c-34 97 -46 168 -46 168h-4s-15 -72 -48 -167zM305 642c-105 0 -150 59 -150 149h99c1 -36 13 -55 51 -55c39 0 50 19 51 55h99c0 -90 -45 -149 -150 -149z" />
    <glyph glyph-name="abreve" unicode="&#x103;" horiz-adv-x="501" 
d="M289 145v47c-94 3 -127 -22 -127 -63c0 -27 19 -46 51 -46c35 0 76 17 76 62zM421 320v-180c0 -31 13 -42 34 -42c11 0 20 3 29 7v-97c-19 -12 -44 -17 -76 -17c-59 0 -95 23 -110 73c-21 -57 -71 -76 -134 -76c-82 0 -136 48 -136 127c0 103 83 159 261 149v44
c0 40 -17 64 -54 64s-56 -25 -58 -68l-133 25c7 98 90 144 196 144c115 0 181 -50 181 -153zM241 520c-105 0 -150 70 -150 158h99c1 -38 9 -62 51 -62c43 0 50 24 51 62h99c0 -88 -45 -158 -150 -158z" />
    <glyph glyph-name="Aogonek" unicode="&#x104;" horiz-adv-x="616" 
d="M323 -99c0 85 70 123 123 138l-29 84h-223l-42 -123h-142l213 589h168l215 -589h-82c-51 0 -93 -25 -93 -73c0 -33 20 -51 50 -51c24 0 43 8 65 29l29 -67c-31 -34 -75 -49 -124 -49c-65 0 -128 31 -128 112zM255 303l-23 -67h145l-24 66c-34 97 -46 168 -46 168h-4
s-15 -72 -48 -167z" />
    <glyph glyph-name="aogonek" unicode="&#x105;" horiz-adv-x="501" 
d="M248 -99c0 60 39 98 80 117c-15 8 -24 28 -30 46c-21 -57 -71 -76 -134 -76c-82 0 -136 48 -136 127c0 103 83 159 261 149v44c0 40 -17 64 -54 64s-56 -25 -58 -68l-133 25c7 98 90 144 196 144c115 0 181 -50 181 -153v-180c0 -31 13 -42 34 -42c11 0 20 3 29 7v-97
c-49 -10 -127 -23 -127 -81c0 -33 19 -51 49 -51c25 0 44 8 65 29l29 -67c-30 -34 -75 -49 -124 -49c-65 0 -128 31 -128 112zM289 145v47c-94 3 -127 -22 -127 -63c0 -27 19 -46 51 -46c35 0 76 17 76 62z" />
    <glyph glyph-name="Cacute" unicode="&#x106;" horiz-adv-x="586" 
d="M449 192l115 -69c-53 -91 -122 -135 -253 -135c-160 0 -270 111 -270 307s108 306 288 306c121 0 197 -55 240 -149l-131 -64c-18 58 -50 93 -114 93c-89 0 -143 -71 -143 -189c0 -116 48 -184 145 -184c54 0 97 27 123 84zM379 647h-123l64 143h168z" />
    <glyph glyph-name="cacute" unicode="&#x107;" horiz-adv-x="470" 
d="M333 162l118 -38c-17 -93 -97 -136 -195 -136c-134 0 -223 87 -223 241s89 244 224 244c110 0 180 -59 187 -152l-113 -31c-7 49 -30 78 -75 78c-60 0 -93 -53 -93 -137c0 -88 35 -140 95 -140c36 0 63 18 75 71zM315 526h-122l70 153h168z" />
    <glyph glyph-name="Ccircumflex" unicode="&#x108;" horiz-adv-x="586" 
d="M449 192l115 -69c-53 -91 -122 -135 -253 -135c-160 0 -270 111 -270 307s108 306 288 306c121 0 197 -55 240 -149l-131 -64c-18 58 -50 93 -114 93c-89 0 -143 -71 -143 -189c0 -116 48 -184 145 -184c54 0 97 27 123 84zM282 792h85l134 -145h-124l-31 31
c-17 18 -20 30 -20 30h-4s-3 -12 -20 -30l-30 -31h-125z" />
    <glyph glyph-name="ccircumflex" unicode="&#x109;" horiz-adv-x="470" 
d="M333 162l118 -38c-17 -93 -97 -136 -195 -136c-134 0 -223 87 -223 241s89 244 224 244c110 0 180 -59 187 -152l-113 -31c-7 49 -30 78 -75 78c-60 0 -93 -53 -93 -137c0 -88 35 -140 95 -140c36 0 63 18 75 71zM213 683h84l135 -159h-123l-32 34c-19 21 -20 33 -20 33
h-4s-1 -12 -20 -33l-32 -34h-123z" />
    <glyph glyph-name="Cdotaccent" unicode="&#x10a;" horiz-adv-x="586" 
d="M449 192l115 -69c-53 -91 -122 -135 -253 -135c-160 0 -270 111 -270 307s108 306 288 306c121 0 197 -55 240 -149l-131 -64c-18 58 -50 93 -114 93c-89 0 -143 -71 -143 -189c0 -116 48 -184 145 -184c54 0 97 27 123 84zM235 723c0 51 36 78 81 78c48 0 84 -27 84 -78
c0 -49 -36 -76 -84 -76c-45 0 -81 27 -81 76z" />
    <glyph glyph-name="cdotaccent" unicode="&#x10b;" horiz-adv-x="470" 
d="M333 162l118 -38c-17 -93 -97 -136 -195 -136c-134 0 -223 87 -223 241s89 244 224 244c110 0 180 -59 187 -152l-113 -31c-7 49 -30 78 -75 78c-60 0 -93 -53 -93 -137c0 -88 35 -140 95 -140c36 0 63 18 75 71zM173 594c0 51 37 78 81 78c49 0 84 -27 84 -78
c0 -49 -35 -76 -84 -76c-44 0 -81 27 -81 76z" />
    <glyph glyph-name="Ccaron" unicode="&#x10c;" horiz-adv-x="586" 
d="M449 192l115 -69c-53 -91 -122 -135 -253 -135c-160 0 -270 111 -270 307s108 306 288 306c121 0 197 -55 240 -149l-131 -64c-18 58 -50 93 -114 93c-89 0 -143 -71 -143 -189c0 -116 48 -184 145 -184c54 0 97 27 123 84zM357 646h-85l-135 145h125l30 -31
c17 -18 20 -30 20 -30h4s3 12 20 30l31 31h124z" />
    <glyph glyph-name="ccaron" unicode="&#x10d;" horiz-adv-x="470" 
d="M333 162l118 -38c-17 -93 -97 -136 -195 -136c-134 0 -223 87 -223 241s89 244 224 244c110 0 180 -59 187 -152l-113 -31c-7 49 -30 78 -75 78c-60 0 -93 -53 -93 -137c0 -88 35 -140 95 -140c36 0 63 18 75 71zM300 524h-84l-135 159h123l32 -35c19 -21 20 -33 20 -33
h4s1 12 20 33l32 35h123z" />
    <glyph glyph-name="Dcaron" unicode="&#x10e;" horiz-adv-x="622" 
d="M213 115h59c105 0 167 44 167 178c0 140 -62 181 -159 181h-67v-359zM285 0h-208v589h217c163 0 287 -81 287 -288c0 -218 -127 -301 -296 -301zM331 646h-85l-135 145h125l30 -31c17 -18 20 -30 20 -30h4s3 12 20 30l31 31h124z" />
    <glyph glyph-name="dcaron" unicode="&#x10f;" 
d="M703 692l-58 -178h-95l15 178h138zM361 192v86c0 68 -44 96 -90 96c-53 0 -104 -38 -104 -147c0 -87 39 -136 102 -136c46 0 92 34 92 101zM360 401v267h134v-668h-116l-17 80c-17 -70 -75 -92 -144 -92c-102 0 -184 81 -184 233c0 158 74 252 206 252
c59 0 109 -28 121 -72z" />
    <glyph glyph-name="Dcroat" unicode="&#x110;" horiz-adv-x="622" 
d="M285 0h-208v242h-65v110h65v237h217c163 0 287 -81 287 -288c0 -218 -127 -301 -296 -301zM213 115h59c105 0 167 44 167 178c0 140 -62 181 -159 181h-67v-122h93v-110h-93v-127z" />
    <glyph glyph-name="dcroat" unicode="&#x111;" 
d="M219 519v81h141v68h134v-68h70v-81h-70v-519h-116l-17 80c-17 -70 -75 -92 -144 -92c-102 0 -184 81 -184 233c0 158 74 252 206 252c59 0 109 -28 121 -72v118h-141zM361 192v86c0 68 -44 96 -90 96c-53 0 -104 -38 -104 -147c0 -87 39 -136 102 -136c46 0 92 34 92 101
z" />
    <glyph glyph-name="Emacron" unicode="&#x112;" horiz-adv-x="522" 
d="M472 118v-118h-395v589h395v-118h-259v-117h228v-113h-228v-123h259zM425 664h-301v108h301v-108z" />
    <glyph glyph-name="emacron" unicode="&#x113;" horiz-adv-x="488" 
d="M259 91c36 0 66 14 81 63l114 -39c-24 -94 -107 -127 -198 -127c-132 0 -223 87 -223 236c0 159 86 249 225 249c131 0 195 -86 195 -205c0 -20 -2 -41 -6 -60h-285c3 -71 36 -117 97 -117zM166 282h159c1 6 1 10 1 16c0 43 -25 76 -73 76c-50 0 -82 -38 -87 -92z
M396 539h-294v108h294v-108z" />
    <glyph glyph-name="Ebreve" unicode="&#x114;" horiz-adv-x="522" 
d="M472 118v-118h-395v589h395v-118h-259v-117h228v-113h-228v-123h259zM266 642c-105 0 -150 59 -150 149h99c1 -36 13 -55 51 -55c39 0 50 19 51 55h99c0 -90 -45 -149 -150 -149z" />
    <glyph glyph-name="ebreve" unicode="&#x115;" horiz-adv-x="488" 
d="M259 91c36 0 66 14 81 63l114 -39c-24 -94 -107 -127 -198 -127c-132 0 -223 87 -223 236c0 159 86 249 225 249c131 0 195 -86 195 -205c0 -20 -2 -41 -6 -60h-285c3 -71 36 -117 97 -117zM166 282h159c1 6 1 10 1 16c0 43 -25 76 -73 76c-50 0 -82 -38 -87 -92z
M252 520c-105 0 -150 70 -150 158h99c1 -38 9 -62 51 -62c43 0 50 24 51 62h99c0 -88 -45 -158 -150 -158z" />
    <glyph glyph-name="Edotaccent" unicode="&#x116;" horiz-adv-x="522" 
d="M472 118v-118h-395v589h395v-118h-259v-117h228v-113h-228v-123h259zM192 722c0 51 36 78 81 78c48 0 84 -27 84 -78c0 -49 -36 -76 -84 -76c-45 0 -81 27 -81 76z" />
    <glyph glyph-name="edotaccent" unicode="&#x117;" horiz-adv-x="488" 
d="M259 91c36 0 66 14 81 63l114 -39c-24 -94 -107 -127 -198 -127c-132 0 -223 87 -223 236c0 159 86 249 225 249c131 0 195 -86 195 -205c0 -20 -2 -41 -6 -60h-285c3 -71 36 -117 97 -117zM166 282h159c1 6 1 10 1 16c0 43 -25 76 -73 76c-50 0 -82 -38 -87 -92z
M164 594c0 51 37 78 81 78c49 0 84 -27 84 -78c0 -49 -35 -76 -84 -76c-44 0 -81 27 -81 76z" />
    <glyph glyph-name="Eogonek" unicode="&#x118;" horiz-adv-x="522" 
d="M472 118v-118h-35c-59 0 -87 -26 -87 -70c0 -36 20 -54 50 -54c24 0 43 8 65 29l29 -67c-31 -34 -75 -49 -124 -49c-65 0 -128 31 -128 112c0 48 26 79 63 99h-228v589h395v-118h-259v-117h228v-113h-228v-123h259z" />
    <glyph glyph-name="eogonek" unicode="&#x119;" horiz-adv-x="488" 
d="M177 -99c0 39 15 69 36 90c-108 17 -180 100 -180 233c0 159 86 249 225 249c131 0 195 -86 195 -205c0 -20 -2 -41 -6 -60h-285c3 -71 36 -117 97 -117c36 0 66 14 81 63l114 -39c-18 -70 -66 -98 -108 -113c-45 -16 -61 -39 -61 -71c0 -37 20 -55 50 -55
c24 0 43 8 65 29l29 -67c-31 -34 -75 -49 -124 -49c-65 0 -128 31 -128 112zM166 282h159c1 6 1 10 1 16c0 43 -25 76 -73 76c-50 0 -82 -38 -87 -92z" />
    <glyph glyph-name="Ecaron" unicode="&#x11a;" horiz-adv-x="522" 
d="M472 118v-118h-395v589h395v-118h-259v-117h228v-113h-228v-123h259zM310 646h-85l-135 145h125l30 -31c17 -18 20 -30 20 -30h4s3 12 20 30l31 31h124z" />
    <glyph glyph-name="ecaron" unicode="&#x11b;" horiz-adv-x="488" 
d="M259 91c36 0 66 14 81 63l114 -39c-24 -94 -107 -127 -198 -127c-132 0 -223 87 -223 236c0 159 86 249 225 249c131 0 195 -86 195 -205c0 -20 -2 -41 -6 -60h-285c3 -71 36 -117 97 -117zM166 282h159c1 6 1 10 1 16c0 43 -25 76 -73 76c-50 0 -82 -38 -87 -92z
M294 524h-84l-135 159h123l32 -35c19 -21 20 -33 20 -33h4s1 12 20 33l32 35h123z" />
    <glyph glyph-name="Gcircumflex" unicode="&#x11c;" horiz-adv-x="629" 
d="M318 314h254v-314h-84l-22 66c-30 -53 -90 -78 -162 -78c-153 0 -263 97 -263 304c0 197 108 309 288 309c118 0 201 -55 240 -149l-131 -64c-19 62 -59 93 -114 93c-63 0 -143 -43 -143 -191c0 -106 39 -191 145 -191c79 0 116 37 116 87v20h-124v108zM289 792h85
l134 -145h-124l-31 31c-17 18 -20 30 -20 30h-4s-3 -12 -20 -30l-30 -31h-125z" />
    <glyph glyph-name="gcircumflex" unicode="&#x11d;" horiz-adv-x="502" 
d="M240 473c52 0 97 -10 131 -29c20 20 25 33 35 70l105 -35c-5 -45 -46 -76 -84 -87c14 -22 21 -50 21 -82c0 -107 -94 -159 -212 -159c-22 0 -45 2 -56 6c-16 -10 -22 -23 -22 -38c0 -16 13 -28 37 -28h132c104 0 163 -56 163 -136c0 -132 -136 -166 -268 -166
c-114 0 -216 27 -216 116c0 54 39 87 122 93c-46 3 -75 41 -75 82c0 36 24 76 78 91c-63 25 -96 65 -96 139c0 107 82 163 205 163zM129 -69c0 -36 37 -53 108 -53c93 0 128 17 128 54c0 28 -17 39 -57 39h-114c-38 0 -65 -13 -65 -40zM170 310c0 -41 23 -71 70 -71
c46 0 71 25 71 71c0 49 -25 72 -71 72c-47 -1 -70 -26 -70 -72zM217 691h84l135 -159h-123l-32 34c-19 21 -20 33 -20 33h-4s-1 -12 -20 -33l-32 -34h-123z" />
    <glyph glyph-name="Gbreve" unicode="&#x11e;" horiz-adv-x="629" 
d="M318 314h254v-314h-84l-22 66c-30 -53 -90 -78 -162 -78c-153 0 -263 97 -263 304c0 197 108 309 288 309c118 0 201 -55 240 -149l-131 -64c-19 62 -59 93 -114 93c-63 0 -143 -43 -143 -191c0 -106 39 -191 145 -191c79 0 116 37 116 87v20h-124v108zM330 642
c-105 0 -150 59 -150 149h99c1 -36 13 -55 51 -55c39 0 50 19 51 55h99c0 -90 -45 -149 -150 -149z" />
    <glyph glyph-name="gbreve" unicode="&#x11f;" horiz-adv-x="502" 
d="M240 473c52 0 97 -10 131 -29c20 20 25 33 35 70l105 -35c-5 -45 -46 -76 -84 -87c14 -22 21 -50 21 -82c0 -107 -94 -159 -212 -159c-22 0 -45 2 -56 6c-16 -10 -22 -23 -22 -38c0 -16 13 -28 37 -28h132c104 0 163 -56 163 -136c0 -132 -136 -166 -268 -166
c-114 0 -216 27 -216 116c0 54 39 87 122 93c-46 3 -75 41 -75 82c0 36 24 76 78 91c-63 25 -96 65 -96 139c0 107 82 163 205 163zM129 -69c0 -36 37 -53 108 -53c93 0 128 17 128 54c0 28 -17 39 -57 39h-114c-38 0 -65 -13 -65 -40zM170 310c0 -41 23 -71 70 -71
c46 0 71 25 71 71c0 49 -25 72 -71 72c-47 -1 -70 -26 -70 -72zM244 520c-105 0 -150 70 -150 158h99c1 -38 9 -62 51 -62c43 0 50 24 51 62h99c0 -88 -45 -158 -150 -158z" />
    <glyph glyph-name="Gdotaccent" unicode="&#x120;" horiz-adv-x="629" 
d="M318 314h254v-314h-84l-22 66c-30 -53 -90 -78 -162 -78c-153 0 -263 97 -263 304c0 197 108 309 288 309c118 0 201 -55 240 -149l-131 -64c-19 62 -59 93 -114 93c-63 0 -143 -43 -143 -191c0 -106 39 -191 145 -191c79 0 116 37 116 87v20h-124v108zM248 727
c0 51 36 78 81 78c48 0 84 -27 84 -78c0 -49 -36 -76 -84 -76c-45 0 -81 27 -81 76z" />
    <glyph glyph-name="gdotaccent" unicode="&#x121;" horiz-adv-x="502" 
d="M240 473c52 0 97 -10 131 -29c20 20 25 33 35 70l105 -35c-5 -45 -46 -76 -84 -87c14 -22 21 -50 21 -82c0 -107 -94 -159 -212 -159c-22 0 -45 2 -56 6c-16 -10 -22 -23 -22 -38c0 -16 13 -28 37 -28h132c104 0 163 -56 163 -136c0 -132 -136 -166 -268 -166
c-114 0 -216 27 -216 116c0 54 39 87 122 93c-46 3 -75 41 -75 82c0 36 24 76 78 91c-63 25 -96 65 -96 139c0 107 82 163 205 163zM129 -69c0 -36 37 -53 108 -53c93 0 128 17 128 54c0 28 -17 39 -57 39h-114c-38 0 -65 -13 -65 -40zM170 310c0 -41 23 -71 70 -71
c46 0 71 25 71 71c0 49 -25 72 -71 72c-47 -1 -70 -26 -70 -72zM158 596c0 51 37 78 81 78c49 0 84 -27 84 -78c0 -49 -35 -76 -84 -76c-44 0 -81 27 -81 76z" />
    <glyph glyph-name="Gcommaaccent" unicode="&#x122;" horiz-adv-x="629" 
d="M318 314h254v-314h-84l-22 66c-30 -53 -90 -78 -162 -78c-153 0 -263 97 -263 304c0 197 108 309 288 309c118 0 201 -55 240 -149l-131 -64c-19 62 -59 93 -114 93c-63 0 -143 -43 -143 -191c0 -106 39 -191 145 -191c79 0 116 37 116 87v20h-124v108zM415 -141
c0 -81 -54 -114 -143 -114v45c43 1 66 10 66 39c-37 -7 -72 12 -72 55c0 44 32 65 70 65c46 0 79 -36 79 -90z" />
    <glyph glyph-name="gcommaaccent" unicode="&#x123;" horiz-adv-x="502" 
d="M240 473c52 0 97 -10 131 -29c20 20 25 33 35 70l105 -35c-5 -45 -46 -76 -84 -87c14 -22 21 -50 21 -82c0 -107 -94 -159 -212 -159c-22 0 -45 2 -56 6c-16 -10 -22 -23 -22 -38c0 -16 13 -28 37 -28h132c104 0 163 -56 163 -136c0 -132 -136 -166 -268 -166
c-114 0 -216 27 -216 116c0 54 39 87 122 93c-46 3 -75 41 -75 82c0 36 24 76 78 91c-63 25 -96 65 -96 139c0 107 82 163 205 163zM129 -69c0 -36 37 -53 108 -53c93 0 128 17 128 54c0 28 -17 39 -57 39h-114c-38 0 -65 -13 -65 -40zM170 310c0 -41 23 -71 70 -71
c46 0 71 25 71 71c0 49 -25 72 -71 72c-47 -1 -70 -26 -70 -72zM169 611c0 81 54 114 143 114v-45c-43 -1 -66 -10 -66 -39c37 7 72 -12 72 -55c0 -44 -31 -65 -70 -65c-46 0 -79 36 -79 90z" />
    <glyph glyph-name="Hcircumflex" unicode="&#x124;" horiz-adv-x="652" 
d="M213 0h-136v589h136v-231h226v231h136v-589h-136v240h-226v-240zM284 792h85l134 -145h-124l-31 31c-17 18 -20 30 -20 30h-4s-3 -12 -20 -30l-30 -31h-125z" />
    <glyph glyph-name="hcircumflex" unicode="&#x125;" horiz-adv-x="535" 
d="M197 668v-294c24 68 73 99 144 99s136 -42 136 -146v-327h-134v277c0 51 -14 84 -62 84c-43 0 -84 -24 -84 -106v-255h-134v668h134zM93 854h85l134 -145h-124l-31 31c-17 18 -20 30 -20 30h-4s-3 -12 -20 -30l-30 -31h-125z" />
    <glyph glyph-name="Hbar" unicode="&#x126;" horiz-adv-x="663" 
d="M7 412v104h75v73h136v-73h227v73h135v-73h76v-104h-76v-412h-135v232h-227v-232h-136v412h-75zM218 341h227v71h-227v-71z" />
    <glyph glyph-name="hbar" unicode="&#x127;" horiz-adv-x="535" 
d="M197 668v-68h139v-81h-139v-145c24 68 73 99 144 99s136 -42 136 -146v-327h-134v277c0 51 -14 84 -62 84c-43 0 -84 -24 -84 -106v-255h-134v519h-72v81h72v68h134z" />
    <glyph glyph-name="Itilde" unicode="&#x128;" horiz-adv-x="290" 
d="M77 589h136v-589h-136v589zM222 649c-34 0 -49 7 -74 22c-29 17 -42 25 -58 25c-20 0 -36 -15 -31 -49h-74c-37 77 8 157 87 157c29 0 47 -9 68 -21c30 -17 44 -27 62 -27c19 0 31 10 26 46h78c35 -81 -4 -153 -84 -153z" />
    <glyph glyph-name="itilde" unicode="&#x129;" horiz-adv-x="260" 
d="M207 521c-34 0 -49 8 -74 23c-29 16 -42 25 -58 25c-20 0 -36 -15 -31 -49h-74c-37 76 8 156 87 156c29 0 47 -8 68 -20c30 -18 44 -28 62 -28c19 0 31 11 26 46h78c35 -81 -4 -153 -84 -153zM63 462h134v-462h-134v462z" />
    <glyph glyph-name="imacron" unicode="&#x12b;" horiz-adv-x="260" 
d="M259 539h-259v108h259v-108zM63 462h134v-462h-134v462z" />
    <glyph glyph-name="Ibreve" unicode="&#x12c;" horiz-adv-x="290" 
d="M77 589h136v-589h-136v589zM145 642c-105 0 -150 59 -150 149h99c1 -36 13 -55 51 -55c39 0 50 19 51 55h99c0 -90 -45 -149 -150 -149z" />
    <glyph glyph-name="Iogonek" unicode="&#x12e;" horiz-adv-x="290" 
d="M11 -99c0 56 31 91 66 112v576h136v-589c-52 0 -93 -25 -93 -73c0 -33 19 -51 49 -51c24 0 43 8 65 29l29 -67c-30 -34 -75 -49 -124 -49c-65 0 -128 31 -128 112z" />
    <glyph glyph-name="iogonek" unicode="&#x12f;" horiz-adv-x="260" 
d="M-5 -99c0 57 32 92 68 113v448h134v-462c-52 0 -93 -25 -93 -73c0 -33 19 -51 49 -51c24 0 43 8 65 29l29 -67c-30 -34 -75 -49 -124 -49c-65 0 -128 31 -128 112zM49 603c0 51 36 78 81 78c47 0 83 -27 83 -78c0 -49 -36 -76 -83 -76c-45 0 -81 27 -81 76z" />
    <glyph glyph-name="Idotaccent" unicode="&#x130;" horiz-adv-x="290" 
d="M77 589h136v-589h-136v589zM63 724c0 51 36 78 81 78c48 0 84 -27 84 -78c0 -49 -36 -76 -84 -76c-45 0 -81 27 -81 76z" />
    <glyph glyph-name="dotlessi" unicode="&#x131;" horiz-adv-x="260" 
d="M63 462h134v-462h-134v462z" />
    <glyph glyph-name="IJ" unicode="&#x132;" horiz-adv-x="744" 
d="M77 589h136v-589h-136v589zM547 589h135v-418c0 -134 -93 -183 -206 -183c-95 0 -163 37 -202 113l100 90c24 -59 52 -91 100 -91c55 0 73 32 73 95v394z" />
    <glyph glyph-name="ij" unicode="&#x133;" horiz-adv-x="518" 
d="M49 603c0 51 36 78 81 78c47 0 83 -27 83 -78c0 -49 -36 -76 -83 -76c-45 0 -81 27 -81 76zM63 462h134v-462h-134v462zM322 462h134v-457c0 -153 -108 -218 -263 -207v113c85 -12 129 8 129 115v436zM306 603c0 51 36 78 81 78c48 0 84 -27 84 -78
c0 -49 -36 -76 -84 -76c-45 0 -81 27 -81 76z" />
    <glyph glyph-name="Jcircumflex" unicode="&#x134;" horiz-adv-x="469" 
d="M273 589h135v-418c0 -134 -93 -183 -206 -183c-95 0 -163 37 -202 113l100 90c24 -59 52 -91 100 -91c55 0 73 32 73 95v394zM295 792h85l134 -145h-124l-31 31c-17 18 -20 30 -20 30h-4s-3 -12 -20 -30l-30 -31h-125z" />
    <glyph glyph-name="jcircumflex" unicode="&#x135;" horiz-adv-x="259" 
d="M63 462h133v-457c0 -153 -108 -218 -263 -207v113c85 -12 130 8 130 115v436zM85 683h84l135 -159h-123l-32 34c-19 21 -20 33 -20 33h-4s-1 -12 -20 -33l-32 -34h-123z" />
    <glyph glyph-name="Kcommaaccent" unicode="&#x136;" horiz-adv-x="581" 
d="M569 0h-162l-159 240h-35v-240h-136v589h136v-231h36l146 231h156l-186 -285zM370 -141c0 -81 -54 -114 -143 -114v45c43 1 66 10 66 39c-37 -7 -72 12 -72 55c0 44 32 65 70 65c46 0 79 -36 79 -90z" />
    <glyph glyph-name="kcommaaccent" unicode="&#x137;" horiz-adv-x="519" 
d="M335 247l175 -247h-156l-130 190h-27v-190h-134v668h134v-374h25l118 168h155zM342 -141c0 -81 -54 -114 -143 -114v45c43 1 66 10 66 39c-37 -7 -72 12 -72 55c0 44 32 65 70 65c46 0 79 -36 79 -90z" />
    <glyph glyph-name="kgreenlandic" unicode="&#x138;" horiz-adv-x="519" 
d="M335 247l175 -247h-156l-130 190h-27v-190h-134v462h133v-168h26l118 168h155z" />
    <glyph glyph-name="Lacute" unicode="&#x139;" horiz-adv-x="471" 
d="M77 589h136v-471h230v-118h-366v589zM202 647h-123l64 143h168z" />
    <glyph glyph-name="lacute" unicode="&#x13a;" horiz-adv-x="289" 
d="M266 115l-7 -112c-26 -7 -51 -12 -77 -12c-67 0 -128 31 -128 118v559h134v-520c0 -29 18 -40 42 -40c12 0 24 2 36 7zM182 724h-123l64 143h168z" />
    <glyph glyph-name="Lcommaaccent" unicode="&#x13b;" horiz-adv-x="471" 
d="M77 589h136v-471h230v-118h-366v589zM344 -141c0 -81 -54 -114 -143 -114v45c43 1 66 10 66 39c-37 -7 -72 12 -72 55c0 44 32 65 70 65c46 0 79 -36 79 -90z" />
    <glyph glyph-name="lcommaaccent" unicode="&#x13c;" horiz-adv-x="289" 
d="M266 115l-7 -112c-26 -7 -51 -12 -77 -12c-67 0 -128 31 -128 118v559h134v-520c0 -29 18 -40 42 -40c12 0 24 2 36 7zM240 -141c0 -81 -54 -114 -143 -114v45c43 1 66 10 66 39c-37 -7 -72 12 -72 55c0 44 32 65 70 65c46 0 79 -36 79 -90z" />
    <glyph glyph-name="Lcaron" unicode="&#x13d;" horiz-adv-x="471" 
d="M77 589h136v-471h230v-118h-366v589zM461 620l-58 -194h-95l15 194h138z" />
    <glyph glyph-name="lcaron" unicode="&#x13e;" horiz-adv-x="289" 
d="M397 692l-57 -178h-96l15 178h138zM266 115l-7 -112c-26 -7 -51 -12 -77 -12c-67 0 -128 31 -128 118v559h134v-520c0 -29 18 -40 42 -40c12 0 24 2 36 7z" />
    <glyph glyph-name="Ldot" unicode="&#x13f;" horiz-adv-x="471" 
d="M77 589h136v-471h230v-118h-366v589zM267 338c0 50 37 88 84 88c51 0 88 -38 88 -88c0 -47 -37 -84 -88 -84c-47 0 -84 37 -84 84z" />
    <glyph glyph-name="ldot" unicode="&#x140;" horiz-adv-x="379" 
d="M266 115l-7 -112c-26 -7 -51 -12 -77 -12c-67 0 -128 31 -128 118v559h134v-520c0 -29 18 -40 42 -40c12 0 24 2 36 7zM231 327c0 50 37 88 84 88c51 0 88 -38 88 -88c0 -47 -37 -84 -88 -84c-47 0 -84 37 -84 84z" />
    <glyph glyph-name="Lslash" unicode="&#x141;" horiz-adv-x="484" 
d="M30 213v88l60 21v267h136v-219l134 48v-90l-134 -47v-163h230v-118h-366v234z" />
    <glyph glyph-name="lslash" unicode="&#x142;" horiz-adv-x="307" 
d="M4 239v97l63 31v301h134v-235l83 41v-96l-83 -41v-189c0 -29 18 -40 42 -40c12 0 24 2 36 7l-7 -112c-26 -7 -51 -12 -77 -12c-67 0 -128 31 -128 118v161z" />
    <glyph glyph-name="Nacute" unicode="&#x143;" horiz-adv-x="676" 
d="M205 589l208 -285c33 -45 49 -79 49 -79h4s-3 50 -3 125v239h136v-589h-124l-208 280c-38 50 -56 87 -56 87h-4s6 -48 6 -133v-234h-136v589h128zM391 647h-123l64 143h168z" />
    <glyph glyph-name="nacute" unicode="&#x144;" horiz-adv-x="535" 
d="M177 462l16 -89c25 69 77 100 148 100s136 -42 136 -146v-327h-134v277c0 51 -14 84 -62 84c-43 0 -84 -24 -84 -107v-254h-134v462h114zM323 526h-122l70 153h168z" />
    <glyph glyph-name="Ncommaaccent" unicode="&#x145;" horiz-adv-x="676" 
d="M205 589l208 -285c33 -45 49 -79 49 -79h4s-3 50 -3 125v239h136v-589h-124l-208 280c-38 50 -56 87 -56 87h-4s6 -48 6 -133v-234h-136v589h128zM422 -141c0 -81 -54 -114 -143 -114v45c43 1 66 10 66 39c-37 -7 -72 12 -72 55c0 44 32 65 70 65c46 0 79 -36 79 -90z
" />
    <glyph glyph-name="ncommaaccent" unicode="&#x146;" horiz-adv-x="535" 
d="M177 462l16 -89c25 69 77 100 148 100s136 -42 136 -146v-327h-134v277c0 51 -14 84 -62 84c-43 0 -84 -24 -84 -107v-254h-134v462h114zM346 -141c0 -81 -54 -114 -143 -114v45c43 1 66 10 66 39c-37 -7 -72 12 -72 55c0 44 32 65 70 65c46 0 79 -36 79 -90z" />
    <glyph glyph-name="Ncaron" unicode="&#x147;" horiz-adv-x="676" 
d="M205 589l208 -285c33 -45 49 -79 49 -79h4s-3 50 -3 125v239h136v-589h-124l-208 280c-38 50 -56 87 -56 87h-4s6 -48 6 -133v-234h-136v589h128zM381 646h-85l-135 145h125l30 -31c17 -18 20 -30 20 -30h4s3 12 20 30l31 31h124z" />
    <glyph glyph-name="ncaron" unicode="&#x148;" horiz-adv-x="535" 
d="M177 462l16 -89c25 69 77 100 148 100s136 -42 136 -146v-327h-134v277c0 51 -14 84 -62 84c-43 0 -84 -24 -84 -107v-254h-134v462h114zM313 524h-84l-135 159h123l32 -35c19 -21 20 -33 20 -33h4s1 12 20 33l32 35h123z" />
    <glyph glyph-name="Eng" unicode="&#x14a;" horiz-adv-x="676" 
d="M599 589v-617c0 -139 -102 -183 -206 -183c-87 0 -146 29 -186 71l74 110c24 -44 68 -68 105 -68c58 0 77 31 77 94v20l-196 264c-38 50 -56 87 -56 87h-4s6 -48 6 -133v-234h-136v589h128l208 -285c33 -45 49 -79 49 -79h4s-3 50 -3 125v239h136z" />
    <glyph glyph-name="eng" unicode="&#x14b;" horiz-adv-x="535" 
d="M197 0h-134v462h114l16 -89c25 69 77 100 148 100s136 -42 136 -146v-322c0 -153 -108 -218 -263 -207v113c85 -12 129 8 129 115v251c0 51 -14 84 -62 84c-43 0 -84 -24 -84 -107v-254z" />
    <glyph glyph-name="Omacron" unicode="&#x14c;" horiz-adv-x="641" 
d="M320 -12c-174 0 -279 109 -279 306c0 198 105 307 279 307s280 -109 280 -307c0 -197 -106 -306 -280 -306zM320 480c-92 0 -138 -71 -138 -188c0 -116 45 -187 138 -187s139 71 139 187c0 117 -46 188 -139 188zM471 664h-301v108h301v-108z" />
    <glyph glyph-name="omacron" unicode="&#x14d;" horiz-adv-x="513" 
d="M257 -12c-135 0 -224 88 -224 244c0 157 89 241 224 241c134 0 223 -84 223 -241c0 -156 -89 -244 -223 -244zM257 366c-62 0 -92 -43 -92 -134c0 -96 29 -140 92 -140c62 0 91 44 91 140c0 91 -30 134 -91 134zM404 539h-294v108h294v-108z" />
    <glyph glyph-name="Obreve" unicode="&#x14e;" horiz-adv-x="641" 
d="M320 -12c-174 0 -279 109 -279 306c0 198 105 307 279 307s280 -109 280 -307c0 -197 -106 -306 -280 -306zM320 480c-92 0 -138 -71 -138 -188c0 -116 45 -187 138 -187s139 71 139 187c0 117 -46 188 -139 188zM320 642c-105 0 -150 59 -150 149h99
c1 -36 13 -55 51 -55c39 0 50 19 51 55h99c0 -90 -45 -149 -150 -149z" />
    <glyph glyph-name="obreve" unicode="&#x14f;" horiz-adv-x="513" 
d="M257 -12c-135 0 -224 88 -224 244c0 157 89 241 224 241c134 0 223 -84 223 -241c0 -156 -89 -244 -223 -244zM257 366c-62 0 -92 -43 -92 -134c0 -96 29 -140 92 -140c62 0 91 44 91 140c0 91 -30 134 -91 134zM256 520c-105 0 -150 70 -150 158h99c1 -38 9 -62 51 -62
c43 0 50 24 51 62h99c0 -88 -45 -158 -150 -158z" />
    <glyph glyph-name="Ohungarumlaut" unicode="&#x150;" horiz-adv-x="641" 
d="M320 -12c-174 0 -279 109 -279 306c0 198 105 307 279 307s280 -109 280 -307c0 -197 -106 -306 -280 -306zM320 480c-92 0 -138 -71 -138 -188c0 -116 45 -187 138 -187s139 71 139 187c0 117 -46 188 -139 188zM282 647h-95l52 143h141zM457 647h-104l70 143h150z" />
    <glyph glyph-name="ohungarumlaut" unicode="&#x151;" horiz-adv-x="513" 
d="M257 -12c-135 0 -224 88 -224 244c0 157 89 241 224 241c134 0 223 -84 223 -241c0 -156 -89 -244 -223 -244zM257 366c-62 0 -92 -43 -92 -134c0 -96 29 -140 92 -140c62 0 91 44 91 140c0 91 -30 134 -91 134zM215 526h-95l52 153h141zM390 526h-104l70 153h150z" />
    <glyph glyph-name="Racute" unicode="&#x154;" horiz-adv-x="582" 
d="M555 0h-151c-18 14 -25 36 -31 61l-22 88c-12 50 -35 59 -80 59h-58v-208h-136v589h232c132 0 214 -48 214 -180c0 -91 -53 -140 -129 -148v-2c54 -9 83 -32 98 -86l30 -110c6 -23 14 -43 33 -63zM213 474v-154h87c54 0 84 21 84 77c0 50 -28 77 -84 77h-87zM331 647
h-123l64 143h168z" />
    <glyph glyph-name="racute" unicode="&#x155;" horiz-adv-x="394" 
d="M382 472l-15 -148c-17 6 -31 8 -52 8c-53 0 -118 -26 -118 -121v-211h-134v462h116l16 -127c20 80 65 144 187 137zM274 526h-122l70 153h168z" />
    <glyph glyph-name="Rcommaaccent" unicode="&#x156;" horiz-adv-x="582" 
d="M555 0h-151c-18 14 -25 36 -31 61l-22 88c-12 50 -35 59 -80 59h-58v-208h-136v589h232c132 0 214 -48 214 -180c0 -91 -53 -140 -129 -148v-2c54 -9 83 -32 98 -86l30 -110c6 -23 14 -43 33 -63zM213 474v-154h87c54 0 84 21 84 77c0 50 -28 77 -84 77h-87zM362 -141
c0 -81 -54 -114 -143 -114v45c43 1 66 10 66 39c-37 -7 -72 12 -72 55c0 44 32 65 70 65c46 0 79 -36 79 -90z" />
    <glyph glyph-name="rcommaaccent" unicode="&#x157;" horiz-adv-x="394" 
d="M382 472l-15 -148c-17 6 -31 8 -52 8c-53 0 -118 -26 -118 -121v-211h-134v462h116l16 -127c20 80 65 144 187 137zM203 -141c0 -81 -54 -114 -143 -114v45c43 1 66 10 66 39c-37 -7 -72 12 -72 55c0 44 32 65 70 65c46 0 79 -36 79 -90z" />
    <glyph glyph-name="Rcaron" unicode="&#x158;" horiz-adv-x="582" 
d="M555 0h-151c-18 14 -25 36 -31 61l-22 88c-12 50 -35 59 -80 59h-58v-208h-136v589h232c132 0 214 -48 214 -180c0 -91 -53 -140 -129 -148v-2c54 -9 83 -32 98 -86l30 -110c6 -23 14 -43 33 -63zM213 474v-154h87c54 0 84 21 84 77c0 50 -28 77 -84 77h-87zM321 646h-85
l-135 145h125l30 -31c17 -18 20 -30 20 -30h4s3 12 20 30l31 31h124z" />
    <glyph glyph-name="rcaron" unicode="&#x159;" horiz-adv-x="394" 
d="M382 472l-15 -148c-17 6 -31 8 -52 8c-53 0 -118 -26 -118 -121v-211h-134v462h116l16 -127c20 80 65 144 187 137zM257 524h-84l-135 159h123l32 -35c19 -21 20 -33 20 -33h4s1 12 20 33l32 35h123z" />
    <glyph glyph-name="Sacute" unicode="&#x15a;" horiz-adv-x="515" 
d="M22 132l124 55c11 -58 54 -95 110 -95c45 0 78 18 78 58c0 38 -21 56 -98 80c-135 43 -191 94 -191 195c0 133 104 177 207 177c121 0 211 -41 223 -153l-135 -34c-5 52 -44 75 -85 75c-38 0 -68 -17 -68 -55c0 -41 32 -57 101 -78c124 -39 187 -81 187 -194
c0 -128 -104 -175 -229 -175c-116 0 -194 38 -224 144zM314 647h-123l64 143h168z" />
    <glyph glyph-name="sacute" unicode="&#x15b;" horiz-adv-x="445" 
d="M18 107l110 44c10 -50 46 -69 90 -69c37 0 63 13 63 40c0 26 -18 38 -59 48l-68 16c-81 21 -118 67 -118 137c0 117 93 150 188 150c110 0 176 -40 183 -130l-125 -18c-5 37 -26 49 -64 49c-31 0 -52 -14 -52 -38c0 -23 14 -36 45 -42l65 -14c94 -20 138 -70 138 -149
c0 -103 -85 -143 -198 -143c-114 0 -180 32 -198 119zM284 526h-122l70 153h168z" />
    <glyph glyph-name="Scircumflex" unicode="&#x15c;" horiz-adv-x="515" 
d="M22 132l124 55c11 -58 54 -95 110 -95c45 0 78 18 78 58c0 38 -21 56 -98 80c-135 43 -191 94 -191 195c0 133 104 177 207 177c121 0 211 -41 223 -153l-135 -34c-5 52 -44 75 -85 75c-38 0 -68 -17 -68 -55c0 -41 32 -57 101 -78c124 -39 187 -81 187 -194
c0 -128 -104 -175 -229 -175c-116 0 -194 38 -224 144zM219 792h85l134 -145h-124l-31 31c-17 18 -20 30 -20 30h-4s-3 -12 -20 -30l-30 -31h-125z" />
    <glyph glyph-name="scircumflex" unicode="&#x15d;" horiz-adv-x="445" 
d="M18 107l110 44c10 -50 46 -69 90 -69c37 0 63 13 63 40c0 26 -18 38 -59 48l-68 16c-81 21 -118 67 -118 137c0 117 93 150 188 150c110 0 176 -40 183 -130l-125 -18c-5 37 -26 49 -64 49c-31 0 -52 -14 -52 -38c0 -23 14 -36 45 -42l65 -14c94 -20 138 -70 138 -149
c0 -103 -85 -143 -198 -143c-114 0 -180 32 -198 119zM191 683h84l135 -159h-123l-32 34c-19 21 -20 33 -20 33h-4s-1 -12 -20 -33l-32 -34h-123z" />
    <glyph glyph-name="Scedilla" unicode="&#x15e;" horiz-adv-x="515" 
d="M367 -118c0 -63 -51 -93 -115 -93c-47 0 -86 15 -105 36l25 64c21 -24 43 -35 65 -35c19 0 30 8 30 26c0 22 -15 36 -51 40l7 69c-103 5 -173 44 -201 143l124 55c11 -58 54 -95 110 -95c45 0 78 18 78 58c0 38 -21 56 -98 80c-135 43 -191 94 -191 195
c0 133 104 177 207 177c121 0 211 -41 223 -153l-135 -34c-5 52 -44 75 -85 75c-38 0 -68 -17 -68 -55c0 -41 32 -57 101 -78c124 -39 187 -81 187 -194c0 -116 -85 -165 -194 -173l-2 -26c59 -4 88 -31 88 -82z" />
    <glyph glyph-name="scedilla" unicode="&#x15f;" horiz-adv-x="445" 
d="M328 -118c0 -63 -51 -93 -115 -93c-47 0 -86 15 -105 36l25 64c21 -24 43 -35 65 -35c19 0 30 8 30 26c0 22 -15 36 -51 40l7 69c-95 6 -150 39 -166 118l110 44c10 -50 46 -69 90 -69c37 0 63 13 63 40c0 26 -18 38 -59 48l-68 16c-81 21 -118 67 -118 137
c0 117 93 150 188 150c110 0 176 -40 183 -130l-125 -18c-5 37 -26 49 -64 49c-31 0 -52 -14 -52 -38c0 -23 14 -36 45 -42l65 -14c94 -20 138 -70 138 -149c0 -95 -72 -136 -172 -142l-2 -25c59 -4 88 -31 88 -82z" />
    <glyph glyph-name="Tcommaaccent" unicode="&#x162;" horiz-adv-x="479" 
d="M305 0h-134v471h-161v118h459v-118h-164v-471zM310 -141c0 -81 -54 -114 -143 -114v45c43 1 66 10 66 39c-37 -7 -72 12 -72 55c0 44 32 65 70 65c46 0 79 -36 79 -90z" />
    <glyph glyph-name="tcommaaccent" unicode="&#x163;" horiz-adv-x="386" 
d="M348 131l23 -113c-39 -20 -87 -30 -142 -30c-92 0 -152 43 -152 149v222h-67v103h68v98l134 16v-114h137v-103h-138v-192c0 -49 19 -65 56 -65c29 0 54 10 81 29zM278 -141c0 -81 -54 -114 -143 -114v45c43 1 66 10 66 39c-37 -7 -72 12 -72 55c0 44 32 65 70 65
c46 0 79 -36 79 -90z" />
    <glyph glyph-name="Tcaron" unicode="&#x164;" horiz-adv-x="479" 
d="M305 0h-134v471h-161v118h459v-118h-164v-471zM282 646h-85l-135 145h125l30 -31c17 -18 20 -30 20 -30h4s3 12 20 30l31 31h124z" />
    <glyph glyph-name="tcaron" unicode="&#x165;" horiz-adv-x="386" 
d="M348 131l23 -113c-39 -20 -87 -30 -142 -30c-92 0 -152 43 -152 149v222h-67v103h68v98l134 16v-114h137v-103h-138v-192c0 -49 19 -65 56 -65c29 0 54 10 81 29zM410 710l-58 -194h-95l15 194h138z" />
    <glyph glyph-name="Tbar" unicode="&#x166;" horiz-adv-x="479" 
d="M305 0h-134v221h-101v109h101v141h-161v118h459v-118h-164v-141h105v-109h-105v-221z" />
    <glyph glyph-name="tbar" unicode="&#x167;" horiz-adv-x="386" 
d="M10 203v98h67v58h-67v103h68v98l134 16v-114h137v-103h-138v-58h138v-98h-138v-36c0 -49 19 -65 56 -65c29 0 54 10 81 29l23 -113c-39 -20 -87 -30 -142 -30c-92 0 -152 43 -152 149v66h-67z" />
    <glyph glyph-name="Utilde" unicode="&#x168;" horiz-adv-x="608" 
d="M412 589h135v-392c0 -159 -112 -209 -243 -209c-130 0 -243 50 -243 209v392h136v-354c0 -84 22 -134 107 -134c86 0 108 50 108 135v353zM380 649c-34 0 -49 7 -74 22c-29 17 -42 25 -58 25c-20 0 -36 -15 -31 -49h-74c-37 77 8 157 87 157c29 0 47 -9 68 -21
c30 -17 44 -27 62 -27c19 0 31 10 26 46h78c35 -81 -4 -153 -84 -153z" />
    <glyph glyph-name="utilde" unicode="&#x169;" horiz-adv-x="531" 
d="M352 0l-16 86c-16 -63 -58 -98 -143 -98c-82 0 -139 42 -139 149v325h134v-287c0 -55 17 -86 63 -86s83 36 83 125v248h134v-462h-116zM337 521c-34 0 -49 8 -74 23c-29 16 -42 25 -58 25c-20 0 -36 -15 -31 -49h-74c-37 76 8 156 87 156c29 0 47 -8 68 -20
c30 -18 44 -28 62 -28c19 0 31 11 26 46h78c35 -81 -4 -153 -84 -153z" />
    <glyph glyph-name="Umacron" unicode="&#x16a;" horiz-adv-x="608" 
d="M412 589h135v-392c0 -159 -112 -209 -243 -209c-130 0 -243 50 -243 209v392h136v-354c0 -84 22 -134 107 -134c86 0 108 50 108 135v353zM454 664h-301v108h301v-108z" />
    <glyph glyph-name="umacron" unicode="&#x16b;" horiz-adv-x="531" 
d="M352 0l-16 86c-16 -63 -58 -98 -143 -98c-82 0 -139 42 -139 149v325h134v-287c0 -55 17 -86 63 -86s83 36 83 125v248h134v-462h-116zM408 539h-294v108h294v-108z" />
    <glyph glyph-name="Ubreve" unicode="&#x16c;" horiz-adv-x="608" 
d="M412 589h135v-392c0 -159 -112 -209 -243 -209c-130 0 -243 50 -243 209v392h136v-354c0 -84 22 -134 107 -134c86 0 108 50 108 135v353zM304 642c-105 0 -150 59 -150 149h99c1 -36 13 -55 51 -55c39 0 50 19 51 55h99c0 -90 -45 -149 -150 -149z" />
    <glyph glyph-name="ubreve" unicode="&#x16d;" horiz-adv-x="531" 
d="M352 0l-16 86c-16 -63 -58 -98 -143 -98c-82 0 -139 42 -139 149v325h134v-287c0 -55 17 -86 63 -86s83 36 83 125v248h134v-462h-116zM261 520c-105 0 -150 70 -150 158h99c1 -38 9 -62 51 -62c43 0 50 24 51 62h99c0 -88 -45 -158 -150 -158z" />
    <glyph glyph-name="Uring" unicode="&#x16e;" horiz-adv-x="608" 
d="M412 589h135v-392c0 -159 -112 -209 -243 -209c-130 0 -243 50 -243 209v392h136v-354c0 -84 22 -134 107 -134c86 0 108 50 108 135v353zM310 630c-74 0 -115 50 -115 112c0 58 45 108 115 108s115 -50 115 -108c0 -62 -41 -112 -115 -112zM310 790
c-31 0 -49 -20 -49 -49c0 -26 17 -48 49 -48s49 22 49 48c0 29 -18 49 -49 49z" />
    <glyph glyph-name="uring" unicode="&#x16f;" horiz-adv-x="531" 
d="M352 0l-16 86c-16 -63 -58 -98 -143 -98c-82 0 -139 42 -139 149v325h134v-287c0 -55 17 -86 63 -86s83 36 83 125v248h134v-462h-116zM261 506c-74 0 -115 50 -115 112c0 58 45 109 115 109s115 -51 115 -109c0 -62 -41 -112 -115 -112zM261 667c-31 0 -49 -21 -49 -50
c0 -25 17 -48 49 -48s49 23 49 48c0 29 -18 50 -49 50z" />
    <glyph glyph-name="Uhungarumlaut" unicode="&#x170;" horiz-adv-x="608" 
d="M412 589h135v-392c0 -159 -112 -209 -243 -209c-130 0 -243 50 -243 209v392h136v-354c0 -84 22 -134 107 -134c86 0 108 50 108 135v353zM266 647h-95l52 143h141zM441 647h-104l70 143h150z" />
    <glyph glyph-name="uhungarumlaut" unicode="&#x171;" horiz-adv-x="531" 
d="M352 0l-16 86c-16 -63 -58 -98 -143 -98c-82 0 -139 42 -139 149v325h134v-287c0 -55 17 -86 63 -86s83 36 83 125v248h134v-462h-116zM220 526h-95l52 153h141zM395 526h-104l70 153h150z" />
    <glyph glyph-name="Uogonek" unicode="&#x172;" horiz-adv-x="608" 
d="M198 -99c0 41 15 71 38 93c-100 16 -175 73 -175 203v392h136v-354c0 -84 22 -134 107 -134c86 0 108 50 108 135v353h135v-392c0 -141 -88 -196 -199 -207c-25 -11 -42 -33 -42 -63c0 -33 20 -51 50 -51c24 0 43 8 65 29l29 -67c-31 -34 -75 -49 -124 -49
c-65 0 -128 31 -128 112z" />
    <glyph glyph-name="uogonek" unicode="&#x173;" horiz-adv-x="531" 
d="M267 -99c0 58 39 95 82 115l-13 71c-16 -62 -58 -99 -143 -99c-82 0 -139 42 -139 149v325h134v-287c0 -55 17 -86 63 -86s83 37 83 126v247h134v-462c-56 -2 -92 -28 -92 -74c0 -31 18 -50 48 -50c24 0 43 8 65 29l29 -67c-30 -34 -75 -49 -124 -49
c-65 0 -127 31 -127 112z" />
    <glyph glyph-name="Wcircumflex" unicode="&#x174;" horiz-adv-x="873" 
d="M521 589l73 -324c18 -84 28 -167 28 -167h4s8 84 25 166l66 325h138l-129 -589h-198l-67 291c-19 83 -23 165 -23 165h-4s-5 -82 -25 -166l-70 -290h-191l-130 589h144l68 -324c18 -84 27 -167 27 -167h4s9 84 26 166l72 325h162zM394 792h85l134 -145h-124l-31 31
c-17 18 -20 30 -20 30h-4s-3 -12 -20 -30l-30 -31h-125z" />
    <glyph glyph-name="wcircumflex" unicode="&#x175;" horiz-adv-x="721" 
d="M423 462l51 -183c26 -93 31 -180 31 -180h4s4 85 26 178l43 185h133l-120 -462h-159l-45 165c-19 74 -24 149 -24 149h-4s-5 -74 -24 -150l-40 -164h-158l-127 462h136l48 -184c24 -93 29 -179 29 -179h4s5 87 27 180l47 183h122zM319 683h84l135 -159h-123l-32 34
c-19 21 -20 33 -20 33h-4s-1 -12 -20 -33l-32 -34h-123z" />
    <glyph glyph-name="Ycircumflex" unicode="&#x176;" horiz-adv-x="545" 
d="M164 589l69 -140c37 -79 44 -128 44 -128h4s6 51 43 127l68 141h143l-188 -393v-196h-136v196l-201 393h154zM230 792h85l134 -145h-124l-31 31c-17 18 -20 30 -20 30h-4s-3 -12 -20 -30l-30 -31h-125z" />
    <glyph glyph-name="ycircumflex" unicode="&#x177;" horiz-adv-x="484" 
d="M148 462l60 -210c26 -91 32 -149 32 -149h4s6 59 33 148l64 211h141l-183 -503c-52 -143 -116 -167 -211 -167c-27 0 -58 5 -83 11l20 118c17 -10 38 -16 61 -16c42 0 68 18 87 69l-171 488h146zM202 683h84l135 -159h-123l-32 34c-19 21 -20 33 -20 33h-4
s-1 -12 -20 -33l-32 -34h-123z" />
    <glyph glyph-name="Zacute" unicode="&#x179;" horiz-adv-x="513" 
d="M476 494l-222 -304c-36 -49 -63 -73 -63 -73v-4s29 5 80 5h214v-118h-457v98l215 301c36 49 63 73 63 73v4s-28 -5 -80 -5h-191v118h441v-95zM310 647h-123l64 143h168z" />
    <glyph glyph-name="zacute" unicode="&#x17a;" horiz-adv-x="427" 
d="M390 378l-149 -202c-36 -49 -63 -73 -63 -73v-4s29 5 80 5h141v-104h-371v81l143 203c36 49 63 73 63 73v4s-28 -5 -80 -5h-118v106h354v-84zM267 526h-122l70 153h168z" />
    <glyph glyph-name="Zdotaccent" unicode="&#x17b;" horiz-adv-x="513" 
d="M476 494l-222 -304c-36 -49 -63 -73 -63 -73v-4s29 5 80 5h214v-118h-457v98l215 301c36 49 63 73 63 73v4s-28 -5 -80 -5h-191v118h441v-95zM175 731c0 51 36 78 81 78c48 0 84 -27 84 -78c0 -49 -36 -76 -84 -76c-45 0 -81 27 -81 76z" />
    <glyph glyph-name="zdotaccent" unicode="&#x17c;" horiz-adv-x="427" 
d="M390 378l-149 -202c-36 -49 -63 -73 -63 -73v-4s29 5 80 5h141v-104h-371v81l143 203c36 49 63 73 63 73v4s-28 -5 -80 -5h-118v106h354v-84zM133 598c0 51 37 78 81 78c49 0 84 -27 84 -78c0 -49 -35 -76 -84 -76c-44 0 -81 27 -81 76z" />
    <glyph glyph-name="Schwa" unicode="&#x18f;" horiz-adv-x="592" 
d="M43 440c29 117 128 161 236 161c162 0 272 -106 272 -299c0 -204 -103 -314 -273 -314c-158 0 -237 105 -237 256c0 36 4 68 11 89h359c-5 82 -52 146 -136 146c-54 0 -96 -29 -114 -84zM410 231h-231c-2 -7 -2 -15 -2 -22c2 -61 39 -107 106 -107c80 0 121 58 127 129z
" />
    <glyph glyph-name="Khook" unicode="&#x198;" horiz-adv-x="581" 
d="M412 422l-50 -121l207 -301h-162l-158 232h-36v-232h-136v589h136v-235h37l46 121c30 79 76 126 154 126c65 0 102 -33 124 -78l-75 -91c-10 19 -23 30 -41 30s-32 -7 -46 -40z" />
    <glyph glyph-name="khook" unicode="&#x199;" horiz-adv-x="519" 
d="M197 190v-190h-134v501c0 177 170 197 297 153l-20 -121c-67 43 -144 47 -144 -64v-175h26l118 168h155l-160 -215l175 -247h-156l-130 190h-27z" />
    <glyph glyph-name="Ezh" unicode="&#x1b7;" horiz-adv-x="502" 
d="M149 273l86 126c34 50 63 73 63 73v4s-28 -5 -80 -5h-179v118h422v-95l-178 -235v-3c136 -9 194 -105 194 -216c0 -134 -89 -219 -238 -219c-139 0 -229 63 -250 180l114 58c12 -89 62 -134 133 -134s110 42 110 111c0 79 -56 141 -197 145v92z" />
    <glyph glyph-name="Acaron" unicode="&#x1cd;" horiz-adv-x="616" 
d="M460 0l-43 123h-223l-42 -123h-142l213 589h168l215 -589h-146zM255 303l-23 -67h145l-24 66c-34 97 -46 168 -46 168h-4s-15 -72 -48 -167zM348 646h-85l-135 145h125l30 -31c17 -18 20 -30 20 -30h4s3 12 20 30l31 31h124z" />
    <glyph glyph-name="acaron" unicode="&#x1ce;" horiz-adv-x="501" 
d="M289 145v47c-94 3 -127 -22 -127 -63c0 -27 19 -46 51 -46c35 0 76 17 76 62zM421 320v-180c0 -31 13 -42 34 -42c11 0 20 3 29 7v-97c-19 -12 -44 -17 -76 -17c-59 0 -95 23 -110 73c-21 -57 -71 -76 -134 -76c-82 0 -136 48 -136 127c0 103 83 159 261 149v44
c0 40 -17 64 -54 64s-56 -25 -58 -68l-133 25c7 98 90 144 196 144c115 0 181 -50 181 -153zM285 524h-84l-135 159h123l32 -35c19 -21 20 -33 20 -33h4s1 12 20 33l32 35h123z" />
    <glyph glyph-name="Icaron" unicode="&#x1cf;" horiz-adv-x="290" 
d="M77 589h136v-589h-136v589zM188 646h-85l-135 145h125l30 -31c17 -18 20 -30 20 -30h4s3 12 20 30l31 31h124z" />
    <glyph glyph-name="icaron" unicode="&#x1d0;" horiz-adv-x="260" 
d="M172 524h-84l-135 159h123l32 -35c19 -21 20 -33 20 -33h4s1 12 20 33l32 35h123zM63 462h134v-462h-134v462z" />
    <glyph glyph-name="Ocaron" unicode="&#x1d1;" horiz-adv-x="641" 
d="M320 -12c-174 0 -279 109 -279 306c0 198 105 307 279 307s280 -109 280 -307c0 -197 -106 -306 -280 -306zM320 480c-92 0 -138 -71 -138 -188c0 -116 45 -187 138 -187s139 71 139 187c0 117 -46 188 -139 188zM364 646h-85l-135 145h125l30 -31c17 -18 20 -30 20 -30
h4s3 12 20 30l31 31h124z" />
    <glyph glyph-name="ocaron" unicode="&#x1d2;" horiz-adv-x="513" 
d="M257 -12c-135 0 -224 88 -224 244c0 157 89 241 224 241c134 0 223 -84 223 -241c0 -156 -89 -244 -223 -244zM257 366c-62 0 -92 -43 -92 -134c0 -96 29 -140 92 -140c62 0 91 44 91 140c0 91 -30 134 -91 134zM299 524h-84l-135 159h123l32 -35c19 -21 20 -33 20 -33h4
s1 12 20 33l32 35h123z" />
    <glyph glyph-name="Ucaron" unicode="&#x1d3;" horiz-adv-x="608" 
d="M412 589h135v-392c0 -159 -112 -209 -243 -209c-130 0 -243 50 -243 209v392h136v-354c0 -84 22 -134 107 -134c86 0 108 50 108 135v353zM347 646h-85l-135 145h125l30 -31c17 -18 20 -30 20 -30h4s3 12 20 30l31 31h124z" />
    <glyph glyph-name="ucaron" unicode="&#x1d4;" horiz-adv-x="531" 
d="M352 0l-16 86c-16 -63 -58 -98 -143 -98c-82 0 -139 42 -139 149v325h134v-287c0 -55 17 -86 63 -86s83 36 83 125v248h134v-462h-116zM303 524h-84l-135 159h123l32 -35c19 -21 20 -33 20 -33h4s1 12 20 33l32 35h123z" />
    <glyph glyph-name="adieresismacron" unicode="&#x1df;" horiz-adv-x="501" 
d="M289 145v47c-94 3 -127 -22 -127 -63c0 -27 19 -46 51 -46c35 0 76 17 76 62zM421 320v-180c0 -31 13 -42 34 -42c11 0 20 3 29 7v-97c-19 -12 -44 -17 -76 -17c-59 0 -95 23 -110 73c-21 -57 -71 -76 -134 -76c-82 0 -136 48 -136 127c0 103 83 159 261 149v44
c0 40 -17 64 -54 64s-56 -25 -58 -68l-133 25c7 98 90 144 196 144c115 0 181 -50 181 -153zM390 693h-294v108h294v-108zM56 576c0 50 34 75 74 75c44 0 76 -25 76 -75c0 -48 -32 -75 -76 -75c-40 0 -74 27 -74 75zM274 576c0 50 34 75 74 75c43 0 76 -25 76 -75
c0 -49 -33 -75 -76 -75c-40 0 -74 26 -74 75z" />
    <glyph glyph-name="AEmacron" unicode="&#x1e2;" horiz-adv-x="876" 
d="M826 0h-395v123h-203l-77 -123h-149l351 589h473v-118h-259v-117h229v-113h-229v-123h259v-118zM433 490l-146 -254h144v94c0 102 6 160 6 160h-4zM712 664h-301v108h301v-108z" />
    <glyph glyph-name="aemacron" unicode="&#x1e3;" horiz-adv-x="739" 
d="M510 96c30 0 61 13 81 59l114 -40c-24 -94 -108 -127 -198 -127c-71 0 -131 25 -170 72c-27 -44 -82 -72 -161 -72c-90 0 -148 46 -148 127c0 98 80 159 259 160c2 15 5 30 9 43c-5 36 -28 54 -60 54c-36 0 -55 -25 -57 -68l-134 25c7 98 93 144 199 144
c54 0 98 -14 128 -41c36 27 82 41 137 41c130 0 195 -92 195 -203c0 -28 -2 -49 -6 -69h-278c1 -58 28 -105 90 -105zM421 275h152c1 6 1 17 1 23c0 43 -22 76 -68 76c-52 0 -82 -47 -85 -99zM220 85c31 0 65 17 76 49c-6 21 -10 43 -11 67c-83 -2 -115 -26 -115 -66
c0 -31 18 -50 50 -50zM510 539h-294v108h294v-108z" />
    <glyph glyph-name="Gstroke" unicode="&#x1e4;" horiz-adv-x="658" 
d="M318 333h254v-117h57v-72h-57v-144h-84l-22 66c-30 -53 -90 -78 -162 -78c-153 0 -263 97 -263 304c0 197 108 309 288 309c118 0 201 -55 240 -149l-131 -64c-19 62 -59 93 -114 93c-63 0 -143 -43 -143 -191c0 -106 39 -195 145 -195c55 0 96 16 115 49h-123v72h124v41
h-124v76z" />
    <glyph glyph-name="gstroke" unicode="&#x1e5;" horiz-adv-x="573" 
d="M275 473c52 0 97 -10 131 -29c20 20 25 33 35 70l105 -35c-5 -45 -46 -76 -83 -87c13 -22 20 -50 20 -82c0 -107 -94 -159 -212 -159c-21 0 -45 2 -56 6c-16 -10 -21 -23 -21 -38c0 -16 12 -28 36 -28h132c105 0 164 -56 164 -136c0 -5 -1 -10 -1 -15h48v-35h-55
c-31 -91 -148 -116 -261 -116c-114 0 -216 27 -216 116h-41v35h48c14 33 52 54 115 58c-46 3 -74 41 -74 82c0 36 23 76 77 91c-62 25 -96 65 -96 139c0 107 82 163 205 163zM205 310c0 -41 23 -71 70 -71c46 0 71 25 71 71c0 49 -25 72 -71 72c-46 -1 -70 -26 -70 -72z
M230 -26c-35 0 -61 -11 -67 -34h242c-3 24 -21 34 -57 34h-118zM274 -129c73 0 111 11 125 34h-231c14 -23 50 -34 106 -34z" />
    <glyph glyph-name="Gcaron" unicode="&#x1e6;" horiz-adv-x="629" 
d="M318 314h254v-314h-84l-22 66c-30 -53 -90 -78 -162 -78c-153 0 -263 97 -263 304c0 197 108 309 288 309c118 0 201 -55 240 -149l-131 -64c-19 62 -59 93 -114 93c-63 0 -143 -43 -143 -191c0 -106 39 -191 145 -191c79 0 116 37 116 87v20h-124v108zM374 646h-85
l-135 145h125l30 -31c17 -18 20 -30 20 -30h4s3 12 20 30l31 31h124z" />
    <glyph glyph-name="gcaron" unicode="&#x1e7;" horiz-adv-x="502" 
d="M240 473c52 0 97 -10 131 -29c20 20 25 33 35 70l105 -35c-5 -45 -46 -76 -84 -87c14 -22 21 -50 21 -82c0 -107 -94 -159 -212 -159c-22 0 -45 2 -56 6c-16 -10 -22 -23 -22 -38c0 -16 13 -28 37 -28h132c104 0 163 -56 163 -136c0 -132 -136 -166 -268 -166
c-114 0 -216 27 -216 116c0 54 39 87 122 93c-46 3 -75 41 -75 82c0 36 24 76 78 91c-63 25 -96 65 -96 139c0 107 82 163 205 163zM129 -69c0 -36 37 -53 108 -53c93 0 128 17 128 54c0 28 -17 39 -57 39h-114c-38 0 -65 -13 -65 -40zM170 310c0 -41 23 -71 70 -71
c46 0 71 25 71 71c0 49 -25 72 -71 72c-47 -1 -70 -26 -70 -72zM288 524h-84l-135 159h123l32 -35c19 -21 20 -33 20 -33h4s1 12 20 33l32 35h123z" />
    <glyph glyph-name="Kcaron" unicode="&#x1e8;" horiz-adv-x="581" 
d="M569 0h-162l-159 240h-35v-240h-136v589h136v-231h36l146 231h156l-186 -285zM329 646h-85l-135 145h125l30 -31c17 -18 20 -30 20 -30h4s3 12 20 30l31 31h124z" />
    <glyph glyph-name="kcaron" unicode="&#x1e9;" horiz-adv-x="519" 
d="M335 247l175 -247h-156l-130 190h-27v-190h-134v668h134v-374h25l118 168h155zM175 711h-85l-135 145h125l30 -31c17 -18 20 -30 20 -30h4s3 12 20 30l31 31h124z" />
    <glyph glyph-name="Oogonek" unicode="&#x1ea;" horiz-adv-x="641" 
d="M209 -99c0 42 17 72 40 94c-131 26 -208 130 -208 299c0 198 105 307 279 307s280 -109 280 -307c0 -182 -91 -289 -241 -303c-25 -12 -41 -33 -41 -64c0 -33 19 -51 49 -51c24 0 43 8 65 29l29 -67c-30 -34 -75 -49 -124 -49c-65 0 -128 31 -128 112zM320 480
c-92 0 -138 -71 -138 -188c0 -116 45 -187 138 -187s139 71 139 187c0 117 -46 188 -139 188z" />
    <glyph glyph-name="oogonek" unicode="&#x1eb;" horiz-adv-x="513" 
d="M135 -99c0 44 19 76 44 98c-90 28 -146 109 -146 233c0 157 89 241 224 241c134 0 223 -84 223 -241c0 -146 -78 -232 -197 -242c-24 -12 -40 -33 -40 -63c0 -33 20 -51 49 -51c25 0 44 8 66 29l29 -67c-31 -34 -76 -49 -124 -49c-65 0 -128 31 -128 112zM257 366
c-62 0 -92 -43 -92 -134c0 -96 29 -140 92 -140c62 0 91 44 91 140c0 91 -30 134 -91 134z" />
    <glyph glyph-name="oogonekmacron" unicode="&#x1ed;" horiz-adv-x="513" 
d="M404 539h-294v108h294v-108zM135 -99c0 44 19 76 44 98c-90 28 -146 109 -146 233c0 157 89 241 224 241c134 0 223 -84 223 -241c0 -146 -78 -232 -197 -242c-24 -12 -40 -33 -40 -63c0 -33 20 -51 49 -51c25 0 44 8 66 29l29 -67c-31 -34 -76 -49 -124 -49
c-65 0 -128 31 -128 112zM257 366c-62 0 -92 -43 -92 -134c0 -96 29 -140 92 -140c62 0 91 44 91 140c0 91 -30 134 -91 134z" />
    <glyph glyph-name="Ezhcaron" unicode="&#x1ee;" horiz-adv-x="502" 
d="M149 273l86 126c34 50 63 73 63 73v4s-28 -5 -80 -5h-179v118h422v-95l-178 -235v-3c136 -9 194 -105 194 -216c0 -134 -89 -219 -238 -219c-139 0 -229 63 -250 180l114 58c12 -89 62 -134 133 -134s110 42 110 111c0 79 -56 141 -197 145v92zM304 646h-85l-135 145h125
l30 -31c17 -18 20 -30 20 -30h4s3 12 20 30l31 31h124z" />
    <glyph glyph-name="ezhcaron" unicode="&#x1ef;" horiz-adv-x="429" 
d="M117 224l46 60c36 48 65 73 65 73v4s-30 -5 -82 -5h-117v106h355v-84l-146 -173v-3c106 -8 160 -82 160 -177c0 -114 -81 -178 -215 -178c-105 0 -180 50 -197 140l124 47c4 -56 40 -83 85 -83c42 0 73 29 73 70c0 48 -23 107 -151 121v82zM257 524h-84l-135 159h123
l32 -35c19 -21 20 -33 20 -33h4s1 12 20 33l32 35h123z" />
    <glyph glyph-name="jcaron" unicode="&#x1f0;" horiz-adv-x="259" 
d="M169 524h-84l-135 159h123l32 -35c19 -21 20 -33 20 -33h4s1 12 20 33l32 35h123zM63 462h133v-457c0 -153 -108 -218 -263 -207v113c85 -12 130 8 130 115v436z" />
    <glyph glyph-name="jcaron" unicode="&#xe10c;" horiz-adv-x="259" 
d="M169 524h-84l-135 159h123l32 -35c19 -21 20 -33 20 -33h4s1 12 20 33l32 35h123zM63 462h133v-457c0 -153 -108 -218 -263 -207v113c85 -12 130 8 130 115v436z" />
    <glyph glyph-name="Gacute" unicode="&#x1f4;" horiz-adv-x="629" 
d="M318 314h254v-314h-84l-22 66c-30 -53 -90 -78 -162 -78c-153 0 -263 97 -263 304c0 197 108 309 288 309c118 0 201 -55 240 -149l-131 -64c-19 62 -59 93 -114 93c-63 0 -143 -43 -143 -191c0 -106 39 -191 145 -191c79 0 116 37 116 87v20h-124v108zM384 647h-123
l64 143h168z" />
    <glyph glyph-name="gacute" unicode="&#x1f5;" horiz-adv-x="502" 
d="M240 473c52 0 97 -10 131 -29c20 20 25 33 35 70l105 -35c-5 -45 -46 -76 -84 -87c14 -22 21 -50 21 -82c0 -107 -94 -159 -212 -159c-22 0 -45 2 -56 6c-16 -10 -22 -23 -22 -38c0 -16 13 -28 37 -28h132c104 0 163 -56 163 -136c0 -132 -136 -166 -268 -166
c-114 0 -216 27 -216 116c0 54 39 87 122 93c-46 3 -75 41 -75 82c0 36 24 76 78 91c-63 25 -96 65 -96 139c0 107 82 163 205 163zM129 -69c0 -36 37 -53 108 -53c93 0 128 17 128 54c0 28 -17 39 -57 39h-114c-38 0 -65 -13 -65 -40zM170 310c0 -41 23 -71 70 -71
c46 0 71 25 71 71c0 49 -25 72 -71 72c-47 -1 -70 -26 -70 -72zM311 526h-122l70 153h168z" />
    <glyph glyph-name="aringacute" unicode="&#x1fb;" horiz-adv-x="501" 
d="M289 145v47c-94 3 -127 -22 -127 -63c0 -27 19 -46 51 -46c35 0 76 17 76 62zM421 320v-180c0 -31 13 -42 34 -42c11 0 20 3 29 7v-97c-19 -12 -44 -17 -76 -17c-59 0 -95 23 -110 73c-21 -57 -71 -76 -134 -76c-82 0 -136 48 -136 127c0 103 83 159 261 149v44
c0 40 -17 64 -54 64s-56 -25 -58 -68l-133 25c7 98 90 144 196 144c115 0 181 -50 181 -153zM242 501c-74 0 -115 50 -115 112c0 58 45 109 115 109s115 -51 115 -109c0 -62 -41 -112 -115 -112zM242 662c-31 0 -49 -21 -49 -50c0 -25 17 -48 49 -48s49 23 49 48
c0 29 -18 50 -49 50zM296 752h-123l64 143h168z" />
    <glyph glyph-name="AEacute" unicode="&#x1fc;" horiz-adv-x="876" 
d="M826 0h-395v123h-203l-77 -123h-149l351 589h473v-118h-259v-117h229v-113h-229v-123h259v-118zM433 490l-146 -254h144v94c0 102 6 160 6 160h-4zM615 647h-123l64 143h168z" />
    <glyph glyph-name="aeacute" unicode="&#x1fd;" horiz-adv-x="739" 
d="M510 96c30 0 61 13 81 59l114 -40c-24 -94 -108 -127 -198 -127c-71 0 -131 25 -170 72c-27 -44 -82 -72 -161 -72c-90 0 -148 46 -148 127c0 98 80 159 259 160c2 15 5 30 9 43c-5 36 -28 54 -60 54c-36 0 -55 -25 -57 -68l-134 25c7 98 93 144 199 144
c54 0 98 -14 128 -41c36 27 82 41 137 41c130 0 195 -92 195 -203c0 -28 -2 -49 -6 -69h-278c1 -58 28 -105 90 -105zM421 275h152c1 6 1 17 1 23c0 43 -22 76 -68 76c-52 0 -82 -47 -85 -99zM220 85c31 0 65 17 76 49c-6 21 -10 43 -11 67c-83 -2 -115 -26 -115 -66
c0 -31 18 -50 50 -50zM415 526h-122l70 153h168z" />
    <glyph glyph-name="Oslashacute" unicode="&#x1fe;" horiz-adv-x="641" 
d="M91 -12l-46 40l53 60c-37 50 -57 120 -57 206c0 198 105 307 279 307c74 0 135 -20 182 -58l47 54l48 -40l-53 -59c36 -51 56 -119 56 -204c0 -197 -106 -306 -280 -306c-73 0 -134 19 -180 56zM458 292c0 36 -5 68 -13 94l-218 -245c22 -23 53 -36 93 -36
c93 0 138 71 138 187zM320 480c-92 0 -137 -71 -137 -188c0 -36 4 -67 12 -94l218 245c-23 24 -54 37 -93 37zM374 647h-123l64 143h168z" />
    <glyph glyph-name="oslashacute" unicode="&#x1ff;" horiz-adv-x="513" 
d="M73 -15l-44 41l46 49c-27 40 -42 93 -42 157c0 157 89 241 224 241c57 0 106 -16 144 -46l43 47l47 -41l-49 -52c24 -39 38 -88 38 -149c0 -156 -89 -244 -223 -244c-56 0 -104 15 -141 43zM311 526h-122l70 153h168zM257 366c-62 0 -92 -43 -92 -134c0 -21 1 -39 4 -55
l151 163c-15 17 -36 26 -63 26zM348 232c0 16 -1 31 -3 44l-150 -160c15 -16 35 -24 62 -24c62 0 91 44 91 140z" />
    <glyph glyph-name="Ainvertedbreve" unicode="&#x202;" horiz-adv-x="616" 
d="M460 0l-43 123h-223l-42 -123h-142l213 589h168l215 -589h-146zM255 303l-23 -67h145l-24 66c-34 97 -46 168 -46 168h-4s-15 -72 -48 -167zM305 798c105 0 150 -58 150 -148h-99c-1 36 -12 54 -51 54c-38 0 -50 -18 -51 -54h-99c0 90 45 148 150 148z" />
    <glyph glyph-name="ainvertedbreve" unicode="&#x203;" horiz-adv-x="501" 
d="M289 145v47c-94 3 -127 -22 -127 -63c0 -27 19 -46 51 -46c35 0 76 17 76 62zM421 320v-180c0 -31 13 -42 34 -42c11 0 20 3 29 7v-97c-19 -12 -44 -17 -76 -17c-59 0 -95 23 -110 73c-21 -57 -71 -76 -134 -76c-82 0 -136 48 -136 127c0 103 83 159 261 149v44
c0 40 -17 64 -54 64s-56 -25 -58 -68l-133 25c7 98 90 144 196 144c115 0 181 -50 181 -153zM237 686c105 0 150 -70 150 -158h-99c-1 38 -8 62 -51 62c-42 0 -50 -24 -51 -62h-99c0 88 45 158 150 158z" />
    <glyph glyph-name="Einvertedbreve" unicode="&#x206;" horiz-adv-x="522" 
d="M472 118v-118h-395v589h395v-118h-259v-117h228v-113h-228v-123h259zM270 798c105 0 150 -58 150 -148h-99c-1 36 -12 54 -51 54c-38 0 -50 -18 -51 -54h-99c0 90 45 148 150 148z" />
    <glyph glyph-name="einvertedbreve" unicode="&#x207;" horiz-adv-x="488" 
d="M259 91c36 0 66 14 81 63l114 -39c-24 -94 -107 -127 -198 -127c-132 0 -223 87 -223 236c0 159 86 249 225 249c131 0 195 -86 195 -205c0 -20 -2 -41 -6 -60h-285c3 -71 36 -117 97 -117zM166 282h159c1 6 1 10 1 16c0 43 -25 76 -73 76c-50 0 -82 -38 -87 -92z
M254 686c105 0 150 -70 150 -158h-99c-1 38 -8 62 -51 62c-42 0 -50 -24 -51 -62h-99c0 88 45 158 150 158z" />
    <glyph glyph-name="Iinvertedbreve" unicode="&#x20a;" horiz-adv-x="290" 
d="M77 589h136v-589h-136v589zM145 798c105 0 150 -58 150 -148h-99c-1 36 -12 54 -51 54c-38 0 -50 -18 -51 -54h-99c0 90 45 148 150 148z" />
    <glyph glyph-name="iinvertedbreve" unicode="&#x20b;" horiz-adv-x="260" 
d="M63 462h134v-462h-134v462zM130 686c105 0 150 -70 150 -158h-99c-1 38 -8 62 -51 62c-42 0 -50 -24 -51 -62h-99c0 88 45 158 150 158z" />
    <glyph glyph-name="Oinvertedbreve" unicode="&#x20e;" horiz-adv-x="641" 
d="M320 -12c-174 0 -279 109 -279 306c0 198 105 307 279 307s280 -109 280 -307c0 -197 -106 -306 -280 -306zM320 480c-92 0 -138 -71 -138 -188c0 -116 45 -187 138 -187s139 71 139 187c0 117 -46 188 -139 188zM320 798c105 0 150 -58 150 -148h-99
c-1 36 -12 54 -51 54c-38 0 -50 -18 -51 -54h-99c0 90 45 148 150 148z" />
    <glyph glyph-name="oinvertedbreve" unicode="&#x20f;" horiz-adv-x="513" 
d="M257 -12c-135 0 -224 88 -224 244c0 157 89 241 224 241c134 0 223 -84 223 -241c0 -156 -89 -244 -223 -244zM257 366c-62 0 -92 -43 -92 -134c0 -96 29 -140 92 -140c62 0 91 44 91 140c0 91 -30 134 -91 134zM256 686c105 0 150 -70 150 -158h-99c-1 38 -8 62 -51 62
c-42 0 -50 -24 -51 -62h-99c0 88 45 158 150 158z" />
    <glyph glyph-name="Rinvertedbreve" unicode="&#x212;" horiz-adv-x="582" 
d="M555 0h-151c-18 14 -25 36 -31 61l-22 88c-12 50 -35 59 -80 59h-58v-208h-136v589h232c132 0 214 -48 214 -180c0 -91 -53 -140 -129 -148v-2c54 -9 83 -32 98 -86l30 -110c6 -23 14 -43 33 -63zM213 474v-154h87c54 0 84 21 84 77c0 50 -28 77 -84 77h-87zM278 798
c105 0 150 -58 150 -148h-99c-1 36 -12 54 -51 54c-38 0 -50 -18 -51 -54h-99c0 90 45 148 150 148z" />
    <glyph glyph-name="rinvertedbreve" unicode="&#x213;" horiz-adv-x="394" 
d="M382 472l-15 -148c-17 6 -31 8 -52 8c-53 0 -118 -26 -118 -121v-211h-134v462h116l16 -127c20 80 65 144 187 137zM222 686c105 0 150 -70 150 -158h-99c-1 38 -8 62 -51 62c-42 0 -50 -24 -51 -62h-99c0 88 45 158 150 158z" />
    <glyph glyph-name="Uinvertedbreve" unicode="&#x216;" horiz-adv-x="608" 
d="M412 589h135v-392c0 -159 -112 -209 -243 -209c-130 0 -243 50 -243 209v392h136v-354c0 -84 22 -134 107 -134c86 0 108 50 108 135v353zM304 798c105 0 150 -58 150 -148h-99c-1 36 -12 54 -51 54c-38 0 -50 -18 -51 -54h-99c0 90 45 148 150 148z" />
    <glyph glyph-name="uinvertedbreve" unicode="&#x217;" horiz-adv-x="531" 
d="M352 0l-16 86c-16 -63 -58 -98 -143 -98c-82 0 -139 42 -139 149v325h134v-287c0 -55 17 -86 63 -86s83 36 83 125v248h134v-462h-116zM261 686c105 0 150 -70 150 -158h-99c-1 38 -8 62 -51 62c-42 0 -50 -24 -51 -62h-99c0 88 45 158 150 158z" />
    <glyph glyph-name="Scommaaccent" unicode="&#x218;" horiz-adv-x="515" 
d="M22 132l124 55c11 -58 54 -95 110 -95c45 0 78 18 78 58c0 38 -21 56 -98 80c-135 43 -191 94 -191 195c0 133 104 177 207 177c121 0 211 -41 223 -153l-135 -34c-5 52 -44 75 -85 75c-38 0 -68 -17 -68 -55c0 -41 32 -57 101 -78c124 -39 187 -81 187 -194
c0 -128 -104 -175 -229 -175c-116 0 -194 38 -224 144zM345 -141c0 -81 -54 -114 -143 -114v45c43 1 66 10 66 39c-37 -7 -72 12 -72 55c0 44 32 65 70 65c46 0 79 -36 79 -90z" />
    <glyph glyph-name="scommaaccent" unicode="&#x219;" horiz-adv-x="445" 
d="M18 107l110 44c10 -50 46 -69 90 -69c37 0 63 13 63 40c0 26 -18 38 -59 48l-68 16c-81 21 -118 67 -118 137c0 117 93 150 188 150c110 0 176 -40 183 -130l-125 -18c-5 37 -26 49 -64 49c-31 0 -52 -14 -52 -38c0 -23 14 -36 45 -42l65 -14c94 -20 138 -70 138 -149
c0 -103 -85 -143 -198 -143c-114 0 -180 32 -198 119zM299 -141c0 -81 -54 -114 -143 -114v45c43 1 66 10 66 39c-37 -7 -72 12 -72 55c0 44 32 65 70 65c46 0 79 -36 79 -90z" />
    <glyph glyph-name="dotlessj" unicode="&#x237;" horiz-adv-x="259" 
d="M63 462h133v-457c0 -153 -108 -218 -263 -207v113c85 -12 130 8 130 115v436z" />
    <glyph glyph-name="schwa" unicode="&#x259;" horiz-adv-x="488" 
d="M230 365c-33 0 -63 -15 -82 -62l-114 37c24 94 107 133 198 133c132 0 223 -87 223 -236c0 -159 -85 -249 -225 -249c-130 0 -195 86 -195 205c0 19 2 40 6 60h278c-1 66 -30 112 -89 112zM318 177h-153c-1 -5 -1 -10 -1 -15c0 -43 23 -76 69 -76c52 0 81 39 85 91z" />
    <glyph glyph-name="ezh" unicode="&#x292;" horiz-adv-x="429" 
d="M117 224l46 60c36 48 65 73 65 73v4s-30 -5 -82 -5h-117v106h355v-84l-146 -173v-3c106 -8 160 -82 160 -177c0 -114 -81 -178 -215 -178c-105 0 -180 50 -197 140l124 47c4 -56 40 -83 85 -83c42 0 73 29 73 70c0 48 -23 107 -151 121v82z" />
    <glyph glyph-name="caron" unicode="&#x2c7;" horiz-adv-x="514" 
d="M299 524h-84l-135 159h123l32 -35c19 -21 20 -33 20 -33h4s1 12 20 33l32 35h123z" />
    <glyph glyph-name="breve" unicode="&#x2d8;" horiz-adv-x="460" 
d="M230 520c-105 0 -150 70 -150 158h99c1 -38 9 -62 51 -62c43 0 50 24 51 62h99c0 -88 -45 -158 -150 -158z" />
    <glyph glyph-name="dotaccent" unicode="&#x2d9;" horiz-adv-x="325" 
d="M80 598c0 51 37 78 81 78c49 0 84 -27 84 -78c0 -49 -35 -76 -84 -76c-44 0 -81 27 -81 76z" />
    <glyph glyph-name="ring" unicode="&#x2da;" horiz-adv-x="390" 
d="M195 506c-74 0 -115 50 -115 112c0 58 45 109 115 109s115 -51 115 -109c0 -62 -41 -112 -115 -112zM195 667c-31 0 -49 -21 -49 -50c0 -25 17 -48 49 -48s49 23 49 48c0 29 -18 50 -49 50z" />
    <glyph glyph-name="ogonek" unicode="&#x2db;" horiz-adv-x="410" 
d="M68 -99c0 112 122 143 167 145l34 -46c-51 0 -93 -25 -93 -73c0 -33 20 -51 50 -51c24 0 43 8 65 29l29 -67c-31 -34 -75 -49 -124 -49c-65 0 -128 31 -128 112z" />
    <glyph glyph-name="hungarumlaut" unicode="&#x2dd;" horiz-adv-x="546" 
d="M175 526h-95l52 153h141zM350 526h-104l70 153h150z" />
    <glyph glyph-name="uni0312" unicode="&#x312;" horiz-adv-x="309" 
d="M80 735c0 81 54 114 143 114v-45c-43 -1 -66 -10 -66 -39c37 7 72 -12 72 -55c0 -44 -31 -65 -70 -65c-46 0 -79 36 -79 90z" />
    <glyph glyph-name="uni0320" unicode="&#x320;" horiz-adv-x="454" 
d="M374 -192h-294v107h294v-107z" />
    <glyph glyph-name="uni0323" unicode="&#x323;" horiz-adv-x="325" 
d="M80 -127c0 51 36 78 81 78c48 0 84 -27 84 -78c0 -49 -36 -76 -84 -76c-45 0 -81 27 -81 76z" />
    <glyph glyph-name="uni0329" unicode="&#x329;" horiz-adv-x="291" 
d="M80 -214v171h131v-161z" />
    <glyph glyph-name="pi" unicode="&#x3c0;" horiz-adv-x="706" 
d="M159 481h469v-100h-98v-231c0 -35 11 -51 38 -51c28 0 47 17 64 46l44 -80c-25 -56 -74 -77 -141 -77c-87 0 -140 35 -140 152v241h-86l-48 -381h-135l50 381h-12c-31 0 -49 -18 -53 -65h-101c0 85 30 165 149 165z" />
    <glyph glyph-name="uni0E3F" unicode="&#xe3f;" horiz-adv-x="570" 
d="M270 -106v106h-188v481h188v93h50v-93h29c97 0 158 -40 158 -121c0 -60 -29 -101 -97 -112v-4c74 -8 118 -48 118 -113c0 -90 -61 -131 -179 -131h-29v-106h-50zM325 201h-5v-109h3c47 0 72 12 72 56c0 31 -16 53 -70 53zM217 282h53v110h-53v-110zM217 201v-109h53v109
h-53zM379 337c0 36 -22 53 -59 55v-110c39 0 59 18 59 55z" />
    <glyph glyph-name="Ddotbelow" unicode="&#x1e0c;" horiz-adv-x="622" 
d="M213 115h59c105 0 167 44 167 178c0 140 -62 181 -159 181h-67v-359zM285 0h-208v589h217c163 0 287 -81 287 -288c0 -218 -127 -301 -296 -301zM205 -132c0 51 36 78 81 78c48 0 84 -27 84 -78c0 -49 -36 -76 -84 -76c-45 0 -81 27 -81 76z" />
    <glyph glyph-name="ddotbelow" unicode="&#x1e0d;" 
d="M361 192v86c0 68 -44 96 -90 96c-53 0 -104 -38 -104 -147c0 -87 39 -136 102 -136c46 0 92 34 92 101zM360 401v267h134v-668h-116l-17 80c-17 -70 -75 -92 -144 -92c-102 0 -184 81 -184 233c0 158 74 252 206 252c59 0 109 -28 121 -72zM181 -132c0 51 36 78 81 78
c48 0 84 -27 84 -78c0 -49 -36 -76 -84 -76c-45 0 -81 27 -81 76z" />
    <glyph glyph-name="Dcedilla" unicode="&#x1e10;" horiz-adv-x="622" 
d="M394 -118c0 -63 -51 -93 -115 -93c-47 0 -86 15 -105 36l25 64c21 -24 43 -35 65 -35c19 0 30 8 30 26c0 22 -15 36 -51 40l9 80h-175v589h217c163 0 287 -81 287 -288c0 -208 -115 -293 -272 -301l-3 -36c59 -4 88 -31 88 -82zM213 115h59c105 0 167 44 167 178
c0 140 -62 181 -159 181h-67v-359z" />
    <glyph glyph-name="dcedilla" unicode="&#x1e11;" 
d="M370 -118c0 -63 -51 -93 -115 -93c-47 0 -86 15 -105 36l25 64c21 -24 43 -35 65 -35c19 0 30 8 30 26c0 22 -15 36 -51 40l7 68h-9c-102 0 -184 81 -184 233c0 158 74 252 206 252c59 0 109 -28 121 -72v267h134v-668h-116l-17 80c-11 -45 -39 -71 -76 -82l-3 -34
c59 -4 88 -31 88 -82zM361 192v86c0 68 -44 96 -90 96c-53 0 -104 -38 -104 -147c0 -87 39 -136 102 -136c46 0 92 34 92 101z" />
    <glyph glyph-name="Hdotbelow" unicode="&#x1e24;" horiz-adv-x="652" 
d="M213 0h-136v589h136v-231h226v231h136v-589h-136v240h-226v-240zM244 -132c0 51 36 78 81 78c48 0 84 -27 84 -78c0 -49 -36 -76 -84 -76c-45 0 -81 27 -81 76z" />
    <glyph glyph-name="hdotbelow" unicode="&#x1e25;" horiz-adv-x="535" 
d="M197 668v-294c24 68 73 99 144 99s136 -42 136 -146v-327h-134v277c0 51 -14 84 -62 84c-43 0 -84 -24 -84 -106v-255h-134v668h134zM188 -132c0 51 36 78 81 78c48 0 84 -27 84 -78c0 -49 -36 -76 -84 -76c-45 0 -81 27 -81 76z" />
    <glyph glyph-name="Ldotbelow" unicode="&#x1e36;" horiz-adv-x="471" 
d="M77 589h136v-471h230v-118h-366v589zM178 -132c0 51 36 78 81 78c48 0 84 -27 84 -78c0 -49 -36 -76 -84 -76c-45 0 -81 27 -81 76z" />
    <glyph glyph-name="ldotbelow" unicode="&#x1e37;" horiz-adv-x="289" 
d="M266 115l-7 -112c-26 -7 -51 -12 -77 -12c-67 0 -128 31 -128 118v559h134v-520c0 -29 18 -40 42 -40c12 0 24 2 36 7zM78 -132c0 51 36 78 81 78c48 0 84 -27 84 -78c0 -49 -36 -76 -84 -76c-45 0 -81 27 -81 76z" />
    <glyph glyph-name="ldotbelowmacron" unicode="&#x1e39;" horiz-adv-x="289" 
d="M266 115l-7 -112c-26 -7 -51 -12 -77 -12c-67 0 -128 31 -128 118v559h134v-520c0 -29 18 -40 42 -40c12 0 24 2 36 7zM78 -132c0 51 36 78 81 78c48 0 84 -27 84 -78c0 -49 -36 -76 -84 -76c-45 0 -81 27 -81 76zM276 732h-301v108h301v-108z" />
    <glyph glyph-name="Mdotbelow" unicode="&#x1e42;" horiz-adv-x="739" 
d="M402 136h-65l-81 135c-31 49 -45 90 -45 90h-4s6 -33 6 -100v-261h-136v589h138l111 -199c34 -58 42 -86 42 -86h4s9 28 42 86l112 199h136v-589h-135v261c0 67 5 100 5 100h-4s-14 -41 -44 -90zM288 -132c0 51 36 78 81 78c48 0 84 -27 84 -78c0 -49 -36 -76 -84 -76
c-45 0 -81 27 -81 76z" />
    <glyph glyph-name="mdotbelow" unicode="&#x1e43;" horiz-adv-x="797" 
d="M457 372c25 69 81 101 150 101c75 0 132 -42 132 -145v-328h-134v277c0 51 -14 84 -61 84c-41 0 -76 -26 -76 -106v-255h-134v277c0 51 -13 84 -61 84c-42 0 -76 -26 -76 -107v-254h-134v462h114l16 -89c25 70 74 100 142 100c59 0 110 -24 122 -101zM319 -132
c0 51 36 78 81 78c48 0 84 -27 84 -78c0 -49 -36 -76 -84 -76c-45 0 -81 27 -81 76z" />
    <glyph glyph-name="Ndotaccent" unicode="&#x1e44;" horiz-adv-x="676" 
d="M205 589l208 -285c33 -45 49 -79 49 -79h4s-3 50 -3 125v239h136v-589h-124l-208 280c-38 50 -56 87 -56 87h-4s6 -48 6 -133v-234h-136v589h128zM256 722c0 51 36 78 81 78c48 0 84 -27 84 -78c0 -49 -36 -76 -84 -76c-45 0 -81 27 -81 76z" />
    <glyph glyph-name="ndotaccent" unicode="&#x1e45;" horiz-adv-x="535" 
d="M177 462l16 -89c25 69 77 100 148 100s136 -42 136 -146v-327h-134v277c0 51 -14 84 -62 84c-43 0 -84 -24 -84 -107v-254h-134v462h114zM189 595c0 51 37 78 81 78c49 0 84 -27 84 -78c0 -49 -35 -76 -84 -76c-44 0 -81 27 -81 76z" />
    <glyph glyph-name="Ndotbelow" unicode="&#x1e46;" horiz-adv-x="676" 
d="M205 589l208 -285c33 -45 49 -79 49 -79h4s-3 50 -3 125v239h136v-589h-124l-208 280c-38 50 -56 87 -56 87h-4s6 -48 6 -133v-234h-136v589h128zM256 -132c0 51 36 78 81 78c48 0 84 -27 84 -78c0 -49 -36 -76 -84 -76c-45 0 -81 27 -81 76z" />
    <glyph glyph-name="ndotbelow" unicode="&#x1e47;" horiz-adv-x="535" 
d="M177 462l16 -89c25 69 77 100 148 100s136 -42 136 -146v-327h-134v277c0 51 -14 84 -62 84c-43 0 -84 -24 -84 -107v-254h-134v462h114zM189 -132c0 51 36 78 81 78c48 0 84 -27 84 -78c0 -49 -36 -76 -84 -76c-45 0 -81 27 -81 76z" />
    <glyph glyph-name="Rdotbelow" unicode="&#x1e5a;" horiz-adv-x="582" 
d="M555 0h-151c-18 14 -25 36 -31 61l-22 88c-12 50 -35 59 -80 59h-58v-208h-136v589h232c132 0 214 -48 214 -180c0 -91 -53 -140 -129 -148v-2c54 -9 83 -32 98 -86l30 -110c6 -23 14 -43 33 -63zM213 474v-154h87c54 0 84 21 84 77c0 50 -28 77 -84 77h-87zM196 -132
c0 51 36 78 81 78c48 0 84 -27 84 -78c0 -49 -36 -76 -84 -76c-45 0 -81 27 -81 76z" />
    <glyph glyph-name="rdotbelow" unicode="&#x1e5b;" horiz-adv-x="394" 
d="M382 472l-15 -148c-17 6 -31 8 -52 8c-53 0 -118 -26 -118 -121v-211h-134v462h116l16 -127c20 80 65 144 187 137zM47 -132c0 51 36 78 81 78c48 0 84 -27 84 -78c0 -49 -36 -76 -84 -76c-45 0 -81 27 -81 76z" />
    <glyph glyph-name="Rdotbelowmacron" unicode="&#x1e5c;" horiz-adv-x="582" 
d="M555 0h-151c-18 14 -25 36 -31 61l-22 88c-12 50 -35 59 -80 59h-58v-208h-136v589h232c132 0 214 -48 214 -180c0 -91 -53 -140 -129 -148v-2c54 -9 83 -32 98 -86l30 -110c6 -23 14 -43 33 -63zM213 474v-154h87c54 0 84 21 84 77c0 50 -28 77 -84 77h-87zM196 -132
c0 51 36 78 81 78c48 0 84 -27 84 -78c0 -49 -36 -76 -84 -76c-45 0 -81 27 -81 76zM428 664h-301v108h301v-108z" />
    <glyph glyph-name="rdotbelowmacron" unicode="&#x1e5d;" horiz-adv-x="394" 
d="M382 472l-15 -148c-17 6 -31 8 -52 8c-53 0 -118 -26 -118 -121v-211h-134v462h116l16 -127c20 80 65 144 187 137zM370 539h-294v108h294v-108zM48 -132c0 51 36 78 81 78c48 0 84 -27 84 -78c0 -49 -36 -76 -84 -76c-45 0 -81 27 -81 76z" />
    <glyph glyph-name="Sdotbelow" unicode="&#x1e62;" horiz-adv-x="515" 
d="M22 132l124 55c11 -58 54 -95 110 -95c45 0 78 18 78 58c0 38 -21 56 -98 80c-135 43 -191 94 -191 195c0 133 104 177 207 177c121 0 211 -41 223 -153l-135 -34c-5 52 -44 75 -85 75c-38 0 -68 -17 -68 -55c0 -41 32 -57 101 -78c124 -39 187 -81 187 -194
c0 -128 -104 -175 -229 -175c-116 0 -194 38 -224 144zM179 -132c0 51 36 78 81 78c48 0 84 -27 84 -78c0 -49 -36 -76 -84 -76c-45 0 -81 27 -81 76z" />
    <glyph glyph-name="sdotbelow" unicode="&#x1e63;" horiz-adv-x="445" 
d="M18 107l110 44c10 -50 46 -69 90 -69c37 0 63 13 63 40c0 26 -18 38 -59 48l-68 16c-81 21 -118 67 -118 137c0 117 93 150 188 150c110 0 176 -40 183 -130l-125 -18c-5 37 -26 49 -64 49c-31 0 -52 -14 -52 -38c0 -23 14 -36 45 -42l65 -14c94 -20 138 -70 138 -149
c0 -103 -85 -143 -198 -143c-114 0 -180 32 -198 119zM141 -132c0 51 36 78 81 78c48 0 84 -27 84 -78c0 -49 -36 -76 -84 -76c-45 0 -81 27 -81 76z" />
    <glyph glyph-name="Tdotbelow" unicode="&#x1e6c;" horiz-adv-x="479" 
d="M305 0h-134v471h-161v118h459v-118h-164v-471zM157 -132c0 51 36 78 81 78c48 0 84 -27 84 -78c0 -49 -36 -76 -84 -76c-45 0 -81 27 -81 76z" />
    <glyph glyph-name="tdotbelow" unicode="&#x1e6d;" horiz-adv-x="386" 
d="M348 131l23 -113c-39 -20 -87 -30 -142 -30c-92 0 -152 43 -152 149v222h-67v103h68v98l134 16v-114h137v-103h-138v-192c0 -49 19 -65 56 -65c29 0 54 10 81 29zM114 -132c0 51 36 78 81 78c48 0 84 -27 84 -78c0 -49 -36 -76 -84 -76c-45 0 -81 27 -81 76z" />
    <glyph glyph-name="Wgrave" unicode="&#x1e80;" horiz-adv-x="873" 
d="M521 589l73 -324c18 -84 28 -167 28 -167h4s8 84 25 166l66 325h138l-129 -589h-198l-67 291c-19 83 -23 165 -23 165h-4s-5 -82 -25 -166l-70 -290h-191l-130 589h144l68 -324c18 -84 27 -167 27 -167h4s9 84 26 166l72 325h162zM505 647h-122l-110 143h168z" />
    <glyph glyph-name="wgrave" unicode="&#x1e81;" horiz-adv-x="721" 
d="M423 462l51 -183c26 -93 31 -180 31 -180h4s4 85 26 178l43 185h133l-120 -462h-159l-45 165c-19 74 -24 149 -24 149h-4s-5 -74 -24 -150l-40 -164h-158l-127 462h136l48 -184c24 -93 29 -179 29 -179h4s5 87 27 180l47 183h122zM430 526h-121l-117 153h168z" />
    <glyph glyph-name="Wacute" unicode="&#x1e82;" horiz-adv-x="873" 
d="M521 589l73 -324c18 -84 28 -167 28 -167h4s8 84 25 166l66 325h138l-129 -589h-198l-67 291c-19 83 -23 165 -23 165h-4s-5 -82 -25 -166l-70 -290h-191l-130 589h144l68 -324c18 -84 27 -167 27 -167h4s9 84 26 166l72 325h162zM490 647h-123l64 143h168z" />
    <glyph glyph-name="wacute" unicode="&#x1e83;" horiz-adv-x="721" 
d="M423 462l51 -183c26 -93 31 -180 31 -180h4s4 85 26 178l43 185h133l-120 -462h-159l-45 165c-19 74 -24 149 -24 149h-4s-5 -74 -24 -150l-40 -164h-158l-127 462h136l48 -184c24 -93 29 -179 29 -179h4s5 87 27 180l47 183h122zM413 526h-122l70 153h168z" />
    <glyph glyph-name="Wdieresis" unicode="&#x1e84;" horiz-adv-x="873" 
d="M521 589l73 -324c18 -84 28 -167 28 -167h4s8 84 25 166l66 325h138l-129 -589h-198l-67 291c-19 83 -23 165 -23 165h-4s-5 -82 -25 -166l-70 -290h-191l-130 589h144l68 -324c18 -84 27 -167 27 -167h4s9 84 26 166l72 325h162zM250 723c0 50 34 75 74 75
c44 0 76 -25 76 -75c0 -48 -32 -75 -76 -75c-40 0 -74 27 -74 75zM468 723c0 50 34 75 74 75c43 0 76 -25 76 -75c0 -49 -33 -75 -76 -75c-40 0 -74 26 -74 75z" />
    <glyph glyph-name="wdieresis" unicode="&#x1e85;" horiz-adv-x="721" 
d="M423 462l51 -183c26 -93 31 -180 31 -180h4s4 85 26 178l43 185h133l-120 -462h-159l-45 165c-19 74 -24 149 -24 149h-4s-5 -74 -24 -150l-40 -164h-158l-127 462h136l48 -184c24 -93 29 -179 29 -179h4s5 87 27 180l47 183h122zM174 596c0 50 34 75 74 75
c44 0 76 -25 76 -75c0 -48 -32 -75 -76 -75c-40 0 -74 27 -74 75zM392 596c0 50 34 75 74 75c43 0 76 -25 76 -75c0 -49 -33 -75 -76 -75c-40 0 -74 26 -74 75z" />
    <glyph glyph-name="Idotbelow" unicode="&#x1eca;" horiz-adv-x="290" 
d="M77 589h136v-589h-136v589zM63 -132c0 51 36 78 81 78c48 0 84 -27 84 -78c0 -49 -36 -76 -84 -76c-45 0 -81 27 -81 76z" />
    <glyph glyph-name="idotbelow" unicode="&#x1ecb;" horiz-adv-x="260" 
d="M49 603c0 51 36 78 81 78c47 0 83 -27 83 -78c0 -49 -36 -76 -83 -76c-45 0 -81 27 -81 76zM63 462h134v-462h-134v462zM49 -132c0 51 36 78 81 78c48 0 84 -27 84 -78c0 -49 -36 -76 -84 -76c-45 0 -81 27 -81 76z" />
    <glyph glyph-name="Odotbelow" unicode="&#x1ecc;" horiz-adv-x="641" 
d="M320 -12c-174 0 -279 109 -279 306c0 198 105 307 279 307s280 -109 280 -307c0 -197 -106 -306 -280 -306zM320 480c-92 0 -138 -71 -138 -188c0 -116 45 -187 138 -187s139 71 139 187c0 117 -46 188 -139 188zM238 -132c0 51 36 78 81 78c48 0 84 -27 84 -78
c0 -49 -36 -76 -84 -76c-45 0 -81 27 -81 76z" />
    <glyph glyph-name="odotbelow" unicode="&#x1ecd;" horiz-adv-x="513" 
d="M257 -12c-135 0 -224 88 -224 244c0 157 89 241 224 241c134 0 223 -84 223 -241c0 -156 -89 -244 -223 -244zM257 366c-62 0 -92 -43 -92 -134c0 -96 29 -140 92 -140c62 0 91 44 91 140c0 91 -30 134 -91 134zM175 -132c0 51 36 78 81 78c48 0 84 -27 84 -78
c0 -49 -36 -76 -84 -76c-45 0 -81 27 -81 76z" />
    <glyph glyph-name="Udotbelow" unicode="&#x1ee4;" horiz-adv-x="608" 
d="M412 589h135v-392c0 -159 -112 -209 -243 -209c-130 0 -243 50 -243 209v392h136v-354c0 -84 22 -134 107 -134c86 0 108 50 108 135v353zM222 -132c0 51 36 78 81 78c48 0 84 -27 84 -78c0 -49 -36 -76 -84 -76c-45 0 -81 27 -81 76z" />
    <glyph glyph-name="udotbelow" unicode="&#x1ee5;" horiz-adv-x="531" 
d="M352 0l-16 86c-16 -63 -58 -98 -143 -98c-82 0 -139 42 -139 149v325h134v-287c0 -55 17 -86 63 -86s83 36 83 125v248h134v-462h-116zM179 -132c0 51 36 78 81 78c48 0 84 -27 84 -78c0 -49 -36 -76 -84 -76c-45 0 -81 27 -81 76z" />
    <glyph glyph-name="Ygrave" unicode="&#x1ef2;" horiz-adv-x="545" 
d="M164 589l69 -140c37 -79 44 -128 44 -128h4s6 51 43 127l68 141h143l-188 -393v-196h-136v196l-201 393h154zM341 647h-122l-110 143h168z" />
    <glyph glyph-name="ygrave" unicode="&#x1ef3;" horiz-adv-x="484" 
d="M148 462l60 -210c26 -91 32 -149 32 -149h4s6 59 33 148l64 211h141l-183 -503c-52 -143 -116 -167 -211 -167c-27 0 -58 5 -83 11l20 118c17 -10 38 -16 61 -16c42 0 68 18 87 69l-171 488h146zM312 526h-121l-117 153h168z" />
    <glyph glyph-name="Ytilde" unicode="&#x1ef8;" horiz-adv-x="545" 
d="M164 589l69 -140c37 -79 44 -128 44 -128h4s6 51 43 127l68 141h143l-188 -393v-196h-136v196l-201 393h154zM348 649c-34 0 -49 7 -74 22c-29 17 -42 25 -58 25c-20 0 -36 -15 -31 -49h-74c-37 77 8 157 87 157c29 0 47 -9 68 -21c30 -17 44 -27 62 -27
c19 0 31 10 26 46h78c35 -81 -4 -153 -84 -153z" />
    <glyph glyph-name="ytilde" unicode="&#x1ef9;" horiz-adv-x="484" 
d="M148 462l60 -210c26 -91 32 -149 32 -149h4s6 59 33 148l64 211h141l-183 -503c-52 -143 -116 -167 -211 -167c-27 0 -58 5 -83 11l20 118c17 -10 38 -16 61 -16c42 0 68 18 87 69l-171 488h146zM320 521c-34 0 -49 8 -74 23c-29 16 -42 25 -58 25c-20 0 -36 -15 -31 -49
h-74c-37 76 8 156 87 156c29 0 47 -8 68 -20c30 -18 44 -28 62 -28c19 0 31 11 26 46h78c35 -81 -4 -153 -84 -153z" />
    <glyph glyph-name="enspace" unicode="&#x2002;" horiz-adv-x="450" 
 />
    <glyph glyph-name="emspace" unicode="&#x2003;" horiz-adv-x="900" 
 />
    <glyph glyph-name="threeperemspace" unicode="&#x2004;" horiz-adv-x="300" 
 />
    <glyph glyph-name="fourperemspace" unicode="&#x2005;" horiz-adv-x="225" 
 />
    <glyph glyph-name="sixperemspace" unicode="&#x2006;" horiz-adv-x="150" 
 />
    <glyph glyph-name="figurespace" unicode="&#x2007;" horiz-adv-x="513" 
 />
    <glyph glyph-name="punctuationspace" unicode="&#x2008;" horiz-adv-x="171" 
 />
    <glyph glyph-name="thinspace" unicode="&#x2009;" horiz-adv-x="90" 
 />
    <glyph glyph-name="hairspace" unicode="&#x200a;" horiz-adv-x="45" 
 />
    <glyph glyph-name="zerowidthspace" unicode="&#x200b;" horiz-adv-x="0" 
 />
    <glyph glyph-name="figuredash" unicode="&#x2012;" horiz-adv-x="583" 
d="M62 210v89h459v-89h-459z" />
    <glyph glyph-name="uni2015" unicode="&#x2015;" horiz-adv-x="1250" 
d="M62 210v89h1126v-89h-1126z" />
    <glyph glyph-name="fraction" unicode="&#x2044;" horiz-adv-x="170" 
d="M-108 0l305 589h81l-307 -589h-79z" />
    <glyph glyph-name="uni2070" unicode="&#x2070;" horiz-adv-x="359" 
d="M179 229c-105 0 -152 80 -152 184s54 184 152 184c99 0 153 -80 153 -184s-47 -184 -153 -184zM179 512c-34 0 -55 -39 -55 -101c0 -59 22 -100 55 -100c35 0 56 41 56 100c0 62 -20 101 -56 101z" />
    <glyph glyph-name="uni2074" unicode="&#x2074;" horiz-adv-x="354" 
d="M185 236v70h-174v67l177 216h96v-212h50v-71h-50v-70h-99zM187 375v65c0 35 5 71 5 71h-4s-9 -25 -29 -51l-32 -40c-22 -27 -47 -47 -47 -47v-4s21 6 56 6h51z" />
    <glyph glyph-name="uni2075" unicode="&#x2075;" horiz-adv-x="328" 
d="M42 383l9 206h231v-81h-155l-4 -67c14 16 40 24 71 24c63 0 108 -42 108 -112c0 -85 -66 -124 -150 -124c-79 0 -129 29 -140 84l85 39c4 -28 24 -50 57 -50c31 0 54 16 54 50c0 30 -18 48 -44 48c-20 0 -32 -7 -40 -17h-82z" />
    <glyph glyph-name="uni2076" unicode="&#x2076;" horiz-adv-x="342" 
d="M310 539l-67 -55c-10 22 -28 34 -54 34c-42 0 -70 -33 -70 -114h4c11 35 42 55 87 55c65 0 107 -45 107 -110c0 -73 -52 -120 -141 -120c-95 0 -149 60 -149 176c0 130 76 192 165 192c49 0 89 -15 118 -58zM135 348c0 -28 21 -46 48 -46s48 18 48 46c0 29 -21 48 -47 48
c-28 0 -49 -19 -49 -48z" />
    <glyph glyph-name="uni2077" unicode="&#x2077;" horiz-adv-x="321" 
d="M201 508h-103v-55h-82v136h291v-71l-133 -282h-106z" />
    <glyph glyph-name="uni2078" unicode="&#x2078;" horiz-adv-x="344" 
d="M172 381c-24 0 -46 -11 -46 -41c0 -24 18 -40 46 -40s46 16 46 40c0 30 -23 41 -46 41zM172 229c-86 0 -144 33 -144 100c0 43 27 76 82 84v4c-50 5 -72 42 -72 77c0 64 49 103 134 103c84 0 134 -39 134 -103c0 -35 -22 -72 -72 -77v-4c55 -8 82 -41 82 -84
c0 -67 -59 -100 -144 -100zM172 528c-28 0 -43 -16 -43 -38c0 -24 21 -36 43 -36s43 12 43 36c0 22 -15 38 -43 38z" />
    <glyph glyph-name="uni2079" unicode="&#x2079;" horiz-adv-x="342" 
d="M32 287l67 55c10 -22 27 -34 54 -34c42 0 70 33 70 114h-4c-11 -35 -41 -55 -87 -55c-64 0 -107 45 -107 110c0 73 52 120 141 120c95 0 149 -60 149 -176c0 -130 -75 -192 -164 -192c-49 0 -90 15 -119 58zM207 477c0 28 -20 46 -48 46c-27 0 -47 -18 -47 -46
c0 -30 20 -48 47 -48c28 0 48 18 48 48z" />
    <glyph glyph-name="uni207A" unicode="&#x207a;" horiz-adv-x="443" 
d="M45 451h142v138h66v-138h145v-65h-145v-150h-66v150h-142v65z" />
    <glyph glyph-name="uni207B" unicode="&#x207b;" horiz-adv-x="444" 
d="M399 385h-354v66h354v-66z" />
    <glyph glyph-name="uni207C" unicode="&#x207c;" horiz-adv-x="444" 
d="M399 325h-354v65h354v-65zM399 457h-354v65h354v-65z" />
    <glyph glyph-name="uni207D" unicode="&#x207d;" horiz-adv-x="232" 
d="M117 408c0 -100 39 -160 82 -226h-76c-36 50 -77 115 -77 226c0 112 41 178 77 228h76c-43 -66 -82 -129 -82 -228z" />
    <glyph glyph-name="uni207E" unicode="&#x207e;" horiz-adv-x="232" 
d="M128 408c0 99 -39 162 -82 228h77c35 -50 76 -116 76 -228c0 -111 -41 -176 -76 -226h-77c43 66 82 126 82 226z" />
    <glyph glyph-name="n.superior" unicode="&#x207f;" horiz-adv-x="414" 
d="M147 593l13 -59c16 47 51 67 101 67c54 0 102 -29 102 -105v-209h-105v179c0 34 -9 56 -41 56c-26 0 -56 -13 -56 -72v-163h-105v306h91z" />
    <glyph glyph-name="uni2080" unicode="&#x2080;" horiz-adv-x="359" 
d="M179 -7c-105 0 -152 80 -152 184s54 184 152 184c99 0 153 -80 153 -184s-47 -184 -153 -184zM179 276c-34 0 -55 -39 -55 -101c0 -59 22 -100 55 -100c35 0 56 41 56 100c0 62 -20 101 -56 101z" />
    <glyph glyph-name="uni2081" unicode="&#x2081;" horiz-adv-x="315" 
d="M297 0h-260v73h85v190l-94 -8v77l192 21v-280h77v-73z" />
    <glyph glyph-name="uni2082" unicode="&#x2082;" horiz-adv-x="333" 
d="M307 77v-77h-278v64c114 82 164 121 164 170c0 27 -14 41 -40 41c-25 0 -49 -18 -49 -61l-83 32c3 59 47 115 142 115c76 0 133 -38 133 -114c0 -89 -85 -140 -140 -166v-4h151z" />
    <glyph glyph-name="uni2083" unicode="&#x2083;" horiz-adv-x="325" 
d="M198 180v-2c68 -5 99 -37 99 -89c0 -62 -55 -96 -147 -96c-74 0 -129 29 -140 81l81 33c7 -27 25 -43 60 -43c24 0 42 9 42 33s-14 46 -89 48v56c71 3 83 26 83 48c0 23 -15 34 -34 34c-25 0 -44 -13 -47 -39l-80 30c10 56 64 87 135 87s123 -30 123 -93
c0 -49 -28 -78 -86 -88z" />
    <glyph glyph-name="uni2084" unicode="&#x2084;" horiz-adv-x="354" 
d="M185 0v70h-174v67l177 216h96v-212h50v-71h-50v-70h-99zM187 139v65c0 35 5 71 5 71h-4s-9 -25 -29 -51l-32 -40c-22 -27 -47 -47 -47 -47v-4s21 6 56 6h51z" />
    <glyph glyph-name="uni2085" unicode="&#x2085;" horiz-adv-x="328" 
d="M42 147l9 206h231v-81h-155l-4 -67c14 16 40 24 71 24c63 0 108 -42 108 -112c0 -85 -66 -124 -150 -124c-79 0 -129 29 -140 84l85 39c4 -28 24 -50 57 -50c31 0 54 16 54 50c0 30 -18 48 -44 48c-20 0 -32 -7 -40 -17h-82z" />
    <glyph glyph-name="uni2086" unicode="&#x2086;" horiz-adv-x="342" 
d="M310 303l-67 -55c-10 22 -28 34 -54 34c-42 0 -70 -33 -70 -114h4c11 35 42 55 87 55c65 0 107 -45 107 -110c0 -73 -52 -120 -141 -120c-95 0 -149 60 -149 176c0 130 76 192 165 192c49 0 89 -15 118 -58zM135 112c0 -28 21 -46 48 -46s48 18 48 46c0 29 -21 48 -47 48
c-28 0 -49 -19 -49 -48z" />
    <glyph glyph-name="uni2087" unicode="&#x2087;" horiz-adv-x="321" 
d="M201 272h-103v-55h-82v136h291v-71l-133 -282h-106z" />
    <glyph glyph-name="uni2088" unicode="&#x2088;" horiz-adv-x="344" 
d="M172 145c-24 0 -46 -11 -46 -41c0 -24 18 -40 46 -40s46 16 46 40c0 30 -23 41 -46 41zM172 -7c-86 0 -144 33 -144 100c0 43 27 76 82 84v4c-50 5 -72 42 -72 77c0 64 49 103 134 103c84 0 134 -39 134 -103c0 -35 -22 -72 -72 -77v-4c55 -8 82 -41 82 -84
c0 -67 -59 -100 -144 -100zM172 292c-28 0 -43 -16 -43 -38c0 -24 21 -36 43 -36s43 12 43 36c0 22 -15 38 -43 38z" />
    <glyph glyph-name="uni2089" unicode="&#x2089;" horiz-adv-x="342" 
d="M32 51l67 55c10 -22 27 -34 54 -34c42 0 70 33 70 114h-4c-11 -35 -41 -55 -87 -55c-64 0 -107 45 -107 110c0 73 52 120 141 120c95 0 149 -60 149 -176c0 -130 -75 -192 -164 -192c-49 0 -90 15 -119 58zM207 241c0 28 -20 46 -48 46c-27 0 -47 -18 -47 -46
c0 -30 20 -48 47 -48c28 0 48 18 48 48z" />
    <glyph glyph-name="uni208A" unicode="&#x208a;" horiz-adv-x="443" 
d="M45 215h142v138h66v-138h145v-65h-145v-150h-66v150h-142v65z" />
    <glyph glyph-name="uni208B" unicode="&#x208b;" horiz-adv-x="444" 
d="M399 150h-354v65h354v-65z" />
    <glyph glyph-name="uni208C" unicode="&#x208c;" horiz-adv-x="444" 
d="M399 90h-354v65h354v-65zM399 221h-354v66h354v-66z" />
    <glyph glyph-name="uni208D" unicode="&#x208d;" horiz-adv-x="232" 
d="M117 172c0 -100 39 -160 82 -226h-76c-36 51 -77 115 -77 226c0 112 41 178 77 228h76c-43 -65 -82 -128 -82 -228z" />
    <glyph glyph-name="uni208E" unicode="&#x208e;" horiz-adv-x="232" 
d="M128 172c0 100 -39 163 -82 228h77c35 -50 76 -116 76 -228c0 -111 -41 -175 -76 -226h-77c43 66 82 126 82 226z" />
    <glyph glyph-name="uni20A1" unicode="&#x20a1;" horiz-adv-x="517" 
d="M111 -67l32 89c-63 39 -101 111 -101 217c0 164 92 254 247 254c8 0 17 0 25 -1l29 81l47 -18l-26 -71c12 -4 24 -8 35 -13l28 75l47 -17l-32 -88c20 -20 37 -45 50 -76l-95 -48l-82 -224c35 8 56 32 72 71l105 -65c-43 -78 -106 -111 -214 -111h-1l-35 -98l-48 16l31 87
c-13 2 -25 4 -36 8l-31 -85zM174 241c0 -37 5 -67 16 -91l88 243c-63 -1 -104 -48 -104 -152zM226 104c10 -7 22 -11 35 -14l97 266c-8 11 -18 20 -31 27z" />
    <glyph glyph-name="uni20A2" unicode="&#x20a2;" horiz-adv-x="520" 
d="M399 157l94 -58c-43 -78 -106 -111 -214 -111c-140 0 -236 83 -236 251c0 164 92 254 247 254c104 0 167 -41 203 -128l-113 -57c-14 49 -38 85 -100 85c-63 0 -105 -47 -105 -152c0 -77 24 -131 68 -151v187h77l9 -67c11 44 36 74 102 74l-11 -97c-8 3 -18 4 -27 4
c-22 0 -63 -6 -63 -57v-45c31 10 55 33 69 68z" />
    <glyph glyph-name="franc" unicode="&#x20a3;" horiz-adv-x="468" 
d="M376 142h-142v-142h-134v142h-62v53h62v47h-62v53h62v186h352v-109h-218v-77h142v-53h-142v-47h142v-53z" />
    <glyph glyph-name="lira" unicode="&#x20a4;" horiz-adv-x="516" 
d="M341 158h-101c-6 -23 -18 -40 -35 -49h125c29 0 59 5 74 47l93 -54c-11 -67 -69 -102 -143 -102h-306v110h32c33 0 46 23 49 48h-90v53h82c-4 10 -10 20 -15 31h-67v53h47c-3 13 -5 28 -5 47c0 94 87 151 181 151c92 0 172 -34 186 -137l-118 -30c-8 39 -31 62 -66 62
c-43 0 -63 -23 -63 -60c0 -13 3 -23 7 -33h133v-53h-104c3 -9 6 -20 7 -31h97v-53z" />
    <glyph glyph-name="uni20A6" unicode="&#x20a6;" horiz-adv-x="694" 
d="M666 152h-75v-152h-123l-171 213c-40 51 -58 87 -58 87h-4s6 -51 6 -135v-165h-134v152h-79v53h79v53h-78v53h78v170h144l156 -201c36 -46 50 -78 50 -78h4s-4 53 -4 128v151h134v-170h74v-53h-74v-53h75v-53z" />
    <glyph glyph-name="peseta" unicode="&#x20a7;" horiz-adv-x="1255" 
d="M209 0h-135v481h197c101 0 165 -28 194 -90h348c25 77 106 102 190 102c115 0 187 -45 191 -135l-130 -15c-3 39 -28 54 -67 54c-37 0 -59 -17 -59 -45c0 -27 16 -42 51 -49l69 -14c97 -19 143 -78 143 -153c0 -107 -89 -148 -204 -148s-191 36 -207 122l105 44
c13 -50 55 -70 108 -70c37 0 67 9 67 41c0 29 -16 36 -62 48l-73 17c-67 14 -105 47 -121 92h-107v-282h-135v282h-91c-6 -108 -78 -163 -199 -163h-73v-119zM209 374v-148h56c56 0 83 19 83 74s-27 74 -82 74h-57z" />
    <glyph glyph-name="uni20A8" unicode="&#x20a8;" horiz-adv-x="878" 
d="M209 374v-123h70c48 0 70 18 70 61c0 41 -23 62 -70 62h-70zM291 481c132 0 196 -53 196 -156c0 -83 -55 -120 -126 -126v-3c51 -4 66 -20 101 -41l83 -48c35 -22 75 -34 119 -34c25 0 46 4 46 23c0 15 -9 24 -40 31l-60 14c-60 13 -91 47 -91 107c0 90 77 116 153 116
c90 0 146 -32 149 -101l-104 -11c-3 28 -21 37 -49 37c-24 0 -36 -11 -36 -27s7 -25 39 -31l42 -9c80 -15 113 -56 113 -124c0 -78 -70 -110 -171 -110c-114 0 -186 21 -253 69l-64 45c-35 26 -64 47 -102 47h-27v-149h-135v481h217z" />
    <glyph glyph-name="uni20A9" unicode="&#x20a9;" horiz-adv-x="894" 
d="M854 163h-123l-39 -163h-167l-56 211c-18 66 -21 143 -21 143h-4s-4 -75 -22 -144l-54 -210h-166l-40 163h-122v52h110l-13 54h-96v52h83l-38 160h140l55 -244c15 -69 18 -140 18 -140h3s6 72 21 139l57 245h138l60 -243c17 -69 20 -139 20 -139h3s1 71 17 138l56 244
h134l-39 -160h84v-52h-96l-13 -54h110v-52z" />
    <glyph glyph-name="uni20AA" unicode="&#x20aa;" horiz-adv-x="826" 
d="M561 151h-114v173c0 35 -14 58 -62 58h-168v-382h-135v481h321c119 0 158 -62 158 -152v-178zM619 481h135v-329c0 -91 -39 -152 -158 -152h-319v329h113v-230h170c39 0 59 23 59 56v326z" />
    <glyph glyph-name="uni20AE" unicode="&#x20ae;" horiz-adv-x="480" 
d="M306 0h-135v115l-101 -17v52l101 17v48l-101 -17v52l101 17v105h-151v109h440v-109h-154v-82l102 18v-52l-102 -18v-48l102 18v-52l-102 -18v-138z" />
    <glyph glyph-name="uni20B1" unicode="&#x20b1;" horiz-adv-x="597" 
d="M577 271h-71c-11 -101 -82 -152 -198 -152h-74v-119h-134v271h-70v52h70v158h197c132 0 201 -48 210 -158h70v-52zM234 380v-57h138c-7 42 -33 57 -80 57h-58zM291 218c46 0 73 13 80 53h-137v-53h57z" />
    <glyph glyph-name="afii61289" unicode="&#x2113;" horiz-adv-x="394" 
d="M39 121l-30 55l80 55v233c0 151 56 205 155 205c87 0 132 -42 132 -128c0 -156 -74 -254 -162 -327v-35c0 -61 21 -77 61 -77c28 0 49 8 64 15l-8 -113c-28 -9 -59 -16 -100 -16c-75 0 -142 31 -142 127v39zM214 490v-195c53 53 91 118 91 245c0 38 -16 55 -44 55
c-32 0 -47 -32 -47 -105z" />
    <glyph glyph-name="afii61352" unicode="&#x2116;" horiz-adv-x="1043" 
d="M683 0v96h309v-96h-309zM214 216v-61c0 -131 -64 -170 -169 -177l-23 126c38 2 57 19 57 71v414h128l192 -269c32 -45 49 -79 49 -79h4s-3 50 -3 125v58c0 131 64 170 169 177l23 -126c-37 -2 -57 -19 -57 -71v-404h-123l-193 264c-37 50 -56 87 -56 87h-4s6 -51 6 -135z
M835 152c-94 0 -158 58 -158 162s64 160 158 160c95 0 159 -56 159 -160s-64 -162 -159 -162zM835 396c-32 0 -47 -27 -47 -84c0 -55 15 -83 47 -83s47 28 47 83c0 57 -15 84 -47 84z" />
    <glyph glyph-name="servicemark" unicode="&#x2120;" horiz-adv-x="622" 
d="M20 402l62 23c8 -24 27 -36 50 -36c20 0 31 7 31 20c0 12 -10 19 -31 24l-39 9c-42 10 -64 37 -64 73c0 62 52 80 107 80c62 0 102 -23 104 -69l-73 -10c-1 20 -15 25 -33 25s-26 -8 -26 -19s4 -19 26 -23l32 -6c53 -10 78 -42 78 -80c0 -56 -48 -76 -111 -76
c-67 0 -105 20 -113 65zM580 341h-75v138h-4l-41 -79h-45l-40 79h-5v-138h-75v248h82l60 -106h1l59 106h83v-248z" />
    <glyph glyph-name="ohm" unicode="&#x2126;" horiz-adv-x="680" 
d="M339 481c-92 0 -137 -72 -137 -174c0 -100 44 -161 88 -185v-122h-237v122h119c-56 25 -112 97 -112 201c0 169 105 278 279 278s281 -109 281 -278c0 -104 -57 -176 -113 -201h120v-122h-239v122c46 24 90 85 90 185c0 102 -46 174 -139 174z" />
    <glyph glyph-name="estimated" unicode="&#x212e;" horiz-adv-x="647" 
d="M323 601c196 0 279 -151 279 -307v-26h-431v-169c37 -37 87 -58 152 -58c89 0 150 38 184 104h66c-38 -92 -119 -157 -250 -157c-194 0 -278 151 -278 306c0 156 84 307 278 307zM323 548c-65 0 -115 -20 -152 -58v-170h305v170c-37 38 -88 58 -153 58z" />
    <glyph glyph-name="uni2153" unicode="&#x2153;" horiz-adv-x="870" 
d="M308 236h-260v73h85v190l-94 -8v77l192 21v-280h77v-73zM242 0l305 589h81l-307 -589h-79zM718 180v-2c68 -5 99 -37 99 -89c0 -62 -55 -96 -147 -96c-74 0 -129 29 -140 81l81 33c7 -27 25 -43 60 -43c24 0 42 9 42 33s-14 46 -89 48v56c71 3 83 26 83 48
c0 23 -15 34 -34 34c-25 0 -44 -13 -47 -39l-80 30c10 56 64 87 135 87s123 -30 123 -93c0 -49 -28 -78 -86 -88z" />
    <glyph glyph-name="uni2154" unicode="&#x2154;" horiz-adv-x="870" 
d="M321 313v-77h-278v64c114 82 164 121 164 170c0 27 -14 41 -40 41c-25 0 -49 -18 -49 -61l-83 32c3 59 47 115 142 115c76 0 133 -38 133 -114c0 -89 -85 -140 -140 -166v-4h151zM242 0l305 589h81l-307 -589h-79zM718 180v-2c68 -5 99 -37 99 -89
c0 -62 -55 -96 -147 -96c-74 0 -129 29 -140 81l81 33c7 -27 25 -43 60 -43c24 0 42 9 42 33s-14 46 -89 48v56c71 3 83 26 83 48c0 23 -15 34 -34 34c-25 0 -44 -13 -47 -39l-80 30c10 56 64 87 135 87s123 -30 123 -93c0 -49 -28 -78 -86 -88z" />
    <glyph glyph-name="uni215B" unicode="&#x215b;" horiz-adv-x="870" 
d="M308 236h-260v73h85v190l-94 -8v77l192 21v-280h77v-73zM242 0l305 589h81l-307 -589h-79zM692 145c-24 0 -46 -11 -46 -41c0 -24 18 -40 46 -40s46 16 46 40c0 30 -23 41 -46 41zM692 -7c-86 0 -144 33 -144 100c0 43 27 76 82 84v4c-50 5 -72 42 -72 77
c0 64 49 103 134 103c84 0 134 -39 134 -103c0 -35 -22 -72 -72 -77v-4c55 -8 82 -41 82 -84c0 -67 -59 -100 -144 -100zM692 292c-28 0 -43 -16 -43 -38c0 -24 21 -36 43 -36s43 12 43 36c0 22 -15 38 -43 38z" />
    <glyph glyph-name="uni215C" unicode="&#x215c;" horiz-adv-x="870" 
d="M220 416v-2c68 -5 99 -37 99 -89c0 -62 -55 -96 -147 -96c-74 0 -129 29 -140 81l81 33c7 -27 25 -43 60 -43c24 0 42 9 42 33s-14 46 -89 48v56c71 3 83 26 83 48c0 23 -15 34 -34 34c-25 0 -44 -13 -47 -39l-80 30c10 56 64 87 135 87s123 -30 123 -93
c0 -49 -28 -78 -86 -88zM242 0l305 589h81l-307 -589h-79zM692 145c-24 0 -46 -11 -46 -41c0 -24 18 -40 46 -40s46 16 46 40c0 30 -23 41 -46 41zM692 -7c-86 0 -144 33 -144 100c0 43 27 76 82 84v4c-50 5 -72 42 -72 77c0 64 49 103 134 103c84 0 134 -39 134 -103
c0 -35 -22 -72 -72 -77v-4c55 -8 82 -41 82 -84c0 -67 -59 -100 -144 -100zM692 292c-28 0 -43 -16 -43 -38c0 -24 21 -36 43 -36s43 12 43 36c0 22 -15 38 -43 38z" />
    <glyph glyph-name="uni215D" unicode="&#x215d;" horiz-adv-x="870" 
d="M60 383l9 206h231v-81h-155l-4 -67c14 16 40 24 71 24c63 0 108 -42 108 -112c0 -85 -66 -124 -150 -124c-79 0 -129 29 -140 84l85 39c4 -28 24 -50 57 -50c31 0 54 16 54 50c0 30 -18 48 -44 48c-20 0 -32 -7 -40 -17h-82zM242 0l305 589h81l-307 -589h-79zM692 145
c-24 0 -46 -11 -46 -41c0 -24 18 -40 46 -40s46 16 46 40c0 30 -23 41 -46 41zM692 -7c-86 0 -144 33 -144 100c0 43 27 76 82 84v4c-50 5 -72 42 -72 77c0 64 49 103 134 103c84 0 134 -39 134 -103c0 -35 -22 -72 -72 -77v-4c55 -8 82 -41 82 -84
c0 -67 -59 -100 -144 -100zM692 292c-28 0 -43 -16 -43 -38c0 -24 21 -36 43 -36s43 12 43 36c0 22 -15 38 -43 38z" />
    <glyph glyph-name="uni215E" unicode="&#x215e;" horiz-adv-x="825" 
d="M215 508h-103v-55h-82v136h291v-71l-133 -282h-106zM203 0l305 589h81l-307 -589h-79zM653 145c-24 0 -46 -11 -46 -41c0 -24 18 -40 46 -40s46 16 46 40c0 30 -23 41 -46 41zM653 -7c-86 0 -144 33 -144 100c0 43 27 76 82 84v4c-50 5 -72 42 -72 77
c0 64 49 103 134 103c84 0 134 -39 134 -103c0 -35 -22 -72 -72 -77v-4c55 -8 82 -41 82 -84c0 -67 -59 -100 -144 -100zM653 292c-28 0 -43 -16 -43 -38c0 -24 21 -36 43 -36s43 12 43 36c0 22 -15 38 -43 38z" />
    <glyph glyph-name="arrowleft" unicode="&#x2190;" horiz-adv-x="706" 
d="M231 353h430v-116h-430l168 -168l-82 -81l-292 307l291 306l82 -82z" />
    <glyph glyph-name="arrowup" unicode="&#x2191;" horiz-adv-x="685" 
d="M401 395v-395h-116v395l-168 -167l-81 82l307 291l306 -291l-82 -82z" />
    <glyph glyph-name="arrowright" unicode="&#x2192;" horiz-adv-x="706" 
d="M25 353h430l-166 166l82 82l290 -306l-291 -307l-82 81l167 168h-430v116z" />
    <glyph glyph-name="arrowdown" unicode="&#x2193;" horiz-adv-x="685" 
d="M284 194v395h116v-395l168 168l81 -82l-307 -292l-306 291l82 82z" />
    <glyph glyph-name="uni2196" unicode="&#x2196;" horiz-adv-x="684" 
d="M585 0l-399 399v-302h-112v492h476v-108h-283l399 -400z" />
    <glyph glyph-name="uni2197" unicode="&#x2197;" horiz-adv-x="684" 
d="M498 399l-399 -399l-81 81l399 400h-284v108h477v-492h-112v302z" />
    <glyph glyph-name="uni2198" unicode="&#x2198;" horiz-adv-x="684" 
d="M99 589l399 -398v301h112v-492h-477v109h284l-399 399z" />
    <glyph glyph-name="uni2199" unicode="&#x2199;" horiz-adv-x="684" 
d="M186 191l399 398l81 -81l-399 -399h283v-109h-476v492h112v-301z" />
    <glyph glyph-name="partialdiff" unicode="&#x2202;" horiz-adv-x="533" 
d="M136 617l111 66c152 -84 244 -223 244 -415s-88 -275 -225 -275c-135 0 -224 85 -224 238c0 155 100 226 191 226c65 0 98 -29 124 -64c-45 98 -115 166 -221 224zM360 223c0 81 -34 125 -94 125c-61 0 -91 -45 -91 -125c0 -79 31 -127 93 -127c63 0 92 48 92 127z" />
    <glyph glyph-name="increment" unicode="&#x2206;" horiz-adv-x="616" 
d="M606 0h-596l213 589h168zM420 113l-67 189c-34 97 -46 167 -46 167h-4s-16 -71 -48 -166l-64 -190h229z" />
    <glyph glyph-name="product" unicode="&#x220f;" horiz-adv-x="649" 
d="M211 -203h-135v792h497v-792h-134v670h-228v-670z" />
    <glyph glyph-name="summation" unicode="&#x2211;" horiz-adv-x="475" 
d="M419 471h-148c-51 0 -71 4 -71 4v-4s17 -10 50 -62l74 -114l-75 -115c-33 -52 -49 -62 -49 -62v-4s19 4 71 4h148v-118h-419l179 296l-179 293h419v-118z" />
    <glyph glyph-name="minus" unicode="&#x2212;" horiz-adv-x="498" 
d="M453 211h-408v74h408v-74z" />
    <glyph glyph-name="radical" unicode="&#x221a;" horiz-adv-x="632" 
d="M221 468l128 -333h4l146 541l123 -16l-206 -660h-125l-140 317l-92 -44l-47 97z" />
    <glyph glyph-name="infinity" unicode="&#x221e;" horiz-adv-x="863" 
d="M146 242c0 -66 39 -95 83 -95c31 0 62 12 93 43l51 52l-51 52c-31 32 -62 43 -93 43c-44 0 -83 -29 -83 -95zM432 176l-46 -45c-53 -52 -90 -84 -166 -84c-91 0 -174 62 -174 195s83 195 174 195c76 0 114 -32 166 -84l45 -45l46 45c53 51 90 84 166 84
c91 0 174 -62 174 -195s-83 -195 -174 -195c-76 0 -114 32 -166 84zM717 242c0 66 -39 95 -83 95c-31 0 -62 -11 -93 -43l-51 -52l51 -52c31 -32 62 -43 93 -43c44 0 83 29 83 95z" />
    <glyph glyph-name="integral" unicode="&#x222b;" horiz-adv-x="308" 
d="M78 -12v527c0 117 90 159 186 160c38 0 77 -6 112 -18l-21 -124c-23 16 -47 24 -75 24c-37 0 -69 -15 -69 -74v-526c0 -117 -89 -160 -186 -160c-38 0 -76 6 -111 17l20 124c24 -16 47 -24 76 -24c37 0 68 16 68 74z" />
    <glyph glyph-name="approxequal" unicode="&#x2248;" horiz-adv-x="498" 
d="M359 245c-61 0 -157 42 -210 42c-43 0 -74 -15 -104 -42v74c35 32 67 43 108 43c63 0 143 -40 202 -40c37 0 65 9 98 37v-78c-25 -27 -54 -36 -94 -36zM359 114c-61 0 -157 42 -210 42c-43 0 -74 -14 -104 -41v73c35 33 67 43 108 43c63 0 143 -39 202 -39
c37 0 65 8 98 37v-79c-25 -26 -54 -36 -94 -36z" />
    <glyph glyph-name="notequal" unicode="&#x2260;" horiz-adv-x="498" 
d="M453 283h-125l-54 -74h179v-75h-233l-87 -119l-60 44l56 75h-84v75h137l54 74h-191v75h245l80 110l61 -43l-49 -67h71v-75z" />
    <glyph glyph-name="lessequal" unicode="&#x2264;" horiz-adv-x="433" 
d="M363 411l-175 -112l174 -115l-52 -67l-259 181l263 177zM388 19h-343v75h343v-75z" />
    <glyph glyph-name="greaterequal" unicode="&#x2265;" horiz-adv-x="433" 
d="M244 299l-174 112l48 64l264 -177l-260 -181l-51 67zM388 19h-343v75h343v-75z" />
    <glyph glyph-name="blacksquare" unicode="&#x25a0;" horiz-adv-x="743" 
d="M77 0v589h589v-589h-589z" />
    <glyph glyph-name="whitesquare" unicode="&#x25a1;" horiz-adv-x="743" 
d="M77 0v589h589v-589h-589zM120 546v-503h504v503h-504z" />
    <glyph glyph-name="blacksmallsquare" unicode="&#x25aa;" horiz-adv-x="478" 
d="M77 139v325h324v-325h-324z" />
    <glyph glyph-name="whitesmallsquare" unicode="&#x25ab;" horiz-adv-x="480" 
d="M77 139v325h326v-325h-326zM120 421v-239h240v239h-240z" />
    <glyph glyph-name="triagup" unicode="&#x25b2;" horiz-adv-x="570" 
d="M40 0l245 601l245 -601h-490z" />
    <glyph glyph-name="triagrt" unicode="&#x25ba;" horiz-adv-x="678" 
d="M77 536l601 -245l-601 -245v490z" />
    <glyph glyph-name="triagdn" unicode="&#x25bc;" horiz-adv-x="570" 
d="M285 -12l-245 601h490z" />
    <glyph glyph-name="triaglf" unicode="&#x25c4;" horiz-adv-x="678" 
d="M0 291l601 245v-490z" />
    <glyph glyph-name="lozenge" unicode="&#x25ca;" horiz-adv-x="519" 
d="M477 302l-169 -336h-98l-168 336l168 328h98zM372 301l-111 226l-110 -226l110 -232z" />
    <glyph glyph-name="circle" unicode="&#x25cb;" horiz-adv-x="517" 
d="M41 295c0 120 97 218 218 218c119 0 217 -98 217 -218s-98 -218 -217 -218c-121 0 -218 98 -218 218zM88 294c0 -96 75 -174 171 -174c93 0 171 78 171 174c0 97 -78 175 -171 175c-96 0 -171 -78 -171 -175z" />
    <glyph glyph-name="blackcircle" unicode="&#x25cf;" horiz-adv-x="695" 
d="M41 294c0 169 137 307 306 307s307 -138 307 -307s-138 -306 -307 -306s-306 137 -306 306z" />
    <glyph glyph-name="anglebracketleft" unicode="&#x3008;" horiz-adv-x="344" 
d="M319 -203h-135l-153 439l153 432h135l-151 -434z" />
    <glyph glyph-name="anglebracketright" unicode="&#x3009;" horiz-adv-x="344" 
d="M160 -203h-135l151 437l-151 434h135l153 -432z" />
    <glyph glyph-name=".null" horiz-adv-x="0" 
 />
    <glyph glyph-name="CR" horiz-adv-x="221" 
 />
    <glyph glyph-name="zero.OP" unicode="&#xe54a;" horiz-adv-x="584" 
d="M292 -12c-159 0 -250 111 -250 253c0 140 91 252 250 252s250 -112 250 -252c0 -142 -91 -253 -250 -253zM292 375c-78 0 -121 -58 -121 -136c0 -79 43 -137 121 -137c79 0 122 58 122 137c0 78 -43 136 -122 136z" />
    <glyph glyph-name="one.OP" unicode="&#xe54c;" horiz-adv-x="365" 
d="M279 0h-125v360l-134 -16v109l259 36v-489z" />
    <glyph glyph-name="two.OP" unicode="&#xe54d;" horiz-adv-x="479" 
d="M439 111v-111h-399v93c196 99 250 155 250 220c0 40 -23 64 -63 64c-37 0 -64 -25 -69 -83l-123 30c15 113 97 169 207 169c99 0 179 -59 179 -168c0 -115 -81 -177 -206 -210v-4h224z" />
    <glyph glyph-name="three.OP" unicode="&#xe54e;" horiz-adv-x="477" 
d="M273 189v-5c106 -9 156 -72 156 -157c0 -106 -86 -165 -220 -165c-111 0 -189 49 -205 140l127 47c5 -56 35 -87 87 -87c46 0 80 23 80 71c0 61 -39 102 -158 103v93c131 6 143 54 143 96c0 38 -27 60 -61 60c-36 0 -66 -24 -70 -74l-126 34c16 93 93 148 204 148
c107 0 188 -50 188 -155c0 -82 -44 -137 -145 -149z" />
    <glyph glyph-name="four.OP" unicode="&#xe54f;" horiz-adv-x="566" 
d="M305 -131v157h-286v89l295 366h125v-356h98v-99h-98v-157h-134zM210 125h95v111c0 47 5 95 5 95h-4s-15 -30 -39 -61l-67 -88c-28 -37 -56 -57 -56 -57v-4s23 4 66 4z" />
    <glyph glyph-name="five.OP" unicode="&#xe540;" horiz-adv-x="490" 
d="M77 132l13 349h328v-119h-221l-5 -131c20 14 46 22 80 22c102 0 171 -69 171 -184c0 -141 -103 -208 -224 -208c-120 0 -196 50 -212 140l120 49c5 -60 42 -91 97 -91c54 0 94 31 94 107c0 66 -38 92 -85 92c-26 0 -46 -12 -59 -26h-97z" />
    <glyph glyph-name="six.OP" unicode="&#xe551;" horiz-adv-x="527" 
d="M477 499l-91 -69c-18 44 -52 63 -95 63c-83 0 -129 -85 -129 -228h4c16 72 72 110 136 110c116 0 184 -84 184 -185c0 -121 -80 -202 -217 -202c-138 0 -226 101 -226 284c0 227 114 329 250 329c84 0 153 -39 184 -102zM189 182c0 -54 40 -91 87 -91c50 0 89 37 89 91
c0 57 -39 92 -89 92c-47 0 -87 -35 -87 -92z" />
    <glyph glyph-name="seven.OP" unicode="&#xe552;" horiz-adv-x="492" 
d="M309 362h-170v-72h-110v191h419v-95l-208 -517h-133z" />
    <glyph glyph-name="eight.OP" unicode="&#xe553;" horiz-adv-x="524" 
d="M262 -12c-148 0 -220 69 -220 162c0 77 52 131 123 149v4c-77 17 -110 74 -110 137c0 92 77 161 207 161c131 0 207 -69 207 -161c0 -63 -33 -120 -109 -137v-4c70 -18 122 -72 122 -149c0 -93 -72 -162 -220 -162zM262 508c-50 0 -78 -34 -78 -78c0 -55 38 -81 78 -81
s78 26 78 81c0 44 -28 78 -78 78zM262 249c-45 0 -89 -27 -89 -81c0 -47 34 -82 89 -82s89 35 89 82c0 54 -44 81 -89 81z" />
    <glyph glyph-name="nine.OP" unicode="&#xe554;" horiz-adv-x="523" 
d="M22 -33l91 67c18 -44 53 -66 101 -66c107 0 147 111 147 250h-4c-16 -75 -66 -112 -136 -112c-114 0 -183 79 -183 186c0 121 79 201 212 201c148 0 230 -93 230 -286c0 -226 -102 -345 -273 -345c-84 0 -155 39 -185 105zM334 298c0 54 -40 90 -87 90
c-49 0 -88 -36 -88 -90c0 -57 39 -92 88 -92c47 0 87 35 87 92z" />
    <glyph glyph-name="zero.LP" unicode="&#xe534;" horiz-adv-x="583" 
d="M291 -12c-160 0 -245 133 -245 307c0 169 93 306 245 306c153 0 246 -137 246 -306c0 -174 -85 -307 -246 -307zM291 479c-74 0 -114 -73 -114 -188c0 -111 40 -188 114 -188s115 77 115 188c0 115 -41 188 -115 188z" />
    <glyph glyph-name="one.LP" unicode="&#xe536;" horiz-adv-x="364" 
d="M272 0h-135v451l-122 -16v120l257 34v-589z" />
    <glyph glyph-name="two.LP" unicode="&#xe537;" horiz-adv-x="491" 
d="M452 118v-118h-412v103c167 138 264 213 264 305c0 45 -22 77 -69 77c-44 0 -66 -28 -66 -63c0 -26 15 -49 34 -68l-114 -55c-31 27 -56 75 -56 128c0 89 60 174 204 174c127 0 208 -56 208 -188c0 -152 -150 -242 -232 -291v-4h239z" />
    <glyph glyph-name="three.LP" unicode="&#xe538;" horiz-adv-x="486" 
d="M291 306v-5c108 -9 155 -68 155 -153c0 -103 -88 -160 -223 -160c-114 0 -194 52 -210 140l129 45c5 -54 36 -82 89 -82c47 0 82 21 82 70c0 59 -40 85 -161 86v100c133 5 145 43 145 84c0 37 -27 57 -63 57c-38 0 -66 -22 -70 -71l-129 34c12 90 87 150 204 150
c114 0 196 -49 196 -151c0 -80 -42 -133 -144 -144z" />
    <glyph glyph-name="four.LP" unicode="&#xe539;" horiz-adv-x="566" 
d="M305 0v134h-286v89l295 366h125v-356h98v-99h-98v-134h-134zM305 233v111c0 47 5 95 5 95h-4s-15 -30 -39 -61l-67 -88c-28 -37 -56 -57 -56 -57v-4s23 4 66 4h95z" />
    <glyph glyph-name="five.LP" unicode="&#xe53a;" horiz-adv-x="493" 
d="M82 251l12 338h329v-118h-214l-6 -122c16 15 41 25 76 25c100 0 169 -63 169 -178c0 -141 -93 -208 -224 -208c-123 0 -196 50 -212 140l120 49c6 -60 41 -88 97 -88c54 0 93 28 93 96c0 69 -39 91 -80 91c-32 0 -50 -10 -63 -25h-97z" />
    <glyph glyph-name="six.LP" unicode="&#xe53b;" horiz-adv-x="525" 
d="M480 499l-91 -69c-18 44 -52 59 -95 59c-83 0 -124 -80 -124 -216h4c16 72 65 102 131 102c116 0 184 -84 184 -185c0 -121 -80 -202 -216 -202c-139 0 -227 101 -227 284c0 227 114 329 250 329c89 0 153 -39 184 -102zM194 182c0 -53 35 -89 84 -89c51 0 86 36 86 89
c0 56 -35 90 -86 90c-49 0 -84 -34 -84 -90z" />
    <glyph glyph-name="seven.LP" unicode="&#xe53c;" horiz-adv-x="467" 
d="M296 471h-172v-72h-110v190h429v-94l-201 -495h-137z" />
    <glyph glyph-name="eight.LP" unicode="&#xe53d;" horiz-adv-x="522" 
d="M261 -12c-148 0 -220 69 -220 162c0 77 44 131 115 149v4c-77 17 -102 74 -102 137c0 92 77 161 207 161c131 0 207 -69 207 -161c0 -63 -25 -120 -101 -137v-4c70 -18 114 -72 114 -149c0 -93 -72 -162 -220 -162zM261 503c-50 0 -78 -33 -78 -75c0 -54 38 -79 78 -79
s78 25 78 79c0 42 -28 75 -78 75zM261 249c-45 0 -88 -27 -88 -81c0 -47 33 -81 88 -81s89 34 89 81c0 54 -44 81 -89 81z" />
    <glyph glyph-name="nine.LP" unicode="&#xe53e;" horiz-adv-x="532" 
d="M28 93l91 72c18 -45 53 -71 102 -71c106 0 146 93 145 232h-4c-16 -75 -66 -112 -136 -112c-114 0 -183 79 -183 186c0 121 79 201 212 201c148 0 231 -93 231 -286c0 -226 -102 -327 -267 -327c-90 0 -161 39 -191 105zM337 407c0 52 -36 86 -82 86
c-49 0 -84 -34 -84 -86c0 -55 35 -88 84 -88c46 0 82 33 82 88z" />
    <glyph glyph-name="zero.LT" unicode="&#xe53f;" horiz-adv-x="570" 
d="M285 -12c-161 0 -245 133 -245 307c0 169 93 306 245 306s245 -137 245 -306c0 -174 -84 -307 -245 -307zM285 479c-74 0 -115 -73 -115 -188c0 -111 41 -188 115 -188s114 77 114 188c0 115 -40 188 -114 188z" />
    <glyph glyph-name="one.LT" unicode="&#xe541;" horiz-adv-x="570" 
d="M507 0h-426v118h150v334l-138 -17v118l273 36v-471h141v-118z" />
    <glyph glyph-name="two.LT" unicode="&#xe542;" horiz-adv-x="570" 
d="M507 118v-118h-425v103c167 138 264 213 264 305c0 45 -23 77 -69 77c-45 0 -66 -28 -66 -63c0 -26 14 -49 34 -68l-114 -55c-31 27 -56 75 -56 128c0 89 59 174 203 174c128 0 209 -56 209 -188c0 -152 -150 -242 -233 -291v-4h253z" />
    <glyph glyph-name="three.LT" unicode="&#xe543;" horiz-adv-x="570" 
d="M328 306v-5c108 -9 154 -68 154 -153c0 -103 -87 -160 -223 -160c-114 0 -193 52 -210 140l129 45c6 -54 36 -82 90 -82c46 0 81 21 81 70c0 59 -40 85 -160 86v100c133 5 144 43 144 84c0 37 -27 57 -63 57c-37 0 -66 -22 -69 -71l-130 34c12 90 87 150 204 150
c114 0 196 -49 196 -151c0 -80 -42 -133 -143 -144z" />
    <glyph glyph-name="four.LT" unicode="&#xe544;" horiz-adv-x="570" 
d="M312 0v134h-286v89l295 366h125v-356h97v-99h-97v-134h-134zM312 233v110c0 47 5 95 5 95h-4s-15 -30 -39 -61l-66 -87c-28 -37 -56 -57 -56 -57v-4s23 4 65 4h95z" />
    <glyph glyph-name="five.LT" unicode="&#xe545;" horiz-adv-x="570" 
d="M130 251l11 338h329v-118h-214l-6 -122c17 15 41 25 76 25c101 0 169 -63 169 -178c0 -141 -93 -208 -224 -208c-123 0 -196 50 -212 140l121 49c5 -60 40 -88 96 -88c54 0 93 28 93 96c0 69 -39 91 -80 91c-32 0 -49 -10 -63 -25h-96z" />
    <glyph glyph-name="six.LT" unicode="&#xe546;" horiz-adv-x="570" 
d="M503 499l-92 -69c-18 44 -51 59 -94 59c-84 0 -125 -80 -125 -216h4c16 72 65 102 132 102c116 0 183 -84 183 -185c0 -121 -80 -202 -216 -202c-139 0 -227 101 -227 284c0 227 114 329 250 329c90 0 153 -39 185 -102zM216 182c0 -53 35 -89 85 -89s86 36 86 89
c0 56 -36 90 -86 90s-85 -34 -85 -90z" />
    <glyph glyph-name="seven.LT" unicode="&#xe547;" horiz-adv-x="570" 
d="M351 471h-173v-72h-110v190h429v-94l-200 -495h-138z" />
    <glyph glyph-name="eight.LT" unicode="&#xe548;" horiz-adv-x="570" 
d="M285 -12c-148 0 -220 69 -220 162c0 77 44 131 115 149v4c-77 17 -102 74 -102 137c0 92 76 161 207 161s207 -69 207 -161c0 -63 -25 -120 -102 -137v-4c71 -18 115 -72 115 -149c0 -93 -72 -162 -220 -162zM285 503c-50 0 -78 -33 -78 -75c0 -54 38 -79 78 -79
s78 25 78 79c0 42 -28 75 -78 75zM285 249c-45 0 -88 -27 -88 -81c0 -47 33 -81 88 -81s88 34 88 81c0 54 -43 81 -88 81z" />
    <glyph glyph-name="nine.LT" unicode="&#xe549;" horiz-adv-x="570" 
d="M45 93l91 72c18 -45 53 -71 102 -71c106 0 146 93 145 232h-4c-16 -75 -66 -112 -137 -112c-113 0 -182 79 -182 186c0 121 79 201 212 201c148 0 231 -93 231 -286c0 -226 -102 -327 -268 -327c-89 0 -160 39 -190 105zM354 407c0 52 -36 86 -83 86
c-49 0 -83 -34 -83 -86c0 -55 34 -88 83 -88c47 0 83 33 83 88z" />
    <glyph glyph-name="zero.OT" unicode="&#xe555;" horiz-adv-x="570" 
d="M285 -12c-159 0 -250 111 -250 253c0 140 91 252 250 252s250 -112 250 -252c0 -142 -91 -253 -250 -253zM285 375c-78 0 -121 -58 -121 -136c0 -79 43 -137 121 -137s122 58 122 137c0 78 -44 136 -122 136z" />
    <glyph glyph-name="one.OT" unicode="&#xe557;" horiz-adv-x="570" 
d="M515 0h-444v113h166v248l-147 -19v110l273 37v-376h152v-113z" />
    <glyph glyph-name="two.OT" unicode="&#xe558;" horiz-adv-x="570" 
d="M493 111v-111h-409v93c196 99 251 155 251 220c0 40 -24 64 -63 64c-38 0 -65 -25 -70 -83l-123 30c15 113 97 169 207 169c100 0 179 -59 179 -168c0 -115 -80 -177 -206 -210v-4h234z" />
    <glyph glyph-name="three.OT" unicode="&#xe559;" horiz-adv-x="570" 
d="M319 189v-5c106 -9 156 -72 156 -157c0 -106 -86 -165 -220 -165c-111 0 -189 49 -205 140l127 47c5 -56 35 -87 87 -87c46 0 80 23 80 71c0 61 -39 102 -158 103v93c131 6 143 54 143 96c0 38 -27 60 -61 60c-36 0 -66 -24 -70 -74l-126 34c16 93 93 148 204 148
c107 0 188 -50 188 -155c0 -82 -44 -137 -145 -149z" />
    <glyph glyph-name="four.OT" unicode="&#xe55a;" horiz-adv-x="570" 
d="M312 -131v157h-286v89l295 366h124v-356h98v-99h-98v-157h-133zM216 125h96v111c0 47 5 95 5 95h-4s-15 -30 -39 -61l-67 -88c-28 -37 -56 -57 -56 -57v-4s23 4 65 4z" />
    <glyph glyph-name="five.OT" unicode="&#xe55b;" horiz-adv-x="570" 
d="M114 132l14 349h327v-119h-220l-6 -131c20 14 46 22 80 22c102 0 171 -69 171 -184c0 -141 -102 -208 -223 -208s-196 50 -213 140l120 49c6 -60 43 -91 97 -91s94 31 94 106c0 67 -38 93 -84 93c-27 0 -46 -12 -60 -26h-97z" />
    <glyph glyph-name="six.OT" unicode="&#xe55c;" horiz-adv-x="570" 
d="M505 499l-91 -69c-18 44 -52 63 -95 63c-84 0 -129 -85 -129 -228h3c17 72 72 110 137 110c116 0 183 -84 183 -185c0 -121 -79 -202 -216 -202c-138 0 -226 101 -226 284c0 227 114 329 250 329c84 0 153 -39 184 -102zM217 182c0 -54 40 -91 87 -91c49 0 88 37 88 91
c0 57 -39 92 -88 92c-47 0 -87 -35 -87 -92z" />
    <glyph glyph-name="seven.OT" unicode="&#xe55d;" horiz-adv-x="570" 
d="M355 362h-170v-72h-110v191h419v-95l-208 -517h-133z" />
    <glyph glyph-name="eight.OT" unicode="&#xe55e;" horiz-adv-x="570" 
d="M285 -12c-148 0 -220 69 -220 162c0 77 52 131 123 149v4c-77 17 -110 74 -110 137c0 92 76 161 207 161s207 -69 207 -161c0 -63 -33 -120 -110 -137v-4c71 -18 123 -72 123 -149c0 -93 -72 -162 -220 -162zM285 508c-50 0 -78 -34 -78 -78c0 -55 38 -81 78 -81
s78 26 78 81c0 44 -28 78 -78 78zM285 249c-45 0 -89 -27 -89 -81c0 -47 34 -82 89 -82s89 35 89 82c0 54 -44 81 -89 81z" />
    <glyph glyph-name="nine.OT" unicode="&#xe55f;" horiz-adv-x="570" 
d="M45 -33l91 67c19 -44 53 -66 101 -66c108 0 148 111 148 250h-4c-16 -75 -66 -112 -137 -112c-114 0 -182 79 -182 186c0 121 79 201 211 201c149 0 231 -93 231 -286c0 -226 -103 -345 -274 -345c-83 0 -154 39 -185 105zM357 298c0 54 -39 90 -86 90
c-49 0 -88 -36 -88 -90c0 -57 39 -92 88 -92c47 0 86 35 86 92z" />
    <glyph glyph-name="a.school" unicode="&#xe151;" 
d="M361 191v87c0 68 -44 96 -90 96c-53 0 -104 -38 -104 -147c0 -87 39 -136 102 -136c46 0 92 34 92 100zM370 402l32 60h92v-462h-116l-17 80c-17 -70 -75 -92 -144 -92c-102 0 -184 81 -184 233c0 157 74 252 206 252c68 0 111 -26 131 -71z" />
    <glyph glyph-name="g.school" unicode="&#xe161;" 
d="M402 462h92v-438c0 -164 -109 -235 -248 -235c-128 0 -192 46 -222 121l106 65c19 -58 61 -86 117 -86c64 0 115 34 115 120v81c-21 -70 -77 -92 -146 -92c-96 0 -183 68 -183 226c0 153 74 249 206 249c68 0 111 -26 131 -72zM361 206v73c0 63 -44 92 -91 92
c-52 0 -103 -36 -103 -140c0 -87 39 -132 99 -132c42 0 95 28 95 107z" />
    <glyph glyph-name="y.school" unicode="&#xe16b;" horiz-adv-x="531" 
d="M54 462h134v-275c0 -55 17 -86 63 -86s83 36 83 125v236h134v-446c0 -144 -78 -227 -234 -227c-119 0 -183 42 -213 117l105 65c18 -55 55 -83 109 -83c67 0 100 33 100 115v93c-15 -63 -59 -96 -138 -96c-82 0 -143 42 -143 149v313z" />
    <glyph glyph-name="caronSlovak" unicode="&#xe413;" horiz-adv-x="302" 
d="M232 668l-58 -194h-95l15 194h138z" />
    <glyph glyph-name="invertedbreve" unicode="&#xe411;" horiz-adv-x="460" 
d="M230 686c105 0 150 -70 150 -158h-99c-1 38 -8 62 -51 62c-42 0 -50 -24 -51 -62h-99c0 88 45 158 150 158z" />
    <glyph glyph-name="doublegrave" unicode="&#xe412;" horiz-adv-x="546" 
d="M466 526h-95l-98 153h141zM301 526h-104l-117 153h150z" />
    <glyph glyph-name="acute.cap" unicode="&#xe422;" horiz-adv-x="392" 
d="M203 647h-123l64 143h168z" />
    <glyph glyph-name="grave.cap" unicode="&#xe421;" horiz-adv-x="392" 
d="M312 647h-122l-110 143h168z" />
    <glyph glyph-name="circumflex.cap" unicode="&#xe423;" horiz-adv-x="514" 
d="M215 792h85l134 -145h-124l-31 31c-17 18 -20 30 -20 30h-4s-3 -12 -20 -30l-30 -31h-125z" />
    <glyph glyph-name="dieresis.cap" unicode="&#xe429;" horiz-adv-x="528" 
d="M80 723c0 50 34 75 74 75c44 0 76 -25 76 -75c0 -48 -32 -75 -76 -75c-40 0 -74 27 -74 75zM298 723c0 50 34 75 74 75c43 0 76 -25 76 -75c0 -49 -33 -75 -76 -75c-40 0 -74 26 -74 75z" />
    <glyph glyph-name="tilde.cap" unicode="&#xe424;" horiz-adv-x="509" 
d="M331 649c-34 0 -49 7 -74 22c-29 17 -42 25 -58 25c-20 0 -36 -15 -31 -49h-74c-37 77 8 157 87 157c29 0 47 -9 68 -21c30 -17 44 -27 62 -27c19 0 31 10 26 46h78c35 -81 -4 -153 -84 -153z" />
    <glyph glyph-name="ring.cap" unicode="&#xe42a;" horiz-adv-x="390" 
d="M195 630c-74 0 -115 50 -115 112c0 58 45 108 115 108s115 -50 115 -108c0 -62 -41 -112 -115 -112zM195 790c-31 0 -49 -20 -49 -49c0 -26 17 -48 49 -48s49 22 49 48c0 29 -18 49 -49 49z" />
    <glyph glyph-name="caron.cap" unicode="&#xe42d;" horiz-adv-x="514" 
d="M300 646h-85l-135 145h125l30 -31c17 -18 20 -30 20 -30h4s3 12 20 30l31 31h124z" />
    <glyph glyph-name="macron.cap" unicode="&#xe425;" horiz-adv-x="461" 
d="M381 664h-301v108h301v-108z" />
    <glyph glyph-name="breve.cap" unicode="&#xe426;" horiz-adv-x="460" 
d="M230 642c-105 0 -150 59 -150 149h99c1 -36 13 -55 51 -55c39 0 50 19 51 55h99c0 -90 -45 -149 -150 -149z" />
    <glyph glyph-name="invertedbreve.cap" unicode="&#xe427;" horiz-adv-x="460" 
d="M230 798c105 0 150 -58 150 -148h-99c-1 36 -12 54 -51 54c-38 0 -50 -18 -51 -54h-99c0 90 45 148 150 148z" />
    <glyph glyph-name="hungarumlaut.cap" unicode="&#xe42b;" horiz-adv-x="546" 
d="M175 647h-95l52 143h141zM350 647h-104l70 143h150z" />
    <glyph glyph-name="doublegrave.cap" unicode="&#xe42c;" horiz-adv-x="546" 
d="M466 647h-95l-98 143h141zM301 647h-104l-117 143h150z" />
    <glyph glyph-name="dotaccent.cap" unicode="&#xe428;" horiz-adv-x="325" 
d="M80 731c0 51 36 78 81 78c48 0 84 -27 84 -78c0 -49 -36 -76 -84 -76c-45 0 -81 27 -81 76z" />
    <glyph glyph-name="Anocross" horiz-adv-x="616" 
d="M460 0l-107 302c-34 97 -46 167 -46 167h-4s-15 -71 -48 -166l-103 -303h-142l213 589h168l215 -589h-146z" />
    <glyph glyph-name="barredO" horiz-adv-x="641" 
d="M320 -12c-174 0 -279 109 -279 306c0 198 105 307 279 307s280 -109 280 -307c0 -197 -106 -306 -280 -306zM320 105c78 0 123 50 135 136h-270c12 -86 56 -136 135 -136zM320 480c-76 0 -121 -48 -134 -130h269c-14 82 -59 130 -135 130z" />
    <glyph glyph-name="Ndescender" horiz-adv-x="676" 
d="M599 -203h-136v219l-196 264c-38 50 -56 87 -56 87h-4s6 -48 6 -133v-234h-136v589h128l208 -285c33 -45 49 -79 49 -79h4s-3 50 -3 125v239h136v-792z" />
    <glyph glyph-name="barredo" horiz-adv-x="513" 
d="M257 -12c-135 0 -224 88 -224 244c0 157 89 241 224 241c134 0 223 -84 223 -241c0 -156 -89 -244 -223 -244zM257 92c51 0 80 30 88 94h-178c9 -64 38 -94 90 -94zM257 366c-52 0 -81 -30 -90 -93h178c-8 63 -37 93 -88 93z" />
    <glyph glyph-name="ndescender" horiz-adv-x="535" 
d="M177 462l16 -89c25 69 77 100 148 100s136 -42 136 -146v-531h-134v481c0 51 -14 84 -62 84c-43 0 -84 -24 -84 -107v-254h-134v462h114z" />
    <glyph glyph-name="doublebar" unicode="&#x2016;" horiz-adv-x="508" 
d="M207 -203h-107v871h107v-871zM408 -203h-107v871h107v-871z" />
    <glyph glyph-name="bullet.cap" unicode="&#xe466;" horiz-adv-x="359" 
d="M61 293c0 65 54 119 118 119c65 0 119 -54 119 -119s-54 -119 -119 -119c-64 0 -118 54 -118 119z" />
    <glyph glyph-name="registered.superior" unicode="&#xe514;" horiz-adv-x="465" 
d="M45 412c0 111 84 189 186 189c106 0 189 -78 189 -189c0 -108 -83 -186 -189 -186c-102 0 -186 78 -186 186zM73 414c0 -94 71 -161 158 -161c88 0 160 67 160 161s-72 161 -160 161c-87 0 -158 -67 -158 -161zM330 316h-68c-5 7 -9 12 -12 23l-6 20c-3 15 -11 19 -26 19
h-8v-62h-59v201h86c53 0 80 -22 80 -65c0 -36 -24 -52 -51 -54c21 -3 33 -12 38 -28l11 -30c4 -10 8 -17 15 -24zM210 469v-46h17c22 0 32 7 32 22c0 16 -9 24 -27 24h-22z" />
    <glyph glyph-name="published" unicode="&#x2117;" horiz-adv-x="703" 
d="M379 220h-47v-108h-110v373h160c98 0 149 -45 149 -129c0 -105 -70 -136 -152 -136zM332 396v-93h37c35 0 53 13 53 47c0 32 -19 46 -54 46h-36zM45 294c0 178 137 307 306 307s307 -129 307 -307s-138 -306 -307 -306s-306 128 -306 306zM76 294
c0 -163 125 -277 277 -277c151 0 275 114 275 277c0 162 -124 278 -275 278c-152 0 -277 -116 -277 -278z" />
    <glyph glyph-name="zero.inf" unicode="&#xe571;" horiz-adv-x="359" 
d="M179 -210c-105 0 -152 80 -152 184s54 184 152 184c99 0 153 -80 153 -184s-47 -184 -153 -184zM179 73c-34 0 -55 -39 -55 -101c0 -59 22 -100 55 -100c35 0 56 41 56 100c0 62 -20 101 -56 101z" />
    <glyph glyph-name="one.inf" unicode="&#xe572;" horiz-adv-x="315" 
d="M297 -203h-260v73h85v190l-94 -8v77l192 21v-280h77v-73z" />
    <glyph glyph-name="two.inf" unicode="&#xe573;" horiz-adv-x="333" 
d="M307 -126v-77h-278v64c114 82 164 121 164 170c0 27 -14 41 -40 41c-25 0 -49 -18 -49 -61l-83 32c3 59 47 115 142 115c76 0 133 -38 133 -114c0 -89 -85 -140 -140 -166v-4h151z" />
    <glyph glyph-name="three.inf" unicode="&#xe574;" horiz-adv-x="325" 
d="M198 -23v-2c68 -5 99 -37 99 -89c0 -62 -55 -96 -147 -96c-74 0 -129 29 -140 81l81 33c7 -27 25 -43 60 -43c24 0 42 9 42 33s-14 46 -89 48v56c71 3 83 26 83 48c0 23 -15 34 -34 34c-25 0 -44 -13 -47 -39l-80 30c10 56 64 87 135 87s123 -30 123 -93
c0 -49 -28 -78 -86 -88z" />
    <glyph glyph-name="four.inf" unicode="&#xe575;" horiz-adv-x="354" 
d="M185 -203v70h-174v67l177 216h96v-212h50v-71h-50v-70h-99zM187 -64v65c0 35 5 71 5 71h-4s-9 -25 -29 -51l-32 -40c-22 -27 -47 -47 -47 -47v-4s21 6 56 6h51z" />
    <glyph glyph-name="five.inf" unicode="&#xe576;" horiz-adv-x="328" 
d="M42 -56l9 206h231v-81h-155l-4 -67c14 16 40 24 71 24c63 0 108 -42 108 -112c0 -85 -66 -124 -150 -124c-79 0 -129 29 -140 84l85 39c4 -28 24 -50 57 -50c31 0 54 16 54 50c0 30 -18 48 -44 48c-20 0 -32 -7 -40 -17h-82z" />
    <glyph glyph-name="six.inf" unicode="&#xe577;" horiz-adv-x="342" 
d="M310 100l-67 -55c-10 22 -28 34 -54 34c-42 0 -70 -33 -70 -114h4c11 35 42 55 87 55c65 0 107 -45 107 -110c0 -73 -52 -120 -141 -120c-95 0 -149 60 -149 176c0 130 76 192 165 192c49 0 89 -15 118 -58zM135 -91c0 -28 21 -46 48 -46s48 18 48 46c0 29 -21 48 -47 48
c-28 0 -49 -19 -49 -48z" />
    <glyph glyph-name="seven.inf" unicode="&#xe578;" horiz-adv-x="321" 
d="M201 69h-103v-55h-82v136h291v-71l-133 -282h-106z" />
    <glyph glyph-name="eight.inf" unicode="&#xe579;" horiz-adv-x="344" 
d="M172 -58c-24 0 -46 -11 -46 -41c0 -24 18 -40 46 -40s46 16 46 40c0 30 -23 41 -46 41zM172 -210c-86 0 -144 33 -144 100c0 43 27 76 82 84v4c-50 5 -72 42 -72 77c0 64 49 103 134 103c84 0 134 -39 134 -103c0 -35 -22 -72 -72 -77v-4c55 -8 82 -41 82 -84
c0 -67 -59 -100 -144 -100zM172 89c-28 0 -43 -16 -43 -38c0 -24 21 -36 43 -36s43 12 43 36c0 22 -15 38 -43 38z" />
    <glyph glyph-name="nine.inf" unicode="&#xe57a;" horiz-adv-x="342" 
d="M32 -152l67 55c10 -22 27 -34 54 -34c42 0 70 33 70 114h-4c-11 -35 -41 -55 -87 -55c-64 0 -107 45 -107 110c0 73 52 120 141 120c95 0 149 -60 149 -176c0 -130 -75 -192 -164 -192c-49 0 -90 15 -119 58zM207 38c0 28 -20 46 -48 46c-27 0 -47 -18 -47 -46
c0 -30 20 -48 47 -48c28 0 48 18 48 48z" />
    <glyph glyph-name="plus.inf" unicode="&#xe57b;" horiz-adv-x="443" 
d="M45 12h142v138h66v-138h145v-65h-145v-150h-66v150h-142v65z" />
    <glyph glyph-name="minus.inf" unicode="&#xe57c;" horiz-adv-x="444" 
d="M399 -53h-354v65h354v-65z" />
    <glyph glyph-name="equal.inf" unicode="&#xe57d;" horiz-adv-x="444" 
d="M399 -113h-354v65h354v-65zM399 19h-354v65h354v-65z" />
    <glyph glyph-name="parenleft.inf" unicode="&#xe57e;" horiz-adv-x="232" 
d="M117 -31c0 -99 39 -160 82 -226h-76c-36 51 -77 116 -77 226c0 113 41 178 77 229h76c-43 -66 -82 -129 -82 -229z" />
    <glyph glyph-name="parenright.inf" unicode="&#xe57f;" horiz-adv-x="232" 
d="M128 -31c0 100 -39 163 -82 229h77c35 -51 76 -116 76 -229c0 -110 -41 -175 -76 -226h-77c43 66 82 127 82 226z" />
    <glyph glyph-name="a.superior" unicode="&#xe361;" horiz-adv-x="391" 
d="M210 382v36c-56 0 -73 -21 -73 -45c0 -18 11 -29 30 -29c20 0 43 11 43 38zM315 499v-119c0 -16 7 -21 18 -21c8 0 18 1 24 5v-70c-12 -6 -39 -12 -62 -12c-44 0 -65 10 -81 43c-15 -31 -43 -46 -90 -46c-54 0 -89 30 -89 82c0 67 53 102 175 101v29c0 28 -15 37 -32 37
c-21 0 -33 -19 -34 -40l-99 16c5 65 63 97 142 97c69 0 128 -27 128 -102z" />
    <glyph glyph-name="b.superior" unicode="&#xe362;" horiz-adv-x="416" 
d="M161 460v-48c0 -50 25 -69 55 -69c36 0 64 31 64 95c0 63 -23 89 -61 89c-29 0 -58 -22 -58 -67zM161 319l-28 -32h-77v426h105v-176c16 44 50 64 98 64c77 0 126 -57 126 -154s-51 -168 -142 -168c-46 0 -70 19 -82 40z" />
    <glyph glyph-name="c.superior" unicode="&#xe363;" horiz-adv-x="356" 
d="M241 401l89 -32c-12 -62 -67 -90 -135 -90c-93 0 -154 57 -154 158c0 104 61 164 155 164c74 0 125 -40 129 -101l-83 -27c-5 28 -17 44 -43 44c-36 0 -51 -30 -51 -76s17 -79 52 -79c21 0 35 8 41 39z" />
    <glyph glyph-name="d.superior" unicode="&#xe364;" horiz-adv-x="429" 
d="M268 415v55c0 43 -32 60 -58 60c-30 0 -63 -22 -63 -93c0 -54 24 -86 63 -86c25 0 58 19 58 64zM267 553v160h106v-426h-86l-13 52c-18 -40 -55 -60 -106 -60c-67 0 -127 52 -127 153c0 105 52 169 144 169c41 0 75 -22 82 -48z" />
    <glyph glyph-name="e.superior" unicode="&#xe365;" horiz-adv-x="370" 
d="M204 354c23 0 41 10 48 36l81 -27c-16 -62 -74 -84 -137 -84c-91 0 -155 57 -155 156c0 106 60 166 157 166c90 0 135 -58 135 -137c0 -14 0 -27 -3 -40h-182c0 -39 14 -70 56 -70zM149 474h88c1 4 1 7 1 10c-1 28 -12 47 -43 47c-29 0 -45 -23 -46 -57z" />
    <glyph glyph-name="f.superior" unicode="&#xe366;" horiz-adv-x="264" 
d="M70 509h-46v76h46v19c0 91 59 113 124 113c31 0 54 -5 79 -15l-2 -81c-19 10 -38 15 -57 15c-24 0 -39 -9 -39 -38v-13h79v-76h-79v-222h-105v222z" />
    <glyph glyph-name="g.superior" unicode="&#xe367;" horiz-adv-x="384" 
d="M183 602c37 0 68 -7 91 -20c15 13 20 31 24 54l76 -31c-3 -28 -34 -49 -61 -54c10 -16 15 -33 15 -53c0 -67 -65 -101 -148 -101c-15 0 -30 1 -41 4c-9 -5 -14 -12 -14 -20c0 -12 9 -17 26 -17h98c72 0 113 -38 113 -90c0 -85 -96 -104 -188 -104c-79 0 -150 16 -150 73
c0 32 24 55 82 58c-33 3 -53 26 -53 52c0 22 15 50 53 58c-44 16 -67 41 -67 87c0 68 58 104 144 104zM112 250c0 -21 24 -32 71 -32c61 0 83 11 83 33c0 18 -11 24 -36 24h-79c-23 0 -39 -9 -39 -25zM143 498c0 -28 12 -48 40 -48s41 18 41 48c0 33 -13 48 -41 48
c-27 0 -40 -18 -40 -48z" />
    <glyph glyph-name="h.superior" unicode="&#xe368;" horiz-adv-x="414" 
d="M161 713v-178c16 46 50 66 100 66c54 0 102 -29 102 -105v-209h-105v179c0 34 -9 56 -41 56c-26 0 -56 -13 -56 -72v-163h-105v426h105z" />
    <glyph glyph-name="i.superior" unicode="&#xe369;" horiz-adv-x="217" 
d="M47 677c0 36 27 55 62 55c37 0 64 -19 64 -55c0 -35 -27 -53 -64 -53c-35 0 -62 18 -62 53zM56 593h105v-306h-105v306z" />
    <glyph glyph-name="j.superior" unicode="&#xe36a;" horiz-adv-x="225" 
d="M64 593h105v-281c0 -98 -49 -137 -172 -137v82c52 0 67 9 67 70v266zM55 677c0 36 28 55 62 55c37 0 64 -19 64 -55c0 -35 -27 -53 -64 -53c-34 0 -62 18 -62 53z" />
    <glyph glyph-name="k.superior" unicode="&#xe36b;" horiz-adv-x="393" 
d="M270 452l112 -165h-126l-75 122h-20v-122h-105v426h105v-227h18l68 107h125z" />
    <glyph glyph-name="l.superior" unicode="&#xe36c;" horiz-adv-x="254" 
d="M224 382v-84c-17 -9 -45 -15 -78 -15c-50 0 -91 22 -91 89v341h105v-313c0 -21 11 -29 26 -29c16 0 24 4 38 11z" />
    <glyph glyph-name="m.superior" unicode="&#xe36d;" horiz-adv-x="595" 
d="M348 532c17 46 50 69 98 69c50 0 98 -29 98 -105v-209h-106v179c0 34 -9 56 -40 56c-27 0 -46 -22 -46 -75v-160h-105v179c0 34 -9 56 -40 56c-27 0 -46 -22 -46 -72v-163h-105v306h92l12 -59c16 47 47 67 95 67c41 0 81 -19 93 -69z" />
    <glyph glyph-name="o.superior" unicode="&#xe36e;" horiz-adv-x="398" 
d="M199 279c-95 0 -158 58 -158 162s63 160 158 160s158 -56 158 -160s-63 -162 -158 -162zM199 528c-35 0 -52 -28 -52 -88c0 -59 17 -89 52 -89s52 30 52 89c0 60 -17 88 -52 88z" />
    <glyph glyph-name="p.superior" unicode="&#xe36f;" horiz-adv-x="426" 
d="M161 460v-48c0 -50 25 -69 55 -69c36 0 64 31 64 95c0 63 -23 89 -61 89c-29 0 -58 -22 -58 -67zM161 319v-140h-105v414h86l15 -57c19 45 59 65 102 65c77 0 126 -57 126 -154c0 -98 -51 -168 -142 -168c-46 0 -69 19 -82 40z" />
    <glyph glyph-name="q.superior" unicode="&#xe360;" horiz-adv-x="429" 
d="M268 415v55c0 43 -32 60 -58 60c-30 0 -63 -22 -63 -93c0 -54 24 -86 63 -86c25 0 58 19 58 64zM268 553l16 40h89v-414h-105v156c-18 -40 -49 -56 -100 -56c-67 0 -127 52 -127 153c0 105 52 169 144 169c41 0 75 -22 83 -48z" />
    <glyph glyph-name="r.superior" unicode="&#xe371;" horiz-adv-x="305" 
d="M285 601l-9 -117c-12 4 -23 7 -42 7c-37 0 -73 -21 -73 -77v-127h-105v306h93l12 -84c13 55 42 92 124 92z" />
    <glyph glyph-name="s.superior" unicode="&#xe372;" horiz-adv-x="341" 
d="M30 358l85 22c7 -31 26 -39 55 -39c21 0 36 9 36 25c0 15 -9 23 -35 29l-51 12c-51 11 -78 43 -78 94c0 77 66 100 131 100c77 0 125 -29 127 -87l-88 -9c-3 23 -19 31 -42 31c-21 0 -31 -10 -31 -23s6 -22 33 -27l37 -7c68 -13 96 -48 96 -106c0 -67 -59 -94 -135 -94
c-82 0 -126 22 -140 79z" />
    <glyph glyph-name="t.superior" unicode="&#xe373;" horiz-adv-x="292" 
d="M257 384l14 -85c-24 -12 -58 -20 -92 -20c-66 0 -111 29 -111 99v131h-45v76h45v76l105 10v-86h79v-76h-79v-106c0 -27 13 -37 35 -37c17 0 33 5 49 18z" />
    <glyph glyph-name="u.superior" unicode="&#xe374;" horiz-adv-x="411" 
d="M263 287l-12 59c-16 -47 -48 -67 -98 -67c-53 0 -102 29 -102 105v209h105v-179c0 -34 10 -56 38 -56c26 0 56 13 56 72v163h105v-306h-92z" />
    <glyph glyph-name="v.superior" unicode="&#xe375;" horiz-adv-x="392" 
d="M136 287l-116 306h112l44 -140c16 -49 18 -93 18 -93h4s3 44 19 93l46 140h109l-121 -306h-115z" />
    <glyph glyph-name="w.superior" unicode="&#xe376;" horiz-adv-x="530" 
d="M307 593l33 -121c17 -62 18 -112 18 -112h4s0 49 15 111l29 122h104l-83 -306h-117l-29 109c-13 45 -15 94 -15 94h-4s-2 -49 -12 -94l-27 -109h-116l-87 306h106l32 -122c16 -62 17 -111 17 -111h4s0 51 16 112l29 121h83z" />
    <glyph glyph-name="x.superior" horiz-adv-x="382" 
d="M249 287l-34 53c-24 36 -24 57 -24 57h-4s-1 -21 -24 -57l-33 -53h-110l98 152l-92 154h118l22 -41c22 -43 25 -65 25 -65h4s1 22 26 64l25 42h111l-94 -150l99 -156h-113z" />
    <glyph glyph-name="y.superior" unicode="&#xe378;" horiz-adv-x="374" 
d="M135 593l42 -130c14 -47 17 -91 17 -91h5s3 44 19 91l44 130h110l-128 -318c-37 -91 -89 -106 -156 -106c-18 0 -43 5 -57 9l15 78c13 -7 28 -10 43 -10c28 0 37 11 50 43l-118 304h114z" />
    <glyph glyph-name="z.superior" unicode="&#xe379;" horiz-adv-x="334" 
d="M299 287h-264v63l127 164h-125v79h257v-67l-133 -164h138v-75z" />
    <glyph glyph-name="cordinal" unicode="&#xe181;" horiz-adv-x="356" 
d="M241 401l89 -32c-12 -62 -67 -90 -135 -90c-93 0 -154 57 -154 158c0 104 61 164 155 164c74 0 125 -40 129 -101l-83 -27c-5 28 -17 44 -43 44c-36 0 -51 -30 -51 -76s17 -79 52 -79c21 0 35 8 41 39z" />
    <glyph glyph-name="parenleft.cap" unicode="&#xe491;" horiz-adv-x="362" 
d="M54 295c0 181 77 290 152 373h147c-94 -108 -169 -212 -169 -373c0 -160 75 -264 169 -372h-147c-75 83 -152 192 -152 372z" />
    <glyph glyph-name="parenright.cap" unicode="&#xe492;" horiz-adv-x="362" 
d="M308 295c0 -180 -77 -289 -152 -372h-147c94 108 169 212 169 372c0 161 -75 265 -169 373h147c75 -83 152 -192 152 -373z" />
    <glyph glyph-name="bracketleft.cap" unicode="&#xe493;" horiz-adv-x="372" 
d="M212 568v-544h117v-100h-252v744h252v-100h-117z" />
    <glyph glyph-name="bracketright.cap" unicode="&#xe494;" horiz-adv-x="372" 
d="M160 24v544h-117v100h252v-744h-252v100h117z" />
    <glyph glyph-name="braceleft.cap" unicode="&#xe495;" horiz-adv-x="421" 
d="M157 295v-4c54 -5 101 -27 101 -110v-96c0 -44 10 -67 48 -67c27 0 41 5 64 17l22 -92c-31 -20 -70 -29 -120 -29c-109 0 -141 65 -141 147v104c0 63 -30 77 -69 77h-41v101h41c39 0 69 15 69 77v105c0 82 32 147 141 147c50 0 89 -9 120 -29l-22 -93
c-23 13 -37 18 -64 18c-38 0 -48 -24 -48 -67v-96c0 -87 -47 -106 -101 -110z" />
    <glyph glyph-name="braceright.cap" unicode="&#xe496;" horiz-adv-x="421" 
d="M264 291v4c-54 4 -101 23 -101 110v96c0 43 -10 67 -49 67c-27 0 -40 -5 -63 -18l-22 93c31 20 69 29 120 29c109 0 141 -65 141 -147v-105c0 -62 30 -77 69 -77h41v-101h-41c-39 0 -69 -14 -69 -77v-104c0 -82 -32 -147 -141 -147c-51 0 -89 9 -120 29l22 92
c23 -12 36 -17 63 -17c39 0 49 23 49 67v96c0 83 47 105 101 110z" />
    <glyph glyph-name="onethirdemdash" unicode="&#xe471;" horiz-adv-x="421" 
d="M62 210v89h297v-89h-297z" />
    <glyph glyph-name="threequarteremdash" unicode="&#xe472;" horiz-adv-x="349" 
d="M62 210v89h225v-89h-225z" />
    <glyph glyph-name="periodcentered.cap" unicode="&#xe481;" horiz-adv-x="292" 
d="M60 305c0 50 37 88 84 88c51 0 88 -38 88 -88c0 -47 -37 -84 -88 -84c-47 0 -84 37 -84 84z" />
    <glyph glyph-name="hyphen.cap" unicode="&#xe482;" horiz-adv-x="372" 
d="M62 246v113h248v-113h-248z" />
    <glyph glyph-name="onethirdemdash.cap" unicode="&#xe483;" horiz-adv-x="421" 
d="M62 254v89h297v-89h-297z" />
    <glyph glyph-name="endash.cap" unicode="&#xe484;" horiz-adv-x="500" 
d="M62 254v89h376v-89h-376z" />
    <glyph glyph-name="threequarteremdash.cap" unicode="&#xe485;" horiz-adv-x="349" 
d="M62 254v89h225v-89h-225z" />
    <glyph glyph-name="emdash.cap" unicode="&#xe486;" horiz-adv-x="1000" 
d="M62 254v89h876v-89h-876z" />
    <glyph glyph-name="figuredash.cap" unicode="&#xe487;" horiz-adv-x="583" 
d="M62 254v89h459v-89h-459z" />
    <glyph glyph-name="anglebracketleft.cap" unicode="&#xe497;" horiz-adv-x="352" 
d="M320 -75h-138l-151 374l151 369h138l-150 -371z" />
    <glyph glyph-name="anglebracketright.cap" unicode="&#xe498;" horiz-adv-x="344" 
d="M166 -75h-138l150 372l-150 371h138l151 -369z" />
    <glyph glyph-name="Euro.LP" unicode="&#xe521;" horiz-adv-x="593" 
d="M371 214h-136c16 -68 56 -106 121 -106c46 0 85 27 108 84l113 -69c-51 -91 -115 -135 -239 -135c-128 0 -223 80 -248 226h-58v52h52c-1 9 -1 19 -1 29v18h-51v53h56c22 151 119 235 267 235c115 0 186 -55 226 -149l-127 -64c-17 58 -44 93 -100 93
c-62 0 -104 -42 -120 -115h164l-10 -53h-161v-21v-26h154z" />
    <glyph glyph-name="dollar.LP" unicode="&#xe522;" horiz-adv-x="529" 
d="M241 -106v94c-109 3 -182 42 -211 144l124 55c9 -51 39 -85 87 -93v137c-133 43 -188 94 -188 194c0 125 91 171 188 176v83h50v-83c105 -7 181 -50 192 -152l-135 -34c-4 42 -25 69 -57 78v-135c1 0 3 -1 5 -1c124 -39 187 -81 187 -194c0 -115 -84 -164 -192 -173v-96
h-50zM347 147c0 34 -15 50 -56 67v-119c33 5 56 22 56 52zM190 436c0 -32 17 -48 51 -61v120c-30 -6 -51 -25 -51 -59z" />
    <glyph glyph-name="cent.LP" unicode="&#xe523;" horiz-adv-x="520" 
d="M255 -54v94c-128 9 -213 92 -213 251c0 151 78 240 213 252v83h50v-82c94 -4 153 -45 187 -127l-117 -60c-12 39 -30 69 -70 78v-286c39 6 62 29 78 69l109 -67c-40 -71 -96 -105 -187 -111v-94h-50zM178 293c0 -79 27 -129 77 -142v284c-47 -12 -77 -58 -77 -142z" />
    <glyph glyph-name="sterling.LP" unicode="&#xe524;" horiz-adv-x="510" 
d="M361 251h-109c3 -15 4 -31 4 -46c0 -45 -22 -80 -50 -94h121c30 0 62 5 76 46l99 -59c-11 -65 -72 -98 -149 -98h-317v112h37c35 0 58 18 58 74c0 22 -4 43 -10 65h-83v83h58c-9 31 -16 65 -16 102c0 110 87 165 185 165c97 0 173 -36 186 -135l-122 -38
c-9 37 -23 64 -58 64s-55 -20 -55 -66c0 -28 8 -59 17 -92h128v-83z" />
    <glyph glyph-name="florin.LP" unicode="&#xe525;" horiz-adv-x="483" 
d="M37 0l54 239h-67l18 102h68l17 87c25 126 119 172 214 172c47 0 110 -15 149 -63l-80 -101c-17 29 -45 48 -75 48c-38 0 -61 -23 -72 -68l-17 -75h118l-18 -102h-119l-55 -239h-135z" />
    <glyph glyph-name="yen.LP" unicode="&#xe526;" 
d="M520 186h-167v-186h-136v186h-152v52h130l-24 48h-106v52h79l-128 251h154l69 -140c37 -79 44 -128 44 -128h4s6 51 43 127l68 141h143l-120 -251h99v-52h-124l-23 -48h147v-52z" />
    <glyph glyph-name="uni20A1.LP" unicode="&#xe527;" horiz-adv-x="518" 
d="M110 3l32 89c-63 39 -101 111 -101 217c0 164 92 254 247 254c8 0 17 0 25 -1l29 81l47 -18l-26 -71c12 -4 24 -8 35 -13l28 75l47 -17l-32 -88c20 -20 37 -45 50 -76l-95 -48l-82 -224c35 8 56 32 72 71l105 -65c-43 -78 -106 -111 -214 -111h-1l-35 -98l-48 16l31 86
c-13 2 -25 5 -36 9l-31 -85zM173 311c0 -37 5 -67 16 -91l88 243c-63 -1 -104 -48 -104 -152zM225 174c10 -7 22 -11 35 -14l97 266c-8 11 -18 20 -31 27z" />
    <glyph glyph-name="uni20A2.LP" unicode="&#xe528;" horiz-adv-x="586" 
d="M527 345l-13 -123c-14 4 -26 7 -43 7c-45 0 -97 -24 -97 -103v-30c35 14 68 45 85 86l100 -59c-54 -91 -120 -135 -249 -135c-157 0 -265 111 -265 307s106 306 283 306c118 0 193 -55 235 -149l-133 -64c-17 58 -45 97 -106 97c-88 0 -137 -73 -137 -189
c0 -90 25 -159 76 -190v230h96l14 -105c16 68 54 119 154 114z" />
    <glyph glyph-name="uni20A3.LP" unicode="&#xe529;" horiz-adv-x="477" 
d="M385 212h-163v-212h-136v212h-55v53h55v47h-55v53h55v224h384v-118h-248v-106h163v-53h-163v-47h163v-53z" />
    <glyph glyph-name="uni20A4.LP" unicode="&#xe52a;" horiz-adv-x="513" 
d="M389 210h-130v-5c0 -45 -22 -80 -49 -94h121c30 0 62 5 76 46l98 -59c-10 -65 -71 -98 -149 -98h-316v112h37c34 0 58 18 58 74c0 8 -1 16 -2 24h-98v53h87l-14 47h-73v53h58c-6 23 -9 47 -9 73c0 110 86 165 185 165c97 0 172 -36 186 -135l-123 -38
c-8 37 -22 64 -57 64s-56 -20 -56 -66c0 -20 4 -41 9 -63h161v-53h-147c4 -16 8 -31 11 -47h136v-53z" />
    <glyph glyph-name="uni20A6.LP" unicode="&#xe52b;" horiz-adv-x="695" 
d="M675 212h-78v-212h-124l-188 265c-36 51 -54 102 -54 102h-4s6 -48 6 -133v-234h-136v212h-77v53h77v47h-77v53h77v224h128l189 -271c31 -46 46 -93 46 -93h4s-3 50 -3 125v239h136v-224h78v-53h-78v-47h78v-53z" />
    <glyph glyph-name="uni20A7.LP" unicode="&#xe52c;" horiz-adv-x="1261" 
d="M700 0h-136v372h-64c-7 -114 -79 -182 -200 -182h-87v-190h-136v589h210c110 0 174 -37 200 -108h305c25 89 113 121 200 121c121 0 211 -41 224 -153l-136 -34c-5 52 -43 75 -85 75c-37 0 -67 -17 -67 -55c0 -41 32 -57 101 -78c123 -39 186 -81 186 -194
c0 -128 -103 -175 -229 -175c-115 0 -193 38 -224 144l124 55c11 -58 54 -95 110 -95c45 0 78 18 78 58c0 38 -21 56 -98 80c-109 34 -167 74 -185 142h-91v-372zM213 475v-174h70c59 0 83 29 83 84c0 61 -26 90 -83 90h-70z" />
    <glyph glyph-name="uni20A8.LP" unicode="&#xe52d;" horiz-adv-x="965" 
d="M213 474v-154h87c54 0 84 21 84 77c0 50 -28 77 -84 77h-87zM309 589c132 0 214 -48 214 -180c0 -91 -63 -140 -139 -148v-3c54 -9 87 -39 132 -71l69 -50c39 -25 81 -54 148 -54c35 0 60 12 60 39c0 26 -17 38 -56 48l-65 16c-78 21 -113 67 -113 137
c0 117 89 150 181 150c104 0 167 -40 173 -130l-119 -18c-5 37 -25 49 -61 49c-30 0 -50 -14 -50 -38c0 -23 13 -36 43 -42l63 -14c90 -20 131 -70 131 -149c0 -103 -81 -143 -207 -143c-119 0 -187 32 -264 91l-77 59c-40 32 -85 70 -127 70h-32v-208h-136v589h232z" />
    <glyph glyph-name="uni20A9.LP" unicode="&#xe52e;" horiz-adv-x="968" 
d="M940 212h-120l-46 -212h-197l-68 291c-19 83 -23 157 -23 157h-4s-4 -74 -24 -158l-71 -290h-191l-47 212h-121v53h109l-10 47h-99v53h87l-49 224h148l69 -324c17 -84 25 -159 25 -159h4s6 76 24 158l71 325h162l73 -324c18 -84 25 -159 25 -159h4s7 76 24 158l66 325
h142l-49 -224h86v-53h-98l-10 -47h108v-53z" />
    <glyph glyph-name="uni20AA.LP" unicode="&#xe52f;" horiz-adv-x="817" 
d="M556 151h-114v281c0 36 -14 58 -62 58h-168v-490h-135v589h321c119 0 158 -61 158 -152v-286zM618 589h135v-437c0 -91 -39 -152 -158 -152h-323v438h113v-339h174c39 0 59 23 59 56v434z" />
    <glyph glyph-name="uni20AE.LP" unicode="&#xe520;" horiz-adv-x="491" 
d="M311 0h-134v181l-101 -17v52l101 17v48l-101 -17v52l101 17v138h-161v118h459v-118h-164v-115l103 18v-52l-103 -18v-48l103 18v-52l-103 -18v-204z" />
    <glyph glyph-name="uni20B1.LP" unicode="&#xe531;" horiz-adv-x="584" 
d="M574 357h-67c-12 -105 -84 -167 -199 -167h-87v-190h-136v357h-75v52h75v180h210c143 0 207 -63 213 -180h66v-52zM221 481v-72h151c-7 48 -33 72 -81 72h-70zM291 293c49 0 74 22 81 64h-151v-64h70z" />
    <glyph glyph-name="uni0E3F.LP" unicode="&#xe532;" horiz-adv-x="575" 
d="M271 -106v106h-194v589h194v95h50v-95h6c119 0 183 -55 183 -148c0 -75 -42 -121 -106 -137v-4c85 -11 130 -65 130 -139c0 -97 -64 -161 -208 -161h-5v-106h-50zM397 181c0 40 -26 62 -76 63v-129c48 1 76 17 76 66zM213 343h58v131h-58v-131zM213 244v-129h58v129h-58z
M375 408c0 40 -20 59 -54 64v-128c33 6 54 25 54 64z" />
    <glyph glyph-name="numbersign.LP" unicode="&#xe533;" horiz-adv-x="715" 
d="M626 169h-167l-53 -169h-97l52 169h-89l-53 -169h-97l52 169h-105v92h134l26 84h-140v92h168l47 151h99l-47 -151h89l47 151h98l-47 -151h103v-92h-132l-26 -84h138v-92zM327 345l-26 -84h89l26 84h-89z" />
    <glyph glyph-name="at.cap" unicode="&#xe513;" horiz-adv-x="890" 
d="M514 239v70c0 55 -41 78 -75 78c-37 0 -78 -30 -78 -118c0 -70 31 -109 78 -109c33 0 75 21 75 79zM637 471v-294c0 -35 10 -49 36 -49c58 0 95 74 95 197c0 188 -137 278 -308 278c-176 0 -336 -118 -336 -341c0 -213 140 -329 355 -329c73 0 122 8 197 33l16 -67
c-74 -24 -153 -31 -214 -31c-282 0 -433 155 -433 394c0 241 175 405 416 405c251 0 384 -150 384 -334c0 -156 -49 -275 -203 -275c-70 0 -116 28 -122 90c-18 -69 -66 -90 -131 -90c-87 0 -160 67 -160 202c0 136 64 220 179 220c61 0 99 -24 116 -62l29 53h84z" />
    <glyph glyph-name="exclamdown.cap" unicode="&#xe441;" horiz-adv-x="243" 
d="M203 0h-163l37 391h89zM39 517c0 47 36 77 83 77c48 0 84 -30 84 -77s-36 -78 -84 -78c-47 0 -83 31 -83 78z" />
    <glyph glyph-name="questiondown.cap" unicode="&#xe444;" horiz-adv-x="439" 
d="M314 196l125 -45c-23 -105 -90 -163 -221 -163c-124 0 -210 75 -210 184c0 130 97 167 180 168v61h116v-134h-48c-71 0 -106 -21 -106 -85c0 -50 31 -77 77 -77c57 0 82 32 87 91zM329 517c0 -47 -37 -78 -83 -78c-48 0 -84 31 -84 78s36 77 84 77c46 0 83 -30 83 -77z
" />
    <glyph glyph-name="guilsinglleft.cap" unicode="&#xe451;" horiz-adv-x="326" 
d="M151 297v-4s21 -7 52 -40l92 -104l-66 -65l-199 212l199 212l66 -67l-93 -103c-31 -33 -51 -41 -51 -41z" />
    <glyph glyph-name="guilsinglright.cap" unicode="&#xe452;" horiz-adv-x="326" 
d="M175 293v4s-21 8 -51 41l-93 103l66 67l199 -212l-199 -212l-67 65l93 104c30 33 52 40 52 40z" />
    <glyph glyph-name="guillemotleft.cap" unicode="&#xe453;" horiz-adv-x="549" 
d="M374 297v-4s22 -7 52 -40l93 -104l-67 -65l-198 212l198 212l67 -67l-93 -103c-31 -33 -52 -41 -52 -41zM151 297v-4s21 -7 52 -40l92 -104l-66 -65l-199 212l199 212l66 -67l-93 -103c-31 -33 -51 -41 -51 -41z" />
    <glyph glyph-name="guillemotright.cap" unicode="&#xe454;" horiz-adv-x="549" 
d="M175 293v4s-21 8 -51 41l-93 103l66 67l199 -212l-199 -212l-67 65l93 104c30 33 52 40 52 40zM399 293v4s-21 8 -51 41l-93 103l66 67l198 -212l-198 -212l-67 65l93 104c30 33 52 40 52 40z" />
    <glyph glyph-name="plus.cap" unicode="&#xe591;" horiz-adv-x="498" 
d="M45 338h165v160h74v-160h169v-74h-169v-174h-74v174h-165v74z" />
    <glyph glyph-name="minus.cap" unicode="&#xe592;" horiz-adv-x="498" 
d="M453 264h-408v74h408v-74z" />
    <glyph glyph-name="multiply.cap" unicode="&#xe593;" horiz-adv-x="460" 
d="M45 173l129 129l-125 126l52 52l126 -124l131 131l54 -53l-133 -132l136 -135l-53 -53l-135 136l-129 -130z" />
    <glyph glyph-name="divide.cap" unicode="&#xe594;" horiz-adv-x="498" 
d="M453 264h-408v74h408v-74zM189 138c0 31 24 57 55 57s57 -26 57 -57c0 -30 -26 -55 -57 -55s-55 25 -55 55zM189 458c0 32 24 57 55 57s57 -25 57 -57c0 -31 -26 -55 -57 -55s-55 24 -55 55z" />
    <glyph glyph-name="equal.cap" unicode="&#xe595;" horiz-adv-x="498" 
d="M453 187h-408v75h408v-75zM453 336h-408v75h408v-75z" />
    <glyph glyph-name="less.cap" unicode="&#xe596;" horiz-adv-x="398" 
d="M352 451l-189 -151l185 -152l-54 -64l-249 216l254 212z" />
    <glyph glyph-name="greater.cap" unicode="&#xe597;" horiz-adv-x="398" 
d="M234 300l-189 151l53 61l254 -212l-249 -216l-54 64z" />
    <glyph glyph-name="reversequoteleft" unicode="&#x201b;" horiz-adv-x="250" 
d="M32 572c0 65 40 109 96 109c47 0 85 -26 85 -78c0 -54 -44 -80 -90 -73c0 -48 38 -70 95 -75v-55c-108 1 -186 48 -186 172z" />
    <glyph glyph-name="reversequotedblleft" unicode="&#x201f;" horiz-adv-x="482" 
d="M32 572c0 66 40 109 96 109c47 0 85 -25 85 -78s-44 -80 -90 -73c0 -48 38 -70 95 -75v-55c-109 1 -186 49 -186 172zM264 572c0 66 40 109 96 109c47 0 85 -25 85 -78s-44 -80 -90 -73c0 -48 38 -70 95 -75v-55c-109 1 -186 49 -186 172z" />
    <glyph glyph-name="slash.cap" unicode="&#xe461;" horiz-adv-x="370" 
d="M10 -76l233 744h117l-235 -744h-115z" />
    <glyph glyph-name="backslash.cap" unicode="&#xe462;" horiz-adv-x="370" 
d="M127 668l233 -744h-115l-235 744h117z" />
    <glyph glyph-name="bar.cap" unicode="&#xe463;" horiz-adv-x="307" 
d="M207 -76h-107v744h107v-744z" />
    <glyph glyph-name="doublebar.cap" unicode="&#xe464;" horiz-adv-x="508" 
d="M207 -76h-107v744h107v-744zM408 -76h-107v744h107v-744z" />
    <glyph glyph-name="brokenbar.cap" unicode="&#xe465;" horiz-adv-x="307" 
d="M207 333h-107v335h107v-335zM207 -76h-107v318h107v-318z" />
    <glyph glyph-name="altcedilla" unicode="&#xe416;" horiz-adv-x="366" 
d="M286 -123c0 -66 -53 -96 -112 -96c-45 0 -80 17 -94 36l26 71c25 -38 93 -48 93 -1c0 22 -22 37 -64 36l10 52c74 6 141 -24 141 -98z" />
    <glyph glyph-name="dotbelow" unicode="&#xe415;" horiz-adv-x="325" 
d="M80 -132c0 51 36 78 81 78c48 0 84 -27 84 -78c0 -49 -36 -76 -84 -76c-45 0 -81 27 -81 76z" />
    </font>
</defs>
</svg>
